<?xml version="1.0" standalone="no"?>
<!DOCTYPE svg PUBLIC "-//W3C//DTD SVG 20010904//EN"
 "http://www.w3.org/TR/2001/REC-SVG-20010904/DTD/svg10.dtd">
<svg version="1.0" xmlns="http://www.w3.org/2000/svg"
 width="1024.000000pt" height="514.000000pt" viewBox="0 0 1024.000000 514.000000"
 preserveAspectRatio="xMidYMid meet">

<g transform="translate(0.000000,514.000000) scale(0.100000,-0.100000)"
fill="#000000" stroke="none">
<path d="M3277 4974 c-4 -4 -7 -20 -7 -35 0 -15 -4 -30 -8 -33 -5 -3 -32 2
-61 11 -97 28 -188 -5 -251 -90 -32 -45 -38 -48 -69 -43 -21 3 -49 20 -73 43
-41 40 -58 39 -40 -2 13 -28 13 -28 -42 -40 -49 -11 -87 -45 -113 -101 -18
-39 -30 -54 -51 -59 -15 -3 -44 -20 -66 -37 -32 -26 -42 -29 -57 -20 -20 13
-49 16 -49 6 0 -4 9 -22 21 -40 19 -32 20 -34 2 -34 -10 0 -42 -11 -70 -25
-87 -40 -117 -120 -73 -192 30 -50 62 -66 117 -59 27 3 86 7 133 8 57 2 96 9
119 21 l34 17 66 -63 c36 -34 76 -69 89 -77 21 -14 9 -15 -130 -11 -84 2 -205
3 -268 3 -115 -1 -229 -19 -233 -37 -2 -10 42 -25 128 -43 28 -6 75 -18 105
-27 30 -9 105 -20 165 -25 61 -5 135 -17 165 -28 30 -10 71 -22 91 -26 28 -5
38 -12 43 -32 13 -50 7 -51 -124 -19 -71 17 -144 13 -213 -11 -37 -13 -46 -13
-82 2 -90 36 -217 11 -255 -51 -68 -110 53 -252 173 -202 33 14 41 14 82 0 42
-14 50 -14 96 1 43 14 59 15 103 5 32 -7 87 -9 146 -5 52 4 110 6 128 6 17 0
58 -1 90 -2 31 0 68 0 82 0 14 1 53 -1 87 -4 36 -3 69 -1 81 5 15 8 37 7 84
-5 73 -19 201 -14 249 10 26 13 34 13 66 0 24 -10 52 -14 82 -10 63 8 61 8
106 -2 22 -4 58 -4 80 1 45 10 58 10 169 1 144 -12 226 24 226 98 0 128 -191
205 -370 149 -57 -18 -64 -18 -98 -3 -24 10 -68 16 -124 16 -85 1 -88 2 -88
24 0 37 54 52 221 62 131 8 161 14 271 49 67 22 152 48 188 58 75 22 91 46 38
60 -18 4 -184 7 -368 5 l-335 -3 45 46 c64 67 115 98 140 85 24 -13 121 -13
156 0 21 8 37 7 66 -5 58 -23 138 -20 179 8 65 43 88 131 49 194 -19 31 -84
73 -114 73 -20 0 -32 48 -17 63 19 19 12 29 -16 23 -19 -4 -38 0 -58 14 -24
16 -47 20 -110 20 l-80 0 -20 37 c-22 41 -80 72 -132 73 -36 0 -38 2 -22 32
18 34 0 33 -37 -3 -34 -33 -36 -33 -46 -14 -18 33 -82 90 -122 109 -53 25
-132 30 -189 13 l-47 -15 -6 26 c-9 43 -19 64 -27 56z m-29 -119 l42 -24 43
19 c127 57 232 18 327 -120 15 -21 18 -22 72 -11 84 18 133 -6 155 -74 l10
-30 94 0 c108 0 137 -14 163 -76 12 -29 22 -38 49 -43 74 -14 116 -73 97 -132
-24 -71 -100 -93 -203 -58 -36 12 -50 13 -67 4 -31 -17 -121 -15 -155 3 -43
22 -95 79 -104 113 -7 27 -12 29 -57 32 -85 4 -113 12 -149 43 -18 16 -37 43
-40 59 -4 17 -10 32 -15 35 -4 3 -32 -6 -62 -20 -32 -15 -71 -25 -98 -25 -45
0 -121 28 -134 49 -11 18 -36 13 -68 -14 -59 -49 -107 -68 -166 -63 -48 4 -56
2 -81 -23 -34 -34 -96 -52 -150 -43 l-41 7 0 -38 c0 -108 -96 -175 -219 -153
-29 5 -49 4 -57 -3 -8 -6 -30 -11 -51 -11 -29 0 -43 7 -65 31 -66 74 -5 155
131 173 18 2 27 11 33 34 10 41 43 68 106 89 41 13 52 21 52 38 0 32 35 84 72
108 28 17 44 19 103 15 39 -3 84 -8 100 -11 28 -6 32 -2 55 41 56 106 169 138
278 79z m-54 -417 c-4 -68 -7 -124 -8 -125 -1 0 -31 36 -68 82 l-66 84 53 26
c29 14 58 32 65 40 26 31 30 12 24 -107z m299 90 c2 -7 -14 -33 -36 -58 -22
-25 -50 -66 -62 -93 l-22 -48 -11 74 c-6 41 -14 81 -18 90 -5 14 0 17 27 18
19 0 50 7 69 14 45 17 47 17 53 3z m-203 -18 c13 -7 21 -31 30 -95 15 -108 12
-117 -42 -113 l-43 3 1 81 c1 126 11 147 54 124z m-253 -72 c32 -35 113 -143
113 -152 0 -3 -17 -13 -37 -23 -21 -9 -41 -18 -44 -20 -5 -3 -28 44 -83 170
l-25 57 23 0 c12 0 36 -15 53 -32z m510 17 c21 -15 21 -18 8 -48 -8 -18 -19
-51 -25 -74 -6 -22 -18 -51 -28 -63 -17 -21 -18 -21 -55 -4 -45 21 -47 40 -11
103 26 45 72 101 84 101 3 0 15 -7 27 -15z m-576 -109 c17 -45 36 -87 42 -95
13 -16 14 -16 -58 18 -27 13 -87 41 -132 63 -62 29 -83 44 -83 58 0 17 7 20
43 20 25 0 61 10 87 23 55 28 57 26 101 -87z m766 46 c7 -8 10 -18 8 -23 -5
-6 -192 -119 -199 -119 -4 0 22 82 42 132 l15 37 61 -5 c37 -4 66 -12 73 -22z
m59 -73 c18 -20 18 -21 -1 -31 -11 -6 -55 -45 -98 -87 l-78 -76 -29 35 c-16
19 -30 40 -30 45 0 9 195 133 211 134 3 1 14 -8 25 -20z m-1032 2 c3 -5 44
-25 91 -45 47 -20 101 -46 120 -57 l35 -21 -28 -39 c-15 -21 -33 -39 -41 -39
-25 0 -126 60 -181 109 -52 46 -54 50 -42 75 11 25 35 35 46 17z m680 -90
c112 -55 182 -160 193 -290 l6 -69 -32 -17 c-30 -15 -35 -15 -79 2 -61 23
-199 24 -262 0 -24 -9 -49 -12 -55 -8 -26 21 -121 33 -202 27 l-83 -6 0 55 c0
66 30 150 74 208 99 131 288 173 440 98z m851 -131 c-86 -37 -272 -81 -380
-90 -164 -14 -197 -18 -221 -25 -17 -5 -22 0 -32 33 -16 53 -15 59 11 67 43
15 656 30 622 15z m-1413 -36 c31 -16 31 -17 22 -63 -8 -38 -18 -39 -121 -7
-45 14 -115 26 -164 29 -90 5 -279 46 -279 60 0 5 116 5 257 2 195 -5 264 -10
285 -21z m-383 -259 c43 -45 95 -131 84 -138 -9 -6 -49 -10 -80 -8 -13 1 -48
25 -79 56 -32 30 -63 55 -70 55 -19 0 -30 -23 -14 -28 22 -8 60 -50 60 -66 0
-22 -53 -29 -94 -12 -26 11 -41 26 -52 52 -20 47 -8 82 37 112 29 20 44 23
102 20 63 -3 70 -6 106 -43z m649 29 c51 -21 85 -56 113 -115 27 -58 20 -69
-45 -69 -35 0 -45 7 -102 67 -48 50 -67 64 -76 55 -8 -8 -2 -21 25 -52 21 -22
37 -44 37 -49 0 -15 -54 -23 -82 -12 -16 6 -43 37 -71 85 l-46 75 32 10 c81
25 163 27 215 5z m720 -8 c35 -18 63 -50 94 -108 31 -56 23 -68 -41 -68 -41 0
-48 4 -102 60 -55 58 -79 72 -79 49 0 -6 14 -27 30 -46 36 -41 37 -51 7 -58
-50 -13 -98 27 -146 122 l-21 42 37 10 c21 5 47 12 58 15 33 8 133 -3 163 -18z"/>
<path d="M3095 4829 c-42 -12 -103 -75 -88 -90 9 -9 19 -5 42 14 50 41 90 50
146 32 26 -9 49 -14 52 -11 12 12 -9 38 -42 51 -38 17 -65 18 -110 4z"/>
<path d="M3344 4801 c-38 -23 -48 -37 -40 -56 4 -12 12 -10 42 10 27 18 50 25
85 25 65 0 96 -14 141 -62 31 -33 39 -38 44 -24 9 23 -39 82 -86 106 -52 27
-143 27 -186 1z"/>
<path d="M2760 4703 c-41 -15 -97 -91 -86 -119 9 -23 23 -16 36 16 7 17 26 42
43 56 27 23 38 26 79 21 43 -5 48 -4 48 13 0 17 -7 20 -52 19 -29 0 -60 -3
-68 -6z"/>
<path d="M3707 4673 c-20 -20 -4 -30 41 -25 43 4 51 1 69 -22 26 -33 47 -35
38 -3 -11 38 -43 57 -94 57 -26 0 -51 -3 -54 -7z"/>
<path d="M3943 4568 c-43 -21 -27 -35 36 -34 57 1 62 -1 99 -37 45 -44 64 -31
32 21 -33 55 -110 77 -167 50z"/>
<path d="M2538 4520 c-28 -29 -34 -60 -13 -67 6 -1 18 11 27 27 11 20 28 33
48 36 40 9 40 34 -1 34 -21 0 -40 -10 -61 -30z"/>
<path d="M4167 4454 c-15 -15 -6 -34 17 -34 27 0 44 -17 50 -51 3 -13 5 -26 5
-28 3 -12 31 25 31 40 0 39 -80 96 -103 73z"/>
<path d="M2384 4416 c-35 -16 -64 -51 -64 -78 0 -25 27 -23 35 3 9 27 62 59
98 59 19 0 27 4 25 13 -6 17 -57 19 -94 3z"/>
<path d="M3135 4093 c-12 -2 -34 -15 -50 -28 l-30 -25 32 6 c28 6 34 3 43 -20
12 -32 54 -36 70 -6 6 11 20 20 30 20 31 0 26 38 -5 45 -48 10 -70 12 -90 8z"/>
<path d="M3333 4083 c-21 -8 -15 -43 7 -43 10 0 24 -9 30 -20 16 -29 58 -26
72 5 12 26 32 33 43 15 3 -5 11 -10 17 -10 16 0 -11 29 -43 46 -27 13 -100 18
-126 7z"/>
<path d="M3320 3952 c0 -8 -18 -12 -50 -12 -41 0 -48 -3 -43 -16 15 -39 89
-37 99 3 4 13 4 27 0 30 -3 4 -6 1 -6 -5z"/>
<path d="M2200 2806 c0 -604 2 -663 20 -768 79 -461 331 -691 935 -853 55 -15
114 -27 131 -27 75 0 400 104 536 172 295 147 438 324 516 640 l26 105 3 693
4 692 -1085 0 -1086 0 0 -654z m900 219 l0 -385 -425 0 -425 0 0 385 0 385
425 0 425 0 0 -385z m1220 0 l0 -385 -425 0 -425 0 0 385 0 385 425 0 425 0 0
-385z m-1220 -1250 c0 -366 -3 -515 -11 -515 -6 0 -59 16 -117 36 -216 74
-375 166 -480 279 -101 108 -102 105 28 105 91 0 110 -3 110 -15 0 -11 12 -15
45 -15 33 0 45 4 45 15 0 13 21 15 125 15 l125 0 0 205 0 205 -25 0 c-22 0
-25 4 -25 40 l0 40 -62 2 c-150 6 -220 6 -320 1 l-108 -6 0 -38 c0 -35 -3 -39
-25 -39 l-25 0 0 -177 c-1 -157 -2 -176 -15 -159 -46 61 -102 277 -112 434
l-6 102 426 0 427 0 0 -515z m1216 401 c-8 -136 -44 -291 -88 -383 l-33 -68
-3 183 -2 182 -25 0 c-22 0 -25 4 -25 39 l0 39 -102 5 c-57 3 -119 5 -138 5
-19 0 -81 -2 -137 -5 l-103 -5 0 -39 c0 -35 -3 -39 -25 -39 l-25 0 0 -205 0
-205 120 0 c100 0 120 -2 120 -15 0 -11 12 -15 50 -15 38 0 50 4 50 15 0 12
19 15 111 15 l110 0 -21 -30 c-70 -98 -216 -212 -355 -276 -88 -41 -288 -114
-310 -114 -13 0 -15 71 -15 515 l0 515 426 0 427 0 -7 -114z m-1668 -223 l2
-183 -38 0 c-22 0 -60 -3 -86 -6 l-46 -7 0 181 0 180 48 10 c26 6 63 9 82 9
l35 -2 3 -182z m166 176 l61 -12 -2 -176 -2 -176 -31 1 c-16 0 -55 1 -85 2
l-55 2 0 178 c0 98 3 182 7 185 9 10 37 9 107 -4z m1054 -176 l2 -183 -32 0
c-18 0 -57 -3 -85 -6 l-53 -7 0 181 0 180 48 10 c26 6 63 9 82 9 l35 -2 3
-182z m169 176 l63 -11 0 -180 0 -181 -52 7 c-29 3 -69 6 -88 6 l-35 0 3 172
c1 95 4 179 7 186 5 15 21 15 102 1z"/>
<path d="M2545 3290 c-16 -4 -49 -8 -72 -9 -42 -1 -43 -2 -43 -36 0 -31 -3
-35 -25 -35 l-25 0 0 -205 0 -205 120 0 c98 0 122 -3 126 -15 4 -10 20 -15 49
-15 29 0 45 5 49 15 4 12 28 15 126 15 l120 0 0 205 0 205 -25 0 c-22 0 -25 4
-25 33 l0 33 -103 13 c-71 9 -110 10 -123 3 -11 -5 -28 -6 -39 -1 -25 9 -70 9
-110 -1z m103 -225 l2 -180 -52 -2 c-29 -2 -66 -4 -83 -5 l-30 -3 -3 182 -2
182 32 4 c18 2 56 4 83 3 l50 -1 3 -180z m185 177 l38 -7 0 -174 c0 -99 -4
-178 -10 -184 -6 -6 -27 -5 -60 3 -28 7 -63 9 -76 6 l-25 -6 0 178 c0 98 3
182 7 185 8 9 76 8 126 -1z"/>
<path d="M3733 3287 l-73 -10 0 -34 c0 -29 -3 -33 -25 -33 l-25 0 0 -205 0
-205 120 0 c100 0 120 -2 120 -15 0 -11 12 -15 50 -15 38 0 50 4 50 15 0 13
20 15 120 15 l120 0 0 205 0 205 -25 0 c-22 0 -25 4 -25 33 l0 33 -99 13 c-74
10 -104 10 -120 2 -15 -8 -27 -9 -40 -1 -22 11 -46 11 -148 -3z m135 -222 l2
-180 -52 -2 c-29 -1 -69 -4 -88 -5 l-35 -3 0 180 0 180 35 6 c19 4 58 6 85 5
l50 -1 3 -180z m176 179 l46 -7 -2 -181 -3 -181 -30 2 c-16 2 -54 4 -82 5
l-53 3 0 183 0 182 39 0 c21 0 59 -3 85 -6z"/>
<path d="M2967 920 c-101 -26 -182 -95 -230 -198 -27 -58 -31 -76 -31 -156 0
-78 5 -100 28 -152 33 -73 92 -135 161 -166 41 -19 67 -23 145 -23 82 0 102 4
150 27 96 46 157 121 184 226 48 182 -28 352 -189 426 -46 22 -162 30 -218 16z
m131 -35 c103 -31 164 -116 184 -255 33 -221 -59 -379 -220 -380 -104 0 -189
67 -234 184 -31 82 -33 239 -4 306 38 87 80 127 156 151 39 11 62 10 118 -6z"/>
<path d="M1250 901 c0 -5 15 -12 34 -15 27 -5 37 -13 45 -38 14 -39 15 -516 1
-552 -6 -18 -21 -28 -50 -36 -22 -6 -40 -16 -40 -22 0 -7 53 -9 178 -6 154 4
184 8 228 27 100 43 145 121 125 214 -12 52 -70 108 -132 126 l-42 13 39 18
c64 29 87 61 92 129 4 53 2 61 -26 93 -18 19 -48 40 -70 46 -46 14 -382 17
-382 3z m357 -53 c20 -21 27 -39 31 -81 8 -100 -37 -145 -150 -150 l-63 -2 -3
119 c-1 66 0 126 3 134 4 11 22 13 80 10 65 -3 78 -7 102 -30z m-21 -282 c85
-40 116 -133 74 -222 -26 -52 -74 -79 -147 -79 -83 0 -87 8 -91 180 l-3 145
58 0 c40 0 74 -8 109 -24z"/>
<path d="M1960 902 c0 -5 18 -12 39 -16 57 -9 61 -28 61 -311 0 -281 -4 -300
-61 -315 -74 -20 -41 -30 101 -30 143 0 175 10 100 30 -53 14 -60 34 -60 166
l0 105 52 -3 c59 -3 45 12 158 -169 59 -93 93 -119 170 -128 61 -7 76 0 39 19
-31 17 -88 84 -149 175 -75 113 -88 137 -73 142 25 9 77 49 97 76 30 41 30
153 0 194 -46 62 -70 68 -281 71 -118 2 -193 0 -193 -6z m346 -44 c61 -42 81
-127 48 -205 -25 -60 -64 -85 -145 -91 l-69 -5 0 155 c0 85 3 158 7 161 3 4
33 7 67 7 45 0 68 -5 92 -22z"/>
<path d="M3480 901 c0 -5 14 -12 31 -16 40 -9 61 -54 145 -320 108 -344 106
-336 122 -333 10 2 43 85 98 252 46 137 85 250 87 252 2 3 25 -55 52 -128 127
-354 137 -379 153 -376 10 2 33 60 69 178 90 291 134 424 148 447 8 12 28 24
45 28 62 14 26 25 -80 25 -67 0 -110 -4 -110 -10 0 -5 10 -10 23 -10 43 0 61
-22 54 -66 -7 -44 -114 -420 -123 -436 -4 -6 -31 56 -61 138 -122 339 -136
374 -148 374 -7 0 -26 -44 -44 -102 -85 -272 -133 -418 -136 -418 -2 0 -10 21
-19 48 -115 360 -136 433 -131 441 3 6 21 13 40 17 72 13 31 24 -90 24 -69 0
-125 -4 -125 -9z"/>
<path d="M4590 902 c0 -4 19 -13 43 -19 70 -19 72 -28 71 -317 0 -173 -4 -258
-13 -273 -6 -13 -28 -27 -51 -33 -69 -19 -34 -30 91 -30 91 0 120 3 117 12 -3
7 -19 15 -37 19 -47 10 -54 21 -63 102 -10 100 -10 407 0 407 5 0 63 -66 129
-147 280 -341 320 -388 335 -391 15 -3 17 26 20 308 l3 312 24 19 c13 10 34
19 47 19 13 0 24 5 24 10 0 6 -48 10 -125 10 -122 0 -163 -11 -86 -24 65 -10
66 -13 69 -268 2 -147 0 -228 -6 -228 -6 0 -12 4 -14 9 -1 5 -97 122 -212 260
l-208 251 -79 0 c-44 0 -79 -4 -79 -8z"/>
</g>
</svg>
