<svg id="svg" version="1.1" xmlns="http://www.w3.org/2000/svg" xmlns:xlink="http://www.w3.org/1999/xlink" width="400" height="460.8294930875576" viewBox="0, 0, 400,460.8294930875576"><g id="svgg"><path id="path0" d="M197.619 0.731 C 197.240 1.472,196.995 2.592,196.642 5.185 C 196.534 5.977,196.398 6.852,196.340 7.130 L 196.235 7.635 194.341 6.801 C 182.314 1.508,169.371 6.256,163.541 18.099 C 163.138 18.917,162.751 19.585,162.681 19.582 C 162.611 19.579,161.938 19.373,161.184 19.123 C 160.431 18.873,158.996 18.482,157.995 18.254 C 156.333 17.876,156.127 17.778,155.623 17.129 C 154.749 16.003,152.494 13.686,151.075 12.457 C 148.272 10.029,147.248 11.549,148.777 15.869 L 149.329 17.429 148.068 17.557 C 143.279 18.044,138.963 20.295,135.932 23.885 C 134.027 26.142,132.351 29.634,132.026 32.024 C 131.875 33.136,131.708 33.291,130.466 33.481 C 126.331 34.111,121.708 36.845,119.116 40.193 C 118.643 40.805,118.384 40.735,116.607 39.519 C 113.860 37.640,111.711 37.304,111.607 38.738 C 111.512 40.046,112.954 42.696,114.994 44.965 L 115.830 45.895 115.244 45.895 C 114.638 45.895,109.799 47.073,108.785 47.468 C 99.115 51.230,95.412 58.732,99.324 66.635 C 102.650 73.354,110.080 75.806,116.922 72.442 L 118.408 71.712 119.741 72.057 C 125.636 73.585,134.774 72.298,138.585 69.403 C 139.432 68.760,139.271 68.662,142.022 71.479 C 148.186 77.787,151.146 80.313,154.681 82.278 C 156.545 83.315,157.256 83.777,156.793 83.650 C 154.368 82.987,149.591 82.735,147.076 83.137 C 142.553 83.860,136.484 83.718,130.046 82.739 C 124.912 81.958,119.197 81.798,113.273 82.268 C 111.122 82.438,108.065 82.663,106.481 82.766 C 104.728 82.881,102.774 83.145,101.488 83.441 C 100.326 83.708,98.728 84.061,97.936 84.225 C 93.005 85.248,92.367 85.496,92.367 86.382 C 92.367 88.028,94.341 88.700,103.738 90.257 C 107.813 90.933,108.716 91.149,110.898 91.974 C 118.819 94.969,125.990 96.244,134.622 96.191 C 139.527 96.161,140.760 96.349,144.905 97.764 C 146.163 98.193,148.077 98.835,149.159 99.190 C 151.323 99.901,157.461 101.297,159.312 101.500 L 160.486 101.628 160.656 104.461 L 160.826 107.295 159.404 107.823 L 157.983 108.351 156.716 107.756 C 148.388 103.842,137.377 103.514,127.101 106.874 C 123.931 107.910,124.420 107.912,121.643 106.854 C 113.799 103.862,106.603 103.937,100.165 107.078 C 86.850 113.574,94.320 134.363,109.232 132.315 C 111.371 132.021,113.154 131.392,114.629 130.413 L 115.846 129.605 117.318 130.370 C 122.222 132.922,127.474 132.848,133.029 130.151 L 134.613 129.381 135.525 129.767 C 142.305 132.632,155.696 132.813,164.456 130.156 L 166.539 129.525 168.152 130.319 C 172.240 132.331,176.524 132.467,181.573 130.744 L 183.885 129.956 185.274 130.565 C 190.428 132.827,197.999 132.401,201.095 129.674 C 201.387 129.416,201.489 129.427,202.055 129.773 C 207.917 133.353,228.692 133.201,233.365 129.544 L 233.947 129.089 235.014 129.561 C 240.259 131.881,245.040 132.267,249.766 130.754 C 251.415 130.225,251.585 130.204,252.002 130.477 C 255.317 132.649,263.178 132.646,268.132 130.470 L 269.630 129.813 271.958 130.489 C 278.871 132.498,287.965 132.424,295.727 130.295 C 305.699 127.560,304.159 113.815,293.265 108.322 C 284.494 103.899,270.511 103.964,261.602 108.469 L 260.491 109.031 259.146 108.299 C 254.059 105.528,242.197 104.173,236.726 105.739 C 236.420 105.826,236.390 105.642,236.390 103.715 L 236.390 101.596 237.878 100.907 C 242.727 98.664,243.577 98.537,257.705 97.943 C 267.305 97.540,275.820 96.172,280.045 94.354 C 285.855 91.854,286.259 91.727,297.936 88.721 C 308.464 86.011,309.554 85.547,309.554 83.770 C 309.554 82.253,308.074 81.734,300.686 80.658 C 291.913 79.381,283.880 79.364,273.260 80.600 C 268.061 81.205,256.073 81.355,251.080 80.877 C 249.707 80.746,247.806 80.564,246.855 80.474 C 244.771 80.275,242.337 80.493,239.791 81.109 L 237.929 81.559 238.870 80.633 C 239.388 80.123,240.716 78.601,241.822 77.251 C 245.280 73.031,247.067 71.497,250.936 69.431 L 253.672 67.971 254.392 68.337 C 258.928 70.641,265.636 70.668,271.471 68.405 L 273.403 67.655 274.628 68.219 C 285.528 73.240,296.264 70.887,300.090 62.640 C 304.337 53.487,299.032 44.170,288.577 42.421 C 287.120 42.178,287.087 42.160,286.868 41.490 C 286.745 41.114,286.366 40.195,286.027 39.447 L 285.409 38.087 286.552 36.662 C 289.461 33.036,288.390 31.893,284.193 34.146 L 282.932 34.822 281.632 33.826 C 276.863 30.171,269.703 29.186,261.327 31.034 C 260.856 31.138,260.797 31.074,260.487 30.119 C 258.298 23.376,253.896 20.285,246.456 20.268 L 242.985 20.259 243.629 18.844 C 246.307 12.967,244.530 12.595,239.148 17.907 L 237.009 20.018 236.020 18.552 C 228.060 6.756,215.395 2.493,203.033 7.449 L 201.152 8.202 201.013 6.838 C 200.428 1.083,198.870 -1.721,197.619 0.731 M187.998 9.419 C 191.060 9.905,193.835 11.009,196.835 12.937 C 199.259 14.493,199.129 14.493,202.063 12.962 C 214.976 6.222,227.539 10.872,235.468 25.326 C 236.124 26.523,236.858 26.652,239.120 25.969 C 249.334 22.887,255.897 25.519,257.444 33.317 C 257.964 35.941,258.719 36.392,261.325 35.638 C 272.044 32.535,281.620 35.965,283.525 43.591 C 284.156 46.119,284.385 46.313,287.155 46.661 C 294.342 47.567,298.634 52.495,297.406 58.433 C 295.656 66.896,286.699 69.351,275.968 64.308 C 273.564 63.179,273.967 63.187,271.630 64.224 C 264.212 67.515,257.557 66.597,251.588 61.460 C 248.945 59.185,246.247 55.051,245.515 52.155 C 244.995 50.095,244.304 49.620,242.325 49.964 C 232.536 51.664,224.419 47.555,221.793 39.568 C 220.636 36.050,220.248 35.883,217.296 37.629 C 207.717 43.294,200.412 42.792,190.706 35.804 C 189.463 34.908,188.800 35.098,186.818 36.918 C 179.466 43.666,172.842 45.851,166.059 43.765 C 164.345 43.239,163.994 43.376,162.544 45.142 C 158.684 49.845,151.728 51.913,145.671 50.160 C 142.721 49.305,142.252 49.840,142.426 53.863 C 142.739 61.100,139.531 65.662,132.597 67.840 C 129.196 68.909,123.832 69.065,120.787 68.183 C 118.312 67.466,117.861 67.461,116.809 68.136 C 111.144 71.769,104.663 69.562,102.850 63.383 C 100.857 56.588,106.796 51.523,118.514 50.024 C 119.798 49.860,120.253 49.317,120.781 47.318 C 122.230 41.832,124.892 39.629,132.167 37.896 C 135.920 37.001,136.136 36.829,136.348 34.555 C 136.526 32.653,137.231 30.575,138.291 28.830 C 142.720 21.540,150.853 19.986,162.673 24.169 C 165.293 25.096,165.742 24.864,166.874 21.997 C 170.381 13.118,178.995 7.989,187.998 9.419 M183.146 13.541 C 177.772 14.559,170.864 19.842,171.372 22.547 C 171.744 24.532,173.297 24.908,174.639 23.337 C 179.505 17.641,186.117 16.318,192.291 19.804 C 194.150 20.854,194.340 20.863,194.909 19.930 C 195.714 18.610,195.472 17.427,194.191 16.421 C 190.953 13.876,186.924 12.826,183.146 13.541 M211.426 14.986 C 204.968 15.756,199.572 19.257,200.313 22.197 C 200.825 24.233,201.655 24.584,202.779 23.242 C 206.332 18.999,214.256 17.639,220.176 20.257 C 222.971 21.493,225.828 24.016,227.769 26.962 C 229.271 29.242,229.282 29.246,230.474 28.054 C 231.711 26.817,231.671 26.348,230.126 24.019 C 225.849 17.569,218.705 14.118,211.426 14.986 M150.847 25.740 C 145.882 26.522,141.937 29.772,139.959 34.709 C 138.713 37.821,139.088 39.424,141.070 39.450 L 141.952 39.462 142.377 38.209 C 144.902 30.766,150.126 27.682,156.884 29.644 C 157.951 29.953,158.620 30.058,158.828 29.947 C 159.604 29.531,160.064 27.358,159.530 26.632 C 159.008 25.923,153.366 25.344,150.847 25.740 M243.015 28.429 C 239.684 28.946,238.830 29.493,238.804 31.127 C 238.779 32.707,239.371 32.945,241.575 32.242 C 246.129 30.789,249.689 32.079,251.372 35.792 C 251.936 37.035,252.183 37.254,253.025 37.254 C 255.696 37.254,254.220 32.057,250.899 29.773 C 249.134 28.558,245.819 27.993,243.015 28.429 M265.128 38.899 C 261.220 39.775,259.793 41.081,260.705 42.948 C 261.134 43.826,261.320 43.842,263.562 43.202 C 269.191 41.594,273.903 43.328,277.040 48.160 C 278.379 50.223,279.153 50.472,279.986 49.107 C 281.366 46.843,278.213 41.954,274.124 40.016 C 271.430 38.739,267.834 38.292,265.128 38.899 M190.207 40.951 C 191.005 41.468,190.991 41.215,190.393 44.381 C 189.476 49.230,189.078 53.748,189.066 59.444 L 189.054 64.639 188.566 63.957 C 188.298 63.581,187.488 62.367,186.767 61.258 C 185.692 59.604,183.660 56.864,183.206 56.457 C 183.147 56.404,182.846 56.022,182.538 55.608 C 182.229 55.194,181.594 54.417,181.127 53.880 C 180.660 53.343,179.790 52.343,179.193 51.657 C 178.597 50.970,177.685 49.954,177.166 49.398 C 176.648 48.842,176.260 48.366,176.302 48.341 C 176.345 48.315,177.284 47.992,178.389 47.623 C 181.521 46.576,186.724 43.337,188.850 41.109 C 189.522 40.405,189.389 40.421,190.207 40.951 M131.178 41.398 C 127.159 42.479,123.668 46.194,123.668 49.391 C 123.668 50.845,126.146 51.645,126.669 50.360 C 128.114 46.805,129.768 45.378,133.331 44.611 C 135.187 44.212,135.894 43.037,135.265 41.398 C 135.112 41.000,132.658 41.000,131.178 41.398 M218.525 43.639 L 219.097 44.839 217.413 46.567 C 215.252 48.785,214.148 50.102,212.264 52.712 C 209.907 55.977,208.829 58.014,207.446 61.810 L 207.070 62.843 206.936 60.472 C 206.734 56.898,206.142 52.813,205.166 48.255 C 204.912 47.070,204.705 46.062,204.705 46.015 C 204.705 45.967,205.374 45.873,206.193 45.806 C 209.833 45.508,213.064 44.655,216.089 43.192 C 218.032 42.253,217.847 42.219,218.525 43.639 M196.124 44.205 C 196.355 44.332,197.359 44.708,198.356 45.040 L 200.169 45.644 200.620 46.970 C 202.075 51.251,203.229 61.137,202.669 64.522 L 202.558 65.194 198.360 65.194 C 194.327 65.194,194.159 65.179,194.055 64.810 C 193.206 61.779,193.681 52.404,195.004 46.087 C 195.492 43.753,195.445 43.833,196.124 44.205 M222.860 49.749 C 223.489 50.284,224.501 51.031,225.108 51.409 C 225.715 51.786,226.212 52.118,226.212 52.147 C 226.212 52.176,225.661 53.266,224.988 54.568 C 223.994 56.492,223.666 57.370,223.239 59.241 C 221.867 65.264,221.294 66.819,219.608 69.091 C 218.420 70.692,218.571 70.689,215.528 69.174 C 214.064 68.445,212.365 67.644,211.752 67.394 L 210.637 66.940 210.765 66.163 C 211.505 61.675,215.380 54.956,220.003 50.146 C 221.573 48.513,221.431 48.533,222.860 49.749 M173.089 50.567 C 177.222 54.922,185.502 65.999,185.502 67.174 C 185.502 67.255,184.746 67.644,183.821 68.037 C 182.897 68.431,181.191 69.303,180.029 69.975 C 177.647 71.353,177.793 71.364,176.674 69.715 C 175.220 67.572,173.826 64.416,171.475 57.945 C 170.138 54.265,169.169 52.081,168.027 50.174 L 167.426 49.173 169.695 49.277 L 171.964 49.381 173.089 50.567 M165.236 54.441 C 165.855 55.708,166.508 57.134,166.687 57.609 C 166.867 58.084,167.457 59.626,168.000 61.034 C 168.543 62.443,168.987 63.669,168.987 63.759 C 168.987 64.140,170.978 68.592,171.771 69.984 C 172.815 71.815,172.812 71.797,171.916 71.101 C 169.828 69.482,166.065 67.570,161.870 65.999 C 156.701 64.062,151.960 61.804,148.546 59.652 C 147.601 59.057,146.758 58.569,146.674 58.569 C 146.589 58.569,146.519 57.806,146.519 56.872 L 146.519 55.176 148.968 55.261 C 153.935 55.435,159.094 53.858,162.350 51.168 L 163.107 50.544 163.609 51.340 C 163.885 51.778,164.617 53.173,165.236 54.441 M284.878 50.598 C 284.772 50.634,284.455 50.713,284.172 50.775 C 283.171 50.995,282.953 53.265,283.878 53.845 C 284.120 53.997,285.046 54.149,286.036 54.201 C 289.477 54.381,290.735 55.759,290.735 59.349 C 290.735 61.078,290.902 61.308,292.178 61.336 C 294.947 61.395,294.933 55.969,292.157 53.002 C 290.539 51.272,286.679 49.997,284.878 50.598 M115.602 53.120 C 110.238 54.061,106.711 56.514,105.613 60.066 C 104.924 62.298,105.222 63.624,106.555 64.257 C 107.458 64.685,107.757 64.454,108.127 63.041 C 109.230 58.829,112.450 56.573,117.775 56.283 C 120.532 56.132,120.667 56.061,120.522 54.843 C 120.338 53.307,118.402 52.628,115.602 53.120 M232.190 54.531 C 234.064 54.979,237.764 55.323,239.994 55.256 L 241.583 55.209 242.242 56.811 C 242.605 57.692,242.994 58.525,243.108 58.662 C 243.266 58.853,243.102 59.032,242.396 59.437 C 241.892 59.727,240.139 60.788,238.502 61.794 C 233.578 64.822,232.357 65.557,230.149 66.823 C 228.987 67.489,227.432 68.383,226.692 68.808 C 225.953 69.234,224.878 69.928,224.303 70.350 C 223.316 71.076,223.280 71.087,223.655 70.556 C 224.845 68.871,225.800 66.433,226.414 63.513 C 227.006 60.695,227.644 58.778,228.811 56.313 C 229.975 53.854,229.782 53.956,232.190 54.531 M249.032 64.944 L 250.056 65.816 248.744 66.541 C 244.695 68.780,243.609 69.685,239.753 74.028 C 235.118 79.248,230.769 83.091,230.480 82.222 C 230.211 81.415,228.252 78.847,226.585 77.116 L 224.618 75.074 225.079 74.581 C 225.717 73.898,228.028 72.404,231.877 70.184 C 237.230 67.097,239.259 65.870,241.372 64.440 C 242.475 63.693,243.899 62.760,244.535 62.367 L 245.692 61.651 246.850 62.862 C 247.487 63.528,248.468 64.465,249.032 64.944 M146.859 62.948 C 149.552 64.756,156.571 68.363,157.395 68.363 C 158.644 68.363,168.369 73.135,170.865 74.972 L 172.069 75.858 170.553 77.631 C 169.097 79.336,166.605 82.712,166.441 83.202 C 166.250 83.776,160.811 81.524,157.144 79.352 C 152.833 76.800,147.766 72.656,144.341 68.882 L 142.834 67.222 144.005 64.881 C 144.648 63.593,145.175 62.415,145.175 62.262 C 145.175 61.901,145.495 62.032,146.859 62.948 M202.360 68.760 C 218.103 70.489,230.380 82.253,232.636 97.768 C 232.940 99.859,233.024 105.524,232.775 107.120 L 232.645 107.951 230.533 108.678 C 229.371 109.078,228.013 109.585,227.514 109.806 L 226.608 110.207 224.826 109.367 C 215.323 104.891,202.113 105.084,194.337 109.812 L 193.697 110.201 192.871 109.633 C 188.036 106.306,176.198 105.181,166.645 107.141 C 165.663 107.342,164.846 107.492,164.829 107.474 C 164.629 107.263,164.353 102.393,164.450 100.796 C 165.632 81.343,183.034 66.637,202.360 68.760 M296.080 84.380 C 299.255 84.800,299.171 84.923,295.156 85.741 C 290.414 86.706,285.592 88.076,280.917 89.783 C 273.279 92.573,264.330 93.898,250.504 94.286 C 243.656 94.478,242.956 94.579,239.760 95.828 C 238.630 96.270,237.382 96.675,236.987 96.728 L 236.269 96.825 235.956 94.932 C 235.783 93.891,235.287 91.931,234.852 90.577 C 233.921 87.673,233.897 87.838,235.321 87.259 C 239.803 85.436,242.895 84.957,249.448 85.071 C 261.318 85.277,271.246 85.168,274.220 84.800 C 279.234 84.179,292.616 83.922,296.080 84.380 M183.588 85.747 C 180.895 86.507,176.860 89.548,176.860 90.818 C 176.860 91.390,177.358 91.324,179.026 90.532 C 180.015 90.062,180.754 89.844,181.398 89.830 C 182.957 89.797,183.129 89.919,183.256 91.150 C 183.759 96.025,190.099 96.193,191.155 91.359 C 191.293 90.723,192.285 90.635,193.873 91.117 C 194.391 91.274,194.828 91.403,194.843 91.405 C 195.120 91.425,195.391 87.438,195.140 87.044 C 194.463 85.977,186.100 85.038,183.588 85.747 M127.028 86.385 C 133.148 87.218,141.799 87.378,149.592 86.802 C 154.648 86.428,159.236 87.534,161.791 89.743 L 162.509 90.364 162.106 92.085 C 161.885 93.032,161.565 94.669,161.396 95.724 C 161.227 96.778,161.057 97.672,161.018 97.712 C 160.589 98.141,155.716 96.961,149.496 94.923 C 141.825 92.409,141.561 92.361,134.614 92.168 C 131.212 92.074,127.931 91.882,126.786 91.711 C 122.105 91.009,117.474 89.909,113.394 88.528 C 112.083 88.084,110.055 87.581,108.689 87.362 C 107.369 87.150,105.943 86.876,105.521 86.755 L 104.753 86.533 105.713 86.394 C 106.241 86.318,108.012 86.237,109.650 86.214 C 111.287 86.190,113.274 86.106,114.066 86.025 C 116.680 85.758,123.897 85.959,127.028 86.385 M205.768 86.038 C 202.213 86.598,201.677 87.185,202.190 89.958 C 202.466 91.447,202.471 91.450,204.156 91.188 C 206.144 90.879,206.487 90.995,206.774 92.070 C 207.965 96.521,214.489 95.518,214.497 90.882 C 214.500 89.518,216.087 89.800,219.683 91.802 L 220.355 92.177 220.416 91.595 C 220.771 88.181,212.375 84.996,205.768 86.038 M202.281 99.060 C 202.216 99.387,202.063 99.738,201.941 99.839 C 201.340 100.337,196.027 100.559,193.183 100.204 C 192.743 100.149,192.707 100.200,192.755 100.816 C 192.975 103.657,194.490 104.849,197.883 104.849 C 201.727 104.849,202.976 103.726,202.976 100.275 C 202.976 98.745,202.508 97.927,202.281 99.060 M145.711 109.080 C 153.914 109.955,157.888 112.735,161.702 120.265 C 162.355 121.556,163.182 123.099,163.540 123.696 C 164.318 124.993,164.256 125.257,163.027 125.880 C 158.338 128.256,147.999 128.668,139.606 126.814 C 135.677 125.946,134.081 124.188,130.093 116.333 C 129.090 114.358,128.136 112.609,127.973 112.446 C 126.264 110.737,138.853 108.349,145.711 109.080 M115.179 109.376 C 120.406 110.446,124.090 113.730,128.086 120.883 C 128.853 122.256,129.867 123.963,130.339 124.676 C 131.340 126.187,131.314 126.365,129.995 127.033 C 127.056 128.522,122.791 128.267,120.019 126.436 C 119.438 126.053,117.235 123.989,115.122 121.851 C 110.942 117.619,109.798 116.760,108.341 116.756 C 105.978 116.751,105.404 119.478,107.649 120.043 C 108.909 120.360,113.298 124.871,113.298 125.848 C 113.298 127.434,109.014 128.686,105.932 128.001 C 97.197 126.057,94.943 115.043,102.464 111.055 C 105.606 109.389,111.462 108.616,115.179 109.376 M283.341 109.557 C 292.237 110.895,298.818 116.238,298.796 122.104 C 298.774 127.778,285.819 130.158,274.080 126.644 C 271.936 126.002,269.347 122.741,266.715 117.364 C 265.957 115.814,265.045 114.060,264.689 113.465 C 263.855 112.070,263.849 112.093,265.159 111.505 C 269.197 109.693,277.988 108.751,283.341 109.557 M182.429 109.937 C 189.365 111.237,192.253 113.716,196.305 121.843 C 197.095 123.428,197.943 125.081,198.191 125.518 C 199.696 128.174,193.384 129.705,188.472 127.875 C 187.042 127.343,185.370 125.771,182.474 122.235 C 178.111 116.910,175.882 115.411,174.451 116.842 C 173.506 117.787,173.722 118.243,176.347 120.843 C 178.694 123.167,180.893 125.868,180.893 126.425 C 180.893 127.576,176.937 128.597,174.458 128.086 C 171.304 127.434,170.108 126.167,165.672 118.771 C 164.658 117.081,163.347 114.969,162.758 114.077 C 161.497 112.169,161.387 112.356,164.282 111.482 C 170.529 109.595,177.459 109.006,182.429 109.937 M215.835 110.128 C 222.880 111.367,226.235 113.864,229.512 120.307 C 230.264 121.786,231.212 123.524,231.618 124.169 C 232.743 125.954,232.617 126.200,230.112 127.114 C 224.281 129.242,213.037 129.277,206.375 127.187 C 203.819 126.385,201.764 123.858,198.647 117.684 C 197.722 115.853,196.763 114.032,196.514 113.638 C 195.918 112.690,195.935 112.603,196.818 112.153 C 200.695 110.175,210.290 109.153,215.835 110.128 M250.600 110.136 C 255.483 111.201,258.682 113.113,261.243 116.498 C 262.558 118.236,266.539 125.895,266.539 126.686 C 266.539 128.643,259.206 129.257,255.497 127.611 C 254.358 127.106,253.212 125.922,249.661 121.581 C 245.923 117.013,244.314 116.090,242.881 117.695 C 241.962 118.723,242.178 119.220,244.270 120.889 C 246.074 122.328,248.872 125.869,248.872 126.713 C 248.872 127.322,247.097 128.089,245.386 128.218 C 240.177 128.610,237.196 125.550,231.184 113.640 C 230.475 112.237,230.387 112.329,233.230 111.490 C 239.260 109.709,246.174 109.170,250.600 110.136 M93.210 207.537 C 93.258 241.097,93.341 268.944,93.395 269.419 C 93.448 269.894,93.544 271.061,93.606 272.012 C 93.860 275.876,94.375 280.176,95.075 284.301 C 95.291 285.569,95.503 286.865,95.546 287.182 C 95.590 287.499,95.672 287.974,95.728 288.238 C 95.784 288.502,95.880 289.017,95.941 289.382 C 96.100 290.334,97.495 295.963,97.963 297.543 C 98.181 298.278,98.395 299.076,98.439 299.316 C 98.514 299.730,100.087 304.407,100.429 305.233 C 100.517 305.444,100.733 306.006,100.909 306.481 C 101.086 306.956,101.670 308.339,102.207 309.554 C 102.743 310.768,103.183 311.870,103.184 312.002 C 103.184 312.134,103.251 312.242,103.332 312.242 C 103.474 312.242,103.697 312.757,103.687 313.065 C 103.685 313.148,103.816 313.349,103.980 313.512 C 104.143 313.676,104.232 313.881,104.177 313.969 C 104.123 314.057,104.155 314.158,104.248 314.194 C 104.341 314.229,104.721 314.863,105.093 315.602 C 107.787 320.964,112.800 327.945,117.423 332.774 C 118.376 333.769,119.025 334.510,118.867 334.421 C 118.684 334.319,118.713 334.412,118.945 334.677 C 119.348 335.136,119.546 335.229,119.323 334.854 C 119.244 334.722,119.973 335.365,120.942 336.283 C 122.948 338.182,125.196 340.081,127.364 341.706 C 128.183 342.320,128.853 342.897,128.853 342.990 C 128.853 343.083,128.935 343.159,129.036 343.159 C 129.322 343.159,130.575 344.057,130.477 344.191 C 130.428 344.257,130.439 344.275,130.500 344.232 C 130.632 344.138,135.640 347.364,135.734 347.604 C 135.769 347.694,135.884 347.768,135.990 347.768 C 136.095 347.768,137.103 348.299,138.230 348.948 C 139.357 349.597,141.531 350.779,143.063 351.574 C 144.594 352.369,145.876 353.092,145.912 353.179 C 145.947 353.267,146.048 353.294,146.136 353.240 C 146.224 353.186,146.413 353.250,146.557 353.383 C 146.700 353.516,146.944 353.653,147.100 353.689 C 147.256 353.724,148.291 354.165,149.400 354.670 C 153.809 356.676,160.321 359.331,162.602 360.053 C 163.051 360.195,163.418 360.389,163.418 360.484 C 163.418 360.579,163.493 360.610,163.585 360.553 C 163.677 360.496,164.822 360.840,166.129 361.316 C 167.437 361.793,168.637 362.210,168.795 362.244 C 168.953 362.277,169.213 362.350,169.371 362.406 C 170.136 362.676,175.396 364.318,175.676 364.374 C 176.588 364.556,177.052 364.725,177.052 364.873 C 177.052 364.964,177.178 364.990,177.331 364.931 C 177.485 364.872,177.722 364.894,177.859 364.980 C 177.996 365.065,178.238 365.157,178.397 365.183 C 178.555 365.209,180.018 365.622,181.648 366.100 C 183.278 366.579,184.769 366.971,184.961 366.971 C 185.153 366.971,185.310 367.062,185.310 367.174 C 185.310 367.286,185.390 367.328,185.489 367.266 C 185.588 367.205,187.295 367.593,189.282 368.129 C 191.269 368.664,193.046 369.116,193.231 369.133 C 193.416 369.151,193.567 369.211,193.567 369.268 C 193.567 369.325,193.890 369.389,194.284 369.410 C 194.679 369.432,195.032 369.541,195.069 369.652 C 195.106 369.763,195.208 369.809,195.295 369.755 C 195.382 369.701,196.174 369.831,197.055 370.045 L 198.656 370.432 201.248 369.826 C 202.674 369.492,205.680 368.749,207.928 368.173 C 210.176 367.598,212.120 367.105,212.248 367.079 C 212.794 366.967,213.822 366.684,216.957 365.783 C 218.785 365.259,220.490 364.791,220.745 364.745 C 221.000 364.699,221.406 364.586,221.646 364.494 C 221.887 364.403,222.147 364.316,222.226 364.300 C 222.304 364.284,222.476 364.234,222.610 364.188 C 223.564 363.855,230.195 361.760,230.430 361.716 C 230.592 361.686,231.039 361.525,231.423 361.358 C 231.808 361.192,233.017 360.752,234.112 360.382 C 235.206 360.012,237.009 359.346,238.118 358.902 C 239.227 358.458,240.221 358.076,240.326 358.052 C 240.432 358.028,240.735 357.916,240.999 357.803 C 241.556 357.563,242.779 357.094,242.919 357.067 C 242.972 357.056,243.706 356.721,244.551 356.323 C 245.396 355.924,246.390 355.486,246.759 355.349 C 248.623 354.658,256.062 350.856,259.564 348.803 C 263.406 346.552,269.728 342.215,271.387 340.691 C 271.678 340.425,271.916 340.250,271.916 340.302 C 271.916 340.355,272.412 339.939,273.020 339.378 C 273.627 338.817,274.196 338.358,274.285 338.358 C 274.374 338.358,276.258 336.543,278.472 334.325 C 280.686 332.108,282.441 330.293,282.372 330.293 C 282.303 330.293,282.675 329.796,283.199 329.189 C 284.539 327.634,287.660 323.460,288.297 322.372 C 288.590 321.870,288.913 321.459,289.014 321.459 C 289.116 321.459,289.178 321.395,289.153 321.315 C 289.095 321.130,291.879 316.416,292.157 316.230 C 292.272 316.152,292.306 316.087,292.231 316.086 C 292.088 316.082,294.807 310.383,295.131 310.006 C 295.235 309.885,295.285 309.751,295.241 309.708 C 295.198 309.664,295.494 308.856,295.900 307.911 C 296.305 306.966,296.873 305.502,297.162 304.657 C 297.451 303.812,297.775 303.012,297.883 302.880 C 297.991 302.748,298.030 302.640,297.970 302.640 C 297.873 302.640,298.407 300.902,298.737 300.144 C 298.908 299.751,298.905 299.762,299.085 298.896 C 299.172 298.473,299.357 297.858,299.494 297.528 C 299.632 297.198,299.691 296.874,299.624 296.808 C 299.558 296.742,299.602 296.687,299.722 296.687 C 299.842 296.687,299.892 296.562,299.833 296.409 C 299.774 296.255,299.796 296.018,299.882 295.881 C 299.967 295.743,300.051 295.545,300.067 295.439 C 300.084 295.334,300.407 293.908,300.786 292.271 C 301.449 289.402,301.636 288.498,301.778 287.470 C 301.814 287.206,302.018 285.953,302.231 284.686 C 303.068 279.705,303.661 274.618,303.899 270.379 C 304.133 266.215,304.159 265.671,304.199 264.138 C 304.220 263.293,304.224 236.483,304.207 204.561 L 304.177 146.519 198.650 146.519 L 93.124 146.519 93.210 207.537 M180.701 188.958 L 180.701 226.404 139.414 226.404 L 98.128 226.404 98.128 189.055 L 98.128 151.705 129.381 151.656 C 146.570 151.629,165.149 151.586,170.667 151.560 L 180.701 151.512 180.701 188.958 M212.578 191.167 L 212.578 230.821 255.977 230.821 L 299.376 230.821 299.376 243.207 L 299.376 255.593 255.977 255.593 L 212.578 255.593 212.578 308.641 L 212.578 361.690 205.905 363.379 C 197.935 365.396,199.303 365.375,192.401 363.583 C 189.293 362.776,186.339 362.030,185.838 361.926 L 184.926 361.735 184.926 308.664 L 184.926 255.593 141.431 255.593 L 97.936 255.593 97.936 243.207 L 97.936 230.821 141.431 230.821 L 184.926 230.821 184.926 191.167 L 184.926 151.512 198.752 151.512 L 212.578 151.512 212.578 191.167 M281.469 151.704 L 299.184 151.704 299.184 189.054 L 299.184 226.404 257.897 226.404 L 216.611 226.404 216.611 189.055 L 216.611 151.706 232.885 151.641 C 241.836 151.605,252.444 151.605,256.457 151.640 C 260.470 151.675,271.726 151.704,281.469 151.704 M127.508 163.263 C 123.818 163.984,123.341 164.034,119.876 164.061 L 116.179 164.090 116.179 167.691 L 116.179 171.291 113.682 171.291 L 111.186 171.291 111.186 191.215 L 111.186 211.138 122.948 211.138 L 134.710 211.138 134.766 212.626 L 134.822 214.114 139.606 214.114 L 144.391 214.114 144.447 212.626 L 144.503 211.138 156.265 211.138 L 168.027 211.138 168.027 191.215 L 168.027 171.291 165.530 171.291 L 163.034 171.291 163.034 167.691 L 163.034 164.090 160.490 164.159 C 157.690 164.234,155.975 164.050,151.512 163.194 C 146.106 162.158,143.420 162.253,140.714 163.578 L 139.614 164.117 138.351 163.504 C 135.657 162.196,133.248 162.142,127.508 163.263 M246.279 163.264 C 242.511 163.984,242.004 164.036,238.550 164.062 L 234.854 164.090 234.854 167.691 L 234.854 171.291 232.357 171.291 L 229.861 171.291 229.861 191.215 L 229.861 211.138 241.671 211.076 L 253.481 211.013 253.481 212.564 L 253.481 214.114 258.377 214.114 L 263.274 214.114 263.274 212.566 L 263.274 211.018 275.084 211.078 L 286.894 211.138 286.894 191.215 L 286.894 171.291 284.398 171.291 L 281.901 171.291 281.901 167.691 L 281.901 164.090 278.300 164.075 C 274.928 164.060,274.426 164.009,270.387 163.259 C 264.331 162.134,262.226 162.200,259.448 163.603 L 258.376 164.144 257.306 163.603 C 254.543 162.206,252.193 162.134,246.279 163.264 M135.971 167.469 L 136.822 167.938 136.871 185.478 C 136.917 202.136,136.903 203.012,136.583 202.887 C 134.264 201.983,131.133 202.014,127.230 202.979 C 124.562 203.639,121.622 203.737,120.643 203.200 L 120.211 202.963 120.211 185.810 L 120.211 168.656 121.892 168.550 C 122.816 168.492,124.954 168.175,126.644 167.845 C 132.415 166.721,134.465 166.638,135.971 167.469 M151.068 167.561 C 156.077 168.493,156.796 168.602,157.897 168.603 L 159.001 168.603 159.001 185.783 L 159.001 202.963 158.569 203.210 C 157.749 203.678,153.824 203.507,151.512 202.901 C 150.187 202.554,148.772 202.336,147.384 202.266 C 145.336 202.163,144.895 202.221,142.535 202.897 L 142.103 203.021 142.103 185.921 C 142.103 167.706,142.084 168.053,143.101 167.527 C 144.626 166.739,146.698 166.747,151.068 167.561 M253.332 167.103 C 253.750 167.228,254.344 167.565,254.651 167.852 L 255.209 168.373 255.209 185.697 L 255.209 203.021 254.777 202.897 C 252.382 202.211,251.990 202.161,249.832 202.273 C 248.371 202.349,247.006 202.555,245.799 202.882 C 243.656 203.463,240.528 203.705,239.341 203.382 L 238.547 203.166 238.418 196.014 C 238.348 192.081,238.316 184.325,238.348 178.781 L 238.406 168.699 240.053 168.573 C 240.958 168.504,242.817 168.223,244.183 167.947 C 249.207 166.934,251.931 166.683,253.332 167.103 M269.167 167.561 C 274.176 168.493,274.895 168.602,275.996 168.603 L 277.100 168.603 277.100 185.680 C 277.100 200.663,277.065 202.793,276.810 203.047 C 276.094 203.764,272.576 203.679,269.611 202.873 C 268.387 202.541,267.060 202.342,265.578 202.269 C 263.428 202.163,263.009 202.217,260.633 202.898 L 260.200 203.022 260.249 185.593 L 260.298 168.164 260.789 167.798 C 262.219 166.730,264.374 166.669,269.167 167.561 M180.701 310.110 L 180.701 360.211 178.445 359.537 C 152.399 351.749,134.190 342.249,122.899 330.557 C 119.776 327.324,113.693 319.764,113.684 319.107 C 113.683 319.028,118.435 318.963,124.244 318.963 L 134.806 318.963 134.806 320.403 L 134.806 321.843 139.606 321.843 L 144.407 321.843 144.407 320.403 L 144.407 318.963 156.314 318.963 L 168.221 318.963 168.172 299.040 L 168.123 279.117 165.578 279.063 L 163.034 279.009 163.034 275.511 L 163.034 272.012 159.721 271.992 C 156.700 271.974,156.035 271.903,152.157 271.179 C 145.511 269.939,143.669 269.968,140.845 271.359 L 139.564 271.989 138.673 271.490 C 136.148 270.076,133.452 269.959,127.778 271.017 C 122.538 271.995,120.986 272.168,118.435 272.063 L 116.179 271.970 116.179 275.496 L 116.179 279.021 113.682 279.021 L 111.186 279.021 111.186 296.783 C 111.186 307.720,111.117 314.546,111.006 314.546 C 110.427 314.546,106.224 305.203,104.441 299.953 C 100.821 289.293,98.165 272.627,98.129 260.346 C 98.128 260.027,100.221 260.010,139.414 260.010 L 180.701 260.010 180.701 310.110 M299.130 264.186 C 298.659 282.548,294.479 301.182,288.207 312.881 L 286.990 315.152 286.941 297.086 L 286.892 279.021 284.397 279.021 L 281.901 279.021 281.901 275.493 L 281.901 271.966 279.711 272.063 C 277.159 272.175,275.112 271.949,270.187 271.010 C 264.644 269.952,261.999 270.073,259.335 271.504 L 258.373 272.021 257.607 271.583 C 255.002 270.091,252.249 269.948,246.567 271.008 C 241.139 272.020,239.899 272.164,237.347 272.073 C 234.599 271.975,234.854 271.598,234.854 275.772 L 234.854 279.021 232.357 279.021 L 229.861 279.021 229.861 298.992 L 229.861 318.963 241.671 318.963 L 253.481 318.963 253.481 320.403 L 253.481 321.843 258.377 321.843 L 263.274 321.843 263.274 320.403 L 263.274 318.963 273.932 318.963 C 279.794 318.963,284.590 318.988,284.590 319.018 C 284.590 319.190,281.565 323.253,280.177 324.946 C 268.067 339.716,250.974 349.637,222.180 358.610 C 219.909 359.317,217.900 359.933,217.715 359.977 C 217.530 360.021,217.206 360.107,216.995 360.167 C 216.611 360.275,216.611 360.184,216.611 310.143 L 216.611 260.010 257.924 260.010 L 299.237 260.010 299.130 264.186 M135.525 275.091 C 137.056 275.731,136.918 273.913,136.918 293.444 L 136.918 310.881 136.115 310.598 C 133.769 309.770,131.083 309.844,127.410 310.837 C 125.266 311.417,121.743 311.576,120.739 311.138 L 120.211 310.907 120.211 293.743 L 120.211 276.579 121.795 276.451 C 122.667 276.380,124.978 276.026,126.932 275.663 C 131.582 274.800,131.200 274.852,133.131 274.822 C 134.267 274.805,135.049 274.892,135.525 275.091 M152.221 275.631 C 154.143 276.005,156.454 276.370,157.358 276.444 L 159.001 276.577 159.001 293.714 L 159.001 310.851 158.377 311.114 C 157.184 311.618,154.230 311.452,151.320 310.719 C 148.080 309.902,145.417 309.816,143.545 310.468 C 142.912 310.689,142.350 310.825,142.297 310.772 C 141.995 310.470,142.093 276.472,142.397 276.008 C 143.337 274.573,146.209 274.463,152.221 275.631 M254.188 275.000 C 254.485 275.113,254.966 275.431,255.257 275.708 L 255.785 276.212 255.785 293.575 C 255.785 310.037,255.767 310.932,255.449 310.799 C 253.063 309.808,250.299 309.784,246.567 310.724 C 243.702 311.446,240.395 311.637,239.510 311.131 L 239.078 310.884 239.078 293.732 L 239.078 276.579 240.619 276.451 C 241.467 276.380,243.735 276.027,245.660 275.665 C 247.585 275.304,249.376 274.972,249.640 274.928 C 250.660 274.758,253.674 274.806,254.188 275.000 M271.030 275.641 C 273.025 276.019,275.336 276.384,276.167 276.454 L 277.676 276.579 277.676 293.743 L 277.676 310.907 277.148 311.137 C 276.064 311.609,272.815 311.413,270.091 310.712 C 266.482 309.782,263.687 309.810,261.306 310.799 C 260.728 311.039,260.792 276.318,261.370 275.740 C 262.551 274.559,265.174 274.532,271.030 275.641 M173.014 391.063 C 156.208 393.806,144.680 406.602,143.468 423.860 C 141.729 448.634,161.717 465.536,185.987 459.813 C 215.603 452.830,220.858 408.328,193.714 394.372 C 187.898 391.383,179.391 390.023,173.014 391.063 M0.576 393.617 L 0.576 394.936 2.842 395.149 C 7.108 395.550,8.223 396.466,8.982 400.192 C 9.349 401.992,9.573 444.810,9.238 449.066 C 8.774 454.962,7.519 456.205,1.488 456.741 L -0.000 456.874 -0.000 458.202 L 0.000 459.530 12.722 459.528 C 29.205 459.525,32.547 459.284,38.025 457.700 C 48.753 454.599,54.706 445.879,52.706 436.195 C 51.280 429.294,45.662 424.306,37.350 422.563 C 36.505 422.386,35.727 422.220,35.622 422.194 C 35.516 422.168,35.905 421.989,36.486 421.796 C 44.193 419.236,48.685 413.811,48.652 407.105 C 48.624 401.318,46.282 397.272,41.575 394.880 C 36.815 392.461,36.774 392.457,16.947 392.370 L 0.576 392.299 0.576 393.617 M70.859 393.613 L 70.859 394.930 73.212 395.153 C 77.356 395.545,78.742 396.451,79.435 399.219 C 80.184 402.209,80.332 447.479,79.606 451.464 C 78.928 455.190,77.353 456.304,72.156 456.736 L 70.475 456.876 70.475 458.203 L 70.475 459.530 84.301 459.530 L 98.128 459.530 98.128 458.208 L 98.128 456.886 96.639 456.753 C 89.180 456.087,88.910 455.491,88.910 439.640 L 88.910 429.957 92.134 429.957 C 97.544 429.957,98.680 430.506,100.957 434.223 C 102.474 436.699,104.047 439.333,104.616 440.349 C 104.830 440.731,105.370 441.638,105.815 442.365 C 106.260 443.092,106.796 443.989,107.005 444.359 C 111.172 451.719,114.932 456.144,118.553 457.947 C 122.398 459.862,132.117 461.219,132.117 459.842 C 132.117 459.591,132.169 459.125,132.233 458.808 C 132.346 458.239,132.328 458.223,131.033 457.799 C 126.431 456.293,119.412 447.935,110.850 433.766 C 107.870 428.833,107.100 427.542,107.024 427.346 C 106.979 427.230,107.443 426.908,108.056 426.631 C 116.052 423.012,120.300 416.938,120.300 409.121 C 120.300 399.980,114.906 394.308,104.751 392.769 C 102.947 392.496,100.330 392.438,86.750 392.373 L 70.859 392.297 70.859 393.613 M217.994 393.614 L 218.051 394.909 219.801 395.124 C 224.735 395.729,225.839 397.236,229.356 408.161 C 230.274 411.013,231.539 414.945,232.168 416.899 C 232.796 418.853,234.870 425.290,236.776 431.205 C 238.682 437.120,240.754 443.557,241.381 445.511 C 242.008 447.465,243.321 451.548,244.300 454.585 L 246.080 460.106 247.624 460.106 L 249.168 460.106 257.031 436.630 C 261.356 423.718,265.113 412.485,265.380 411.666 C 265.999 409.774,265.941 409.740,267.005 412.626 C 267.501 413.973,268.370 416.327,268.936 417.859 C 269.501 419.390,270.537 422.199,271.237 424.100 C 271.938 426.001,272.953 428.723,273.494 430.149 C 274.035 431.575,274.583 433.087,274.710 433.509 C 274.838 433.932,275.417 435.530,275.997 437.062 C 276.577 438.593,277.586 441.315,278.240 443.111 C 278.893 444.906,279.896 447.628,280.468 449.160 C 281.767 452.640,284.116 459.097,284.292 459.674 C 284.414 460.074,284.535 460.106,285.931 460.106 L 287.439 460.106 287.816 458.905 C 288.024 458.245,288.777 455.804,289.490 453.481 C 290.203 451.157,291.282 447.657,291.887 445.703 C 292.493 443.749,293.613 440.120,294.376 437.638 C 295.139 435.156,296.135 431.959,296.588 430.533 C 297.041 429.107,297.993 426.083,298.704 423.812 C 307.297 396.351,307.547 395.870,313.630 395.157 L 315.506 394.937 315.506 393.628 L 315.506 392.319 304.465 392.319 L 293.423 392.319 293.423 393.643 L 293.423 394.968 294.815 395.096 C 300.786 395.645,301.456 396.529,300.234 402.241 C 298.956 408.211,293.338 428.328,289.569 440.429 C 288.943 442.440,288.430 444.190,288.430 444.318 C 288.430 445.071,287.980 444.224,287.099 441.815 C 285.761 438.156,284.111 433.625,282.711 429.765 C 282.080 428.022,281.107 425.343,280.550 423.812 C 279.604 421.211,279.099 419.804,277.005 413.922 C 276.553 412.655,275.883 410.797,275.515 409.794 C 275.147 408.790,274.330 406.543,273.698 404.801 C 273.067 403.058,272.140 400.509,271.640 399.136 C 271.139 397.763,270.469 395.880,270.151 394.951 L 269.571 393.263 268.214 393.319 L 266.857 393.375 266.242 395.295 C 265.904 396.351,264.569 400.542,263.277 404.609 C 261.984 408.675,260.412 413.601,259.785 415.554 C 259.157 417.508,258.483 419.626,258.286 420.259 C 258.090 420.893,257.060 424.133,255.996 427.460 C 254.933 430.787,253.540 435.151,252.900 437.158 C 250.155 445.769,250.427 445.225,249.842 443.258 C 249.598 442.438,248.897 440.211,248.283 438.310 C 247.669 436.409,246.999 434.292,246.793 433.605 C 246.587 432.919,245.248 428.685,243.817 424.196 C 242.386 419.707,240.984 415.300,240.702 414.402 C 240.420 413.505,239.692 411.215,239.086 409.313 C 234.640 395.383,234.569 395.731,242.007 395.101 L 243.495 394.974 243.495 393.647 L 243.495 392.319 230.716 392.319 L 217.937 392.319 217.994 393.614 M327.604 393.621 L 327.604 394.924 329.672 395.144 C 335.091 395.719,337.819 398.330,338.379 403.475 C 338.646 405.936,338.483 442.983,338.189 446.567 C 337.512 454.808,336.440 456.200,330.333 456.768 L 328.949 456.896 328.949 458.213 L 328.949 459.530 341.335 459.530 L 353.721 459.530 353.721 458.210 L 353.721 456.891 352.136 456.755 C 348.894 456.477,346.378 455.685,345.205 454.574 C 343.242 452.714,343.112 450.999,343.025 425.732 L 342.958 406.049 343.490 406.698 C 343.783 407.054,344.887 408.385,345.943 409.654 C 347.000 410.924,348.123 412.290,348.440 412.690 C 348.757 413.091,350.355 415.033,351.992 417.006 C 353.629 418.979,355.271 420.966,355.641 421.421 C 356.656 422.671,357.735 423.972,358.818 425.252 C 359.355 425.886,359.961 426.633,360.166 426.912 C 360.370 427.192,362.309 429.551,364.474 432.154 C 366.639 434.758,368.670 437.219,368.987 437.623 C 369.304 438.027,371.341 440.509,373.513 443.139 C 375.685 445.770,377.601 448.092,377.770 448.301 C 377.940 448.509,378.625 449.338,379.294 450.143 C 381.333 452.599,383.695 455.479,385.604 457.839 L 387.422 460.085 388.910 460.095 L 390.398 460.106 390.403 437.206 C 390.409 406.602,390.682 400.218,392.085 397.817 C 392.932 396.368,395.433 395.272,398.365 395.066 L 400.000 394.950 400.000 393.634 L 400.000 392.319 387.614 392.319 L 375.228 392.319 375.228 393.663 L 375.228 395.007 376.145 395.007 C 380.141 395.007,383.659 396.354,384.629 398.256 C 385.720 400.394,386.152 410.039,386.166 432.599 C 386.175 445.152,386.230 444.631,385.060 442.943 C 384.831 442.613,384.405 442.084,384.112 441.767 C 383.819 441.450,383.192 440.715,382.719 440.134 C 382.246 439.554,381.807 439.035,381.743 438.982 C 381.680 438.929,381.204 438.359,380.685 437.715 C 380.166 437.070,378.445 435.006,376.860 433.127 C 375.276 431.249,373.677 429.344,373.308 428.894 C 371.812 427.074,370.720 425.765,366.587 420.834 C 364.210 417.999,361.964 415.312,361.594 414.862 C 361.224 414.413,360.576 413.632,360.154 413.127 C 359.731 412.623,357.331 409.743,354.820 406.729 C 350.104 401.069,348.606 399.275,347.288 397.714 C 346.865 397.214,345.672 395.795,344.637 394.561 L 342.754 392.319 335.179 392.319 L 327.604 392.319 327.604 393.621 M179.645 394.715 C 192.098 396.753,199.824 407.592,201.067 424.772 C 202.257 441.221,196.069 453.235,184.711 456.526 C 171.242 460.429,158.433 451.080,154.774 434.676 C 149.432 410.724,161.267 391.709,179.645 394.715 M28.767 395.794 C 36.436 397.149,40.491 403.131,39.108 411.047 C 37.796 418.556,33.485 421.293,22.804 421.398 L 18.243 421.443 18.246 409.329 C 18.249 395.915,18.200 396.433,19.496 396.002 C 21.247 395.419,26.041 395.312,28.767 395.794 M98.761 395.784 C 108.560 397.617,113.430 407.219,109.698 417.349 C 107.090 424.428,102.152 427.033,91.711 426.840 L 88.910 426.788 88.910 411.963 C 88.910 395.786,88.872 396.329,90.038 395.944 C 91.631 395.418,96.344 395.331,98.761 395.784 M28.709 425.067 C 38.310 426.407,43.694 433.447,42.654 443.303 C 41.749 451.872,34.462 456.985,24.678 455.917 C 18.417 455.233,18.246 454.733,18.244 437.021 L 18.243 424.785 20.211 424.725 C 23.205 424.634,26.576 424.770,28.709 425.067 " stroke="none" fill="#040404" fill-rule="evenodd"></path><path id="path1" d="M138.262 109.096 C 132.366 109.769,127.032 111.505,127.973 112.446 C 128.136 112.609,129.090 114.358,130.093 116.333 C 134.081 124.188,135.677 125.946,139.606 126.814 C 147.999 128.668,158.338 128.256,163.027 125.880 C 164.256 125.257,164.318 124.993,163.540 123.696 C 163.182 123.099,162.355 121.556,161.702 120.265 C 158.985 114.902,157.048 112.794,153.178 110.992 C 149.469 109.266,143.463 108.502,138.262 109.096 M273.034 109.558 C 269.292 110.069,264.042 111.608,264.042 112.195 C 264.042 112.299,264.333 112.870,264.689 113.465 C 265.045 114.060,265.957 115.814,266.715 117.364 C 269.347 122.741,271.936 126.002,274.080 126.644 C 285.819 130.158,298.774 127.778,298.796 122.104 C 298.828 113.682,286.570 107.712,273.034 109.558 M206.817 109.850 C 202.265 110.286,196.063 111.947,196.063 112.730 C 196.063 112.835,196.266 113.244,196.514 113.638 C 196.763 114.032,197.722 115.853,198.647 117.684 C 201.764 123.858,203.819 126.385,206.375 127.187 C 213.037 129.277,224.281 129.242,230.112 127.114 C 232.617 126.200,232.743 125.954,231.618 124.169 C 231.212 123.524,230.264 121.786,229.512 120.307 C 225.258 111.943,218.322 108.747,206.817 109.850 M184.926 191.263 L 184.926 231.013 141.431 231.013 L 97.936 231.013 97.936 243.303 L 97.936 255.593 141.431 255.593 L 184.926 255.593 184.926 308.668 L 184.926 361.743 185.646 361.874 C 186.042 361.945,189.005 362.689,192.230 363.527 C 199.271 365.356,198.294 365.335,204.308 363.783 C 207.008 363.086,209.952 362.330,210.850 362.103 L 212.482 361.690 212.530 308.641 L 212.579 255.593 255.977 255.593 L 299.376 255.593 299.376 243.255 L 299.376 230.917 255.977 230.971 L 212.578 231.025 212.578 191.269 L 212.578 151.512 198.752 151.512 L 184.926 151.512 184.926 191.263 " stroke="none" fill="#cb0404" fill-rule="evenodd"></path><path id="path2" d="M183.005 9.350 C 175.777 10.117,169.847 14.809,166.912 22.083 C 165.717 25.044,165.323 25.186,161.750 23.943 C 150.311 19.964,141.851 21.998,137.935 29.669 C 136.812 31.869,136.562 32.679,136.345 34.832 C 136.135 36.923,136.041 36.991,132.034 37.990 C 124.711 39.816,122.453 41.708,120.823 47.378 C 120.143 49.744,119.895 49.945,117.213 50.294 C 106.950 51.630,101.191 56.751,102.839 63.075 C 104.389 69.026,110.591 71.599,115.987 68.531 C 118.247 67.245,117.951 67.297,119.799 67.859 C 126.559 69.912,134.676 68.338,138.822 64.170 C 141.599 61.379,142.361 59.199,142.379 53.992 L 142.391 50.663 142.954 50.179 C 143.578 49.642,143.936 49.645,146.327 50.204 C 152.755 51.708,159.570 49.400,162.873 44.602 C 163.828 43.214,164.267 43.137,166.824 43.904 C 172.828 45.706,180.131 43.144,186.654 36.949 C 189.023 34.698,189.288 34.679,191.935 36.574 C 200.607 42.783,208.712 42.934,218.134 37.063 C 220.096 35.841,220.927 36.230,221.519 38.646 C 223.429 46.446,229.848 50.474,239.654 50.027 C 244.467 49.807,244.215 49.793,244.749 50.326 C 245.030 50.607,245.375 51.348,245.596 52.141 C 246.392 55.005,248.019 57.733,250.387 60.170 C 256.308 66.266,263.422 67.644,271.391 64.240 C 273.828 63.199,273.882 63.196,275.521 64.016 C 286.961 69.741,297.512 66.162,297.524 56.553 C 297.531 50.923,293.534 47.499,285.855 46.555 C 284.560 46.395,283.935 45.747,283.635 44.251 C 282.047 36.347,273.117 32.779,261.873 35.557 C 258.362 36.424,257.969 36.195,257.221 32.837 C 255.670 25.876,249.680 23.265,240.711 25.642 C 236.212 26.834,236.197 26.830,234.543 23.872 C 227.219 10.771,213.609 6.386,201.608 13.261 C 199.413 14.518,199.084 14.509,197.014 13.127 C 192.670 10.228,187.604 8.862,183.005 9.350 M188.811 13.621 C 192.177 14.482,195.487 16.744,195.487 18.183 C 195.487 20.369,194.346 21.125,192.638 20.071 C 186.733 16.426,181.025 17.309,175.342 22.748 C 173.281 24.720,173.142 24.787,172.370 24.179 C 170.521 22.725,171.135 20.684,174.232 17.988 C 178.811 14.000,184.100 12.416,188.811 13.621 M216.707 15.069 C 222.236 15.968,226.915 19.036,230.130 23.870 C 231.715 26.253,231.783 26.964,230.544 28.152 C 229.376 29.270,229.213 29.216,227.891 27.267 C 221.687 18.119,209.947 16.079,203.221 22.979 C 201.629 24.612,201.285 24.611,200.490 22.967 C 198.342 18.531,208.268 13.697,216.707 15.069 M157.300 25.842 C 159.729 26.298,160.128 26.731,159.734 28.484 C 159.375 30.081,158.760 30.376,157.030 29.780 C 150.692 27.599,145.235 30.631,142.647 37.771 C 141.948 39.699,141.725 39.891,140.572 39.560 C 139.188 39.163,138.837 38.306,139.307 36.470 C 141.354 28.480,148.590 24.206,157.300 25.842 M248.059 28.518 C 251.184 29.255,253.228 31.118,254.244 34.157 C 255.304 37.331,252.779 38.699,251.288 35.758 C 249.361 31.955,246.617 30.971,241.702 32.319 C 239.443 32.938,239.558 32.933,239.078 32.453 C 238.638 32.013,238.553 30.669,238.914 29.876 C 239.479 28.636,245.052 27.809,248.059 28.518 M271.606 38.977 C 277.172 40.400,282.138 46.639,279.860 49.346 C 278.864 50.531,278.321 50.249,276.545 47.624 C 273.467 43.074,268.712 41.620,262.986 43.477 L 261.450 43.976 260.922 43.396 C 258.199 40.408,265.459 37.405,271.606 38.977 M135.316 41.157 C 136.033 41.874,135.246 44.304,134.247 44.462 C 130.420 45.064,128.099 46.813,126.929 49.976 C 126.459 51.247,126.041 51.467,124.958 51.014 C 121.865 49.722,124.786 43.912,129.571 41.838 C 131.392 41.049,134.804 40.645,135.316 41.157 M195.229 45.453 C 193.905 51.338,193.309 60.080,193.971 63.882 L 194.182 65.098 198.365 65.098 L 202.547 65.098 202.681 63.121 C 202.940 59.321,201.879 51.026,200.671 47.401 L 200.073 45.607 198.020 44.939 C 196.891 44.572,195.867 44.243,195.745 44.208 C 195.611 44.171,195.406 44.664,195.229 45.453 M220.042 50.264 C 215.522 54.883,212.141 60.616,210.965 65.653 L 210.688 66.842 212.065 67.447 C 212.823 67.780,214.522 68.600,215.843 69.270 L 218.243 70.487 219.168 69.473 C 220.356 68.172,221.700 65.452,222.184 63.370 C 223.634 57.134,223.684 56.971,224.926 54.520 L 226.150 52.103 225.269 51.607 C 224.784 51.335,223.762 50.586,222.997 49.944 C 221.329 48.543,221.774 48.495,220.042 50.264 M168.207 50.389 C 169.432 52.389,169.730 53.065,171.511 57.855 C 174.236 65.190,175.396 67.789,176.896 69.928 C 177.849 71.286,177.644 71.280,179.799 70.015 C 180.771 69.444,182.386 68.613,183.389 68.167 C 184.393 67.721,185.277 67.298,185.355 67.228 C 185.913 66.725,178.958 57.231,173.718 51.340 C 171.978 49.385,172.306 49.525,168.844 49.263 L 167.453 49.157 168.207 50.389 M288.769 50.859 C 292.215 51.932,294.244 54.653,294.234 58.185 C 294.226 60.599,293.678 61.450,292.131 61.450 C 291.018 61.450,290.789 61.071,290.702 59.083 C 290.551 55.626,289.342 54.451,285.660 54.182 C 283.338 54.012,282.539 52.951,283.450 51.249 C 283.890 50.426,286.713 50.219,288.769 50.859 M119.757 53.341 C 120.327 53.802,120.595 54.395,120.595 55.189 C 120.595 56.096,120.356 56.190,117.715 56.325 C 112.624 56.585,109.293 58.954,108.218 63.079 C 107.786 64.739,107.177 65.003,106.021 64.030 C 103.619 62.008,106.216 56.699,110.660 54.548 C 113.611 53.120,118.657 52.450,119.757 53.341 M241.993 64.126 C 240.084 65.387,236.249 67.732,233.471 69.337 C 228.477 72.223,226.812 73.260,225.381 74.375 L 224.646 74.948 225.978 76.312 C 227.682 78.058,229.070 79.761,229.887 81.111 C 230.243 81.699,230.674 82.181,230.848 82.184 C 231.736 82.199,235.979 78.265,239.651 74.020 C 243.133 69.996,244.178 69.111,248.197 66.784 C 249.251 66.174,250.015 65.675,249.893 65.675 C 249.772 65.675,248.767 64.810,247.661 63.754 C 246.555 62.698,245.608 61.834,245.557 61.834 C 245.506 61.834,243.902 62.865,241.993 64.126 M145.175 62.484 C 145.175 62.631,144.662 63.753,144.036 64.978 L 142.896 67.206 144.351 68.792 C 150.464 75.458,158.417 80.865,165.196 82.965 L 166.302 83.307 167.183 81.946 C 167.667 81.197,168.768 79.729,169.629 78.683 C 170.491 77.637,171.368 76.567,171.578 76.305 L 171.961 75.828 171.482 75.452 C 169.585 73.959,165.277 71.644,161.650 70.168 C 153.359 66.793,150.865 65.613,147.635 63.537 C 145.515 62.175,145.175 62.030,145.175 62.484 M196.148 68.769 C 177.405 70.076,162.451 87.563,164.632 105.623 C 164.861 107.513,164.757 107.459,167.285 106.989 C 177.046 105.174,187.049 106.099,192.406 109.313 L 193.645 110.057 195.670 109.098 C 204.640 104.853,218.043 105.109,225.519 109.668 C 226.345 110.172,226.542 110.145,228.968 109.195 C 230.145 108.735,231.455 108.234,231.877 108.084 L 232.645 107.810 232.800 106.281 C 234.727 87.301,220.228 69.828,201.728 68.837 C 200.672 68.780,199.462 68.709,199.040 68.677 C 198.617 68.646,197.316 68.687,196.148 68.769 M282.477 84.304 C 279.678 84.391,276.351 84.600,275.084 84.768 C 270.590 85.363,264.959 85.501,255.321 85.251 C 245.605 84.998,244.030 85.042,241.109 85.643 C 237.443 86.397,233.994 87.630,234.158 88.127 C 235.304 91.586,236.186 95.062,236.194 96.147 C 236.199 96.942,236.716 96.878,239.930 95.683 C 242.949 94.561,244.487 94.287,247.785 94.287 C 259.265 94.286,272.234 92.695,278.541 90.515 C 286.649 87.711,290.335 86.651,296.170 85.444 C 297.312 85.208,298.176 84.946,298.091 84.861 C 297.497 84.273,290.946 84.039,282.477 84.304 M191.067 85.774 C 195.342 86.475,195.696 86.771,195.315 89.329 C 194.989 91.526,195.018 91.495,193.616 91.131 C 191.910 90.689,191.263 90.725,191.261 91.263 C 191.255 92.598,189.852 94.351,188.401 94.837 C 185.920 95.667,183.215 93.706,183.202 91.066 C 183.194 89.645,181.538 89.469,179.034 90.624 C 175.530 92.239,176.234 89.988,180.020 87.471 C 183.353 85.256,185.708 84.894,191.067 85.774 M114.450 86.028 C 113.341 86.116,111.786 86.203,110.994 86.220 C 104.603 86.356,103.997 86.562,108.148 87.188 C 109.768 87.432,111.525 87.852,112.939 88.334 C 120.424 90.885,126.843 91.988,134.710 92.076 C 140.914 92.145,142.904 92.535,150.360 95.139 C 153.391 96.198,157.458 97.273,159.097 97.449 C 159.731 97.516,160.429 97.608,160.648 97.653 C 161.014 97.727,161.064 97.598,161.271 96.059 C 161.394 95.137,161.716 93.477,161.985 92.369 L 162.474 90.354 161.842 89.829 C 158.456 87.020,156.547 86.754,142.103 87.078 C 134.816 87.241,131.735 87.106,126.548 86.396 C 123.377 85.961,117.516 85.783,114.450 86.028 M214.372 86.491 C 217.115 87.311,218.625 88.283,219.894 90.046 C 221.207 91.868,220.755 92.682,219.053 91.561 C 217.669 90.650,216.579 90.254,215.455 90.254 L 214.498 90.254 214.498 91.184 C 214.498 95.788,207.849 96.440,206.621 91.957 C 206.363 91.012,205.951 90.959,202.789 91.458 C 202.178 91.554,201.709 88.115,202.207 87.185 C 202.929 85.835,210.696 85.391,214.372 86.491 M203.002 99.289 C 203.280 100.217,202.965 102.720,202.477 103.466 C 201.482 104.984,196.689 105.448,194.479 104.239 C 193.195 103.537,191.717 99.473,192.912 99.932 C 194.406 100.505,198.579 100.562,201.002 100.042 C 201.933 99.842,202.013 99.780,202.128 99.169 C 202.294 98.281,202.717 98.339,203.002 99.289 M108.496 109.349 C 103.407 110.082,100.274 111.874,98.910 114.833 C 96.113 120.900,100.109 127.283,107.267 128.182 C 109.590 128.473,113.316 127.003,113.296 125.802 C 113.285 125.173,108.904 120.459,108.183 120.301 C 106.178 119.860,105.569 118.611,106.727 117.315 C 108.212 115.653,109.844 116.503,114.834 121.536 C 120.820 127.573,123.447 128.800,127.996 127.685 C 130.688 127.025,131.390 126.298,130.515 125.075 C 130.151 124.565,129.225 123.024,128.459 121.651 C 122.682 111.304,117.424 108.063,108.496 109.349 M174.748 109.579 C 171.529 109.805,166.310 110.841,163.182 111.876 L 161.698 112.367 162.623 113.745 C 163.132 114.502,164.570 116.807,165.819 118.867 C 170.772 127.038,172.000 128.149,176.068 128.137 C 178.372 128.131,180.887 127.238,180.892 126.424 C 180.895 125.802,176.826 121.058,175.360 119.975 C 173.747 118.783,173.429 117.600,174.497 116.760 C 176.050 115.538,177.955 116.722,181.717 121.245 C 186.385 126.858,187.388 127.724,189.822 128.243 C 194.451 129.230,199.557 127.770,198.304 125.818 C 198.121 125.533,197.142 123.659,196.129 121.654 C 193.428 116.306,191.981 114.380,189.349 112.630 C 186.028 110.423,180.175 109.200,174.748 109.579 M242.343 109.777 C 239.159 110.088,235.500 110.829,232.477 111.774 L 230.608 112.358 231.991 114.988 C 237.361 125.205,239.294 127.405,243.540 128.132 C 245.492 128.466,248.155 127.834,248.747 126.895 C 249.121 126.302,245.841 122.045,244.032 120.776 C 241.942 119.309,241.812 117.400,243.779 117.031 C 245.386 116.729,246.512 117.624,250.228 122.155 C 255.023 127.999,255.804 128.462,260.874 128.463 C 263.987 128.464,265.734 127.973,266.407 126.907 C 266.642 126.533,263.345 119.697,261.829 117.414 C 258.123 111.834,250.771 108.952,242.343 109.777 M98.320 189.054 L 98.320 226.404 139.510 226.404 L 180.701 226.404 180.701 189.054 L 180.701 151.704 139.510 151.704 L 98.320 151.704 98.320 189.054 M216.803 189.054 L 216.803 226.404 257.993 226.404 L 299.184 226.404 299.184 189.054 L 299.184 151.704 257.993 151.704 L 216.803 151.704 216.803 189.054 M136.630 162.774 C 137.264 162.935,138.193 163.289,138.694 163.561 L 139.606 164.055 140.518 163.561 C 143.139 162.140,145.639 162.071,152.184 163.237 C 156.337 163.976,157.111 164.059,160.010 164.074 L 163.226 164.090 163.226 167.595 L 163.226 171.099 165.723 171.099 L 168.219 171.099 168.219 191.167 L 168.219 211.234 156.409 211.234 L 144.599 211.234 144.599 212.674 L 144.599 214.114 139.606 214.114 L 134.614 214.114 134.614 212.674 L 134.614 211.234 122.804 211.234 L 110.994 211.234 110.994 191.167 L 110.994 171.099 113.586 171.099 L 116.179 171.099 116.179 167.563 L 116.179 164.026 118.339 164.131 C 120.734 164.248,122.117 164.100,127.700 163.129 C 133.156 162.180,134.134 162.141,136.630 162.774 M254.293 162.544 C 255.110 162.690,256.373 163.083,257.100 163.418 L 258.421 164.027 259.410 163.526 C 262.165 162.130,264.410 162.074,270.955 163.237 C 275.196 163.991,275.968 164.074,278.781 164.082 L 281.901 164.090 281.901 167.595 L 281.901 171.099 284.398 171.099 L 286.894 171.099 286.894 191.167 L 286.894 211.234 275.084 211.234 L 263.274 211.234 263.274 212.674 L 263.274 214.114 258.377 214.114 L 253.481 214.114 253.481 212.674 L 253.481 211.234 241.574 211.234 L 229.667 211.234 229.716 191.215 L 229.765 171.195 232.309 171.142 L 234.854 171.088 234.854 167.589 L 234.854 164.090 238.070 164.080 C 240.960 164.070,241.745 163.988,245.799 163.273 C 252.231 162.139,252.090 162.151,254.293 162.544 M130.934 167.156 C 129.914 167.302,127.793 167.685,126.221 168.009 C 124.648 168.333,122.696 168.620,121.883 168.648 L 120.404 168.699 120.404 185.842 L 120.403 202.986 120.931 203.213 C 122.011 203.677,124.906 203.503,127.700 202.807 C 130.927 202.003,133.966 201.902,135.814 202.537 L 136.918 202.917 136.918 185.598 C 136.918 169.343,136.897 168.260,136.582 167.984 C 135.427 166.971,133.853 166.741,130.934 167.156 M144.323 167.090 C 143.908 167.188,143.281 167.486,142.931 167.753 L 142.295 168.238 142.295 185.598 L 142.295 202.957 142.925 202.694 C 144.908 201.865,148.261 201.943,151.907 202.903 C 154.127 203.487,157.297 203.642,158.281 203.215 L 158.809 202.986 158.809 185.842 L 158.808 168.699 157.417 168.653 C 156.651 168.628,154.470 168.307,152.568 167.941 C 147.271 166.921,145.727 166.761,144.323 167.090 M249.064 167.170 C 248.060 167.311,245.913 167.693,244.293 168.021 C 242.672 168.348,240.706 168.634,239.925 168.657 L 238.504 168.699 238.503 185.842 L 238.502 202.986 239.030 203.214 C 240.089 203.672,242.999 203.494,245.799 202.798 C 249.022 201.998,252.061 201.900,253.913 202.537 L 255.017 202.917 255.017 185.601 L 255.017 168.286 254.560 167.856 C 253.561 166.918,252.133 166.740,249.064 167.170 M262.229 167.161 C 261.813 167.310,261.251 167.596,260.981 167.798 L 260.490 168.164 260.441 185.561 L 260.392 202.958 261.023 202.694 C 262.969 201.881,266.404 201.957,269.995 202.894 C 272.236 203.479,275.411 203.639,276.380 203.216 L 276.908 202.986 276.908 185.842 L 276.907 168.699 275.472 168.650 C 274.682 168.623,272.760 168.341,271.200 168.023 C 265.988 166.962,263.469 166.720,262.229 167.161 M98.320 261.501 C 98.320 278.294,102.437 297.381,108.851 310.322 L 110.898 314.450 110.947 296.735 L 110.996 279.021 113.587 279.021 L 116.179 279.021 116.179 275.368 L 116.179 271.716 116.707 271.863 C 118.110 272.252,122.000 271.957,127.178 271.069 C 133.968 269.905,135.725 269.946,138.502 271.333 L 139.606 271.885 140.711 271.333 C 143.435 269.972,145.543 269.898,151.486 270.957 C 157.743 272.072,160.264 272.260,162.698 271.794 L 163.226 271.693 163.226 275.357 L 163.226 279.021 165.723 279.021 L 168.219 279.021 168.219 299.088 L 168.219 319.155 156.409 319.155 L 144.599 319.155 144.599 320.595 L 144.599 322.036 139.606 322.036 L 134.614 322.036 134.614 320.595 L 134.614 319.155 124.244 319.155 C 118.541 319.155,113.874 319.197,113.874 319.249 C 113.874 319.450,116.357 322.824,118.186 325.108 C 130.138 340.039,147.822 350.108,178.523 359.463 C 179.595 359.790,180.524 360.058,180.587 360.058 C 180.650 360.058,180.701 337.547,180.701 310.034 L 180.701 260.010 139.510 260.010 L 98.320 260.010 98.320 261.501 M216.803 310.034 C 216.803 338.197,216.876 360.058,216.969 360.058 C 217.593 360.058,227.431 356.921,232.645 355.061 C 257.563 346.168,272.924 335.613,283.988 319.779 L 284.424 319.155 273.849 319.155 L 263.274 319.155 263.274 320.595 L 263.274 322.036 258.377 322.036 L 253.481 322.036 253.481 320.597 L 253.481 319.158 241.623 319.109 L 229.765 319.059 229.716 299.040 L 229.667 279.021 232.260 279.021 L 234.854 279.021 234.854 275.370 L 234.854 271.719 235.670 271.865 C 237.828 272.252,240.831 271.985,247.223 270.839 C 252.395 269.911,254.771 270.046,257.486 271.422 L 258.456 271.913 259.102 271.532 C 261.599 270.059,264.210 269.882,269.515 270.828 C 276.090 272.000,279.193 272.274,281.181 271.857 L 281.901 271.706 281.901 275.363 L 281.901 279.021 284.397 279.021 L 286.892 279.021 286.941 296.928 L 286.990 314.834 287.786 313.490 C 293.993 303.011,298.390 283.602,299.119 263.461 L 299.244 260.010 258.024 260.010 L 216.803 260.010 216.803 310.034 M130.869 275.009 C 130.235 275.100,128.190 275.479,126.325 275.850 C 124.460 276.221,122.364 276.524,121.668 276.524 L 120.403 276.524 120.403 293.696 L 120.403 310.868 121.123 311.109 C 122.356 311.521,124.678 311.375,127.508 310.707 C 131.450 309.776,133.775 309.752,136.486 310.613 L 136.918 310.751 136.918 293.479 L 136.918 276.207 136.483 275.799 C 135.458 274.836,133.744 274.594,130.869 275.009 M143.832 275.102 C 143.463 275.262,142.967 275.576,142.728 275.800 L 142.295 276.207 142.295 293.557 L 142.295 310.908 142.840 310.626 C 144.555 309.739,147.744 309.771,151.729 310.717 C 154.548 311.386,156.877 311.532,158.089 311.115 L 158.809 310.868 158.809 293.696 L 158.809 276.524 157.527 276.524 C 156.822 276.524,154.983 276.266,153.440 275.950 C 147.747 274.784,145.104 274.550,143.832 275.102 M249.736 274.996 C 249.102 275.079,247.011 275.456,245.089 275.835 C 243.167 276.214,241.029 276.524,240.337 276.524 L 239.078 276.524 239.078 293.696 L 239.078 310.868 239.789 311.102 C 241.056 311.521,243.369 311.373,246.183 310.693 C 249.509 309.890,252.877 309.789,254.681 310.440 L 255.785 310.838 255.785 293.570 L 255.785 276.303 255.242 275.759 C 254.324 274.841,252.667 274.612,249.736 274.996 M262.632 275.076 C 262.226 275.221,261.686 275.535,261.432 275.773 L 260.970 276.207 260.970 293.534 L 260.970 310.861 261.939 310.492 C 264.010 309.706,266.692 309.798,271.051 310.807 C 273.669 311.412,274.879 311.511,276.236 311.231 L 277.388 310.994 277.437 293.787 L 277.486 276.581 275.709 276.462 C 274.732 276.397,272.895 276.122,271.627 275.850 C 266.890 274.834,264.007 274.586,262.632 275.076 " stroke="none" fill="#fbfbfb" fill-rule="evenodd"></path><path id="path3" d="M229.669 17.379 C 230.027 17.748,230.363 18.051,230.416 18.051 C 230.469 18.051,230.219 17.748,229.861 17.379 C 229.502 17.009,229.166 16.707,229.113 16.707 C 229.061 16.707,229.310 17.009,229.669 17.379 M213.010 18.957 C 213.301 19.001,213.776 19.001,214.066 18.957 C 214.357 18.913,214.119 18.877,213.538 18.877 C 212.957 18.877,212.720 18.913,213.010 18.957 M227.268 20.547 C 227.789 21.075,228.257 21.507,228.310 21.507 C 228.363 21.507,227.981 21.075,227.460 20.547 C 226.940 20.019,226.471 19.587,226.419 19.587 C 226.366 19.587,226.748 20.019,227.268 20.547 M230.521 28.084 L 229.957 28.709 230.581 28.145 C 231.163 27.619,231.293 27.460,231.145 27.460 C 231.112 27.460,230.831 27.741,230.521 28.084 M204.460 41.425 C 204.801 41.468,205.406 41.468,205.805 41.427 C 206.203 41.385,205.924 41.350,205.185 41.350 C 204.446 41.349,204.120 41.383,204.460 41.425 M135.426 42.439 C 135.426 42.808,135.466 42.960,135.514 42.775 C 135.562 42.590,135.562 42.288,135.514 42.103 C 135.466 41.918,135.426 42.069,135.426 42.439 M126.154 44.119 L 125.492 44.839 126.212 44.177 C 126.882 43.561,127.021 43.399,126.874 43.399 C 126.842 43.399,126.518 43.723,126.154 44.119 M193.633 58.857 C 193.633 59.702,193.667 60.024,193.708 59.572 C 193.748 59.121,193.748 58.429,193.707 58.036 C 193.665 57.643,193.632 58.012,193.633 58.857 M250.216 60.166 C 250.216 60.199,250.497 60.480,250.840 60.790 L 251.464 61.354 250.900 60.730 C 250.374 60.148,250.216 60.017,250.216 60.166 M294.467 63.802 L 293.903 64.426 294.527 63.862 C 295.109 63.337,295.239 63.178,295.091 63.178 C 295.058 63.178,294.777 63.459,294.467 63.802 M285.502 66.966 C 285.845 67.008,286.407 67.008,286.750 66.966 C 287.093 66.923,286.812 66.888,286.126 66.888 C 285.439 66.888,285.158 66.923,285.502 66.966 M199.088 68.690 C 199.325 68.736,199.714 68.736,199.952 68.690 C 200.190 68.645,199.995 68.607,199.520 68.607 C 199.045 68.607,198.850 68.645,199.088 68.690 M146.327 70.919 C 146.327 70.952,146.608 71.233,146.952 71.544 L 147.576 72.108 147.012 71.483 C 146.486 70.902,146.327 70.771,146.327 70.919 M286.558 84.242 C 286.743 84.290,287.045 84.290,287.230 84.242 C 287.415 84.194,287.264 84.154,286.894 84.154 C 286.524 84.154,286.373 84.194,286.558 84.242 M246.327 85.016 C 246.671 85.059,247.232 85.059,247.576 85.016 C 247.919 84.974,247.638 84.939,246.952 84.939 C 246.265 84.939,245.984 84.974,246.327 85.016 M252.379 85.207 C 252.671 85.252,253.103 85.250,253.339 85.205 C 253.575 85.159,253.337 85.123,252.808 85.125 C 252.280 85.126,252.087 85.163,252.379 85.207 M185.649 85.401 C 185.994 85.444,186.513 85.443,186.801 85.399 C 187.090 85.355,186.807 85.320,186.174 85.321 C 185.540 85.322,185.304 85.358,185.649 85.401 M261.018 85.405 C 262.048 85.439,263.733 85.439,264.762 85.405 C 265.792 85.370,264.950 85.342,262.890 85.342 C 260.831 85.342,259.988 85.370,261.018 85.405 M131.013 92.115 C 131.198 92.163,131.500 92.163,131.685 92.115 C 131.870 92.067,131.719 92.027,131.349 92.027 C 130.979 92.027,130.828 92.067,131.013 92.115 M136.674 92.121 C 137.014 92.164,137.619 92.164,138.018 92.123 C 138.416 92.081,138.137 92.047,137.398 92.046 C 136.659 92.045,136.333 92.079,136.674 92.121 M252.475 94.231 C 252.714 94.277,253.059 94.275,253.243 94.227 C 253.426 94.179,253.231 94.141,252.808 94.143 C 252.386 94.146,252.236 94.185,252.475 94.231 M197.554 104.985 C 197.793 105.031,198.138 105.029,198.322 104.981 C 198.506 104.933,198.310 104.895,197.888 104.897 C 197.465 104.899,197.315 104.939,197.554 104.985 M176.236 106.143 C 176.791 106.181,177.698 106.181,178.253 106.143 C 178.807 106.104,178.353 106.072,177.244 106.072 C 176.135 106.072,175.682 106.104,176.236 106.143 M178.589 117.775 C 178.589 117.808,178.869 118.089,179.213 118.399 L 179.837 118.963 179.273 118.339 C 178.747 117.757,178.589 117.627,178.589 117.775 M260.444 128.606 C 260.736 128.650,261.168 128.649,261.404 128.604 C 261.641 128.558,261.402 128.522,260.874 128.523 C 260.346 128.525,260.152 128.562,260.444 128.606 M98.222 189.054 C 98.222 209.650,98.244 218.046,98.272 207.714 C 98.299 197.381,98.299 180.531,98.272 170.268 C 98.244 160.005,98.222 168.459,98.222 189.054 M216.668 152.664 C 216.668 153.245,216.704 153.483,216.748 153.193 C 216.792 152.902,216.792 152.427,216.748 152.136 C 216.704 151.846,216.668 152.084,216.668 152.664 M133.029 162.401 C 133.267 162.447,133.656 162.447,133.893 162.401 C 134.131 162.356,133.937 162.318,133.461 162.318 C 132.986 162.318,132.792 162.356,133.029 162.401 M145.319 162.401 C 145.557 162.447,145.946 162.447,146.183 162.401 C 146.421 162.356,146.227 162.318,145.751 162.318 C 145.276 162.318,145.082 162.356,145.319 162.401 M251.803 162.404 C 252.095 162.448,252.527 162.447,252.763 162.401 C 252.999 162.356,252.760 162.319,252.232 162.321 C 251.704 162.322,251.511 162.360,251.803 162.404 M264.186 162.401 C 264.424 162.447,264.813 162.447,265.050 162.401 C 265.288 162.356,265.094 162.318,264.618 162.318 C 264.143 162.318,263.949 162.356,264.186 162.401 M163.114 167.547 C 163.114 169.554,163.143 170.348,163.177 169.313 C 163.212 168.278,163.212 166.636,163.177 165.665 C 163.142 164.693,163.114 165.540,163.114 167.547 M216.655 166.299 C 216.655 166.668,216.695 166.819,216.743 166.635 C 216.791 166.450,216.791 166.147,216.743 165.963 C 216.695 165.778,216.655 165.929,216.655 166.299 M260.263 169.563 C 260.263 170.250,260.298 170.530,260.341 170.187 C 260.383 169.844,260.383 169.282,260.341 168.939 C 260.298 168.596,260.263 168.877,260.263 169.563 M216.704 197.504 C 216.704 213.452,216.727 220.004,216.755 212.065 C 216.782 204.126,216.782 191.077,216.755 183.068 C 216.727 175.060,216.704 181.555,216.704 197.504 M239.126 168.735 C 239.311 168.784,239.614 168.784,239.798 168.735 C 239.983 168.687,239.832 168.648,239.462 168.648 C 239.093 168.648,238.941 168.687,239.126 168.735 M255.109 185.790 C 255.109 195.295,255.132 199.156,255.161 194.369 C 255.189 189.581,255.189 181.804,255.161 177.086 C 255.132 172.367,255.109 176.284,255.109 185.790 M120.276 170.139 C 120.276 170.931,120.310 171.255,120.351 170.859 C 120.393 170.463,120.393 169.815,120.351 169.419 C 120.310 169.023,120.276 169.347,120.276 170.139 M276.992 173.500 C 276.991 176.140,277.018 177.247,277.052 175.959 C 277.085 174.672,277.085 172.511,277.052 171.159 C 277.019 169.806,276.992 170.859,276.992 173.500 M111.049 171.964 C 111.050 172.492,111.087 172.685,111.132 172.393 C 111.176 172.101,111.175 171.669,111.129 171.433 C 111.083 171.197,111.047 171.435,111.049 171.964 M168.119 191.167 C 168.119 202.256,168.143 206.765,168.171 201.186 C 168.199 195.606,168.199 186.533,168.171 181.022 C 168.143 175.512,168.119 180.077,168.119 191.167 M229.761 191.263 C 229.761 202.300,229.784 206.815,229.813 201.296 C 229.841 195.778,229.841 186.747,229.813 181.229 C 229.784 175.711,229.761 180.226,229.761 191.263 M132.263 202.152 C 132.502 202.198,132.848 202.196,133.032 202.148 C 133.215 202.100,133.020 202.063,132.597 202.065 C 132.175 202.067,132.025 202.106,132.263 202.152 M146.279 202.152 C 146.517 202.198,146.906 202.198,147.144 202.152 C 147.381 202.106,147.187 202.069,146.711 202.069 C 146.236 202.069,146.042 202.106,146.279 202.152 M250.168 202.152 C 250.406 202.198,250.795 202.198,251.032 202.152 C 251.270 202.106,251.075 202.069,250.600 202.069 C 250.125 202.069,249.930 202.106,250.168 202.152 M264.381 202.152 C 264.619 202.198,264.965 202.196,265.149 202.148 C 265.332 202.100,265.137 202.063,264.714 202.065 C 264.292 202.067,264.142 202.106,264.381 202.152 M134.679 212.674 C 134.680 213.519,134.714 213.841,134.754 213.389 C 134.795 212.937,134.794 212.246,134.753 211.853 C 134.712 211.460,134.679 211.829,134.679 212.674 M216.705 303.505 C 216.705 327.374,216.727 337.110,216.755 325.141 C 216.782 313.171,216.782 293.642,216.755 281.742 C 216.727 269.842,216.705 279.635,216.705 303.505 M163.114 275.372 C 163.114 277.432,163.143 278.274,163.177 277.244 C 163.212 276.215,163.212 274.530,163.177 273.500 C 163.143 272.470,163.114 273.313,163.114 275.372 M120.291 279.981 C 120.291 281.935,120.319 282.734,120.354 281.757 C 120.389 280.780,120.389 279.181,120.354 278.205 C 120.319 277.228,120.291 278.027,120.291 279.981 M277.576 293.711 C 277.576 303.217,277.600 307.077,277.628 302.290 C 277.657 297.503,277.657 289.726,277.628 285.007 C 277.600 280.289,277.576 284.205,277.576 293.711 M229.763 299.040 L 229.765 319.059 241.191 319.061 L 252.616 319.064 241.239 319.012 L 229.863 318.960 229.812 298.990 L 229.762 279.021 229.763 299.040 M124.092 319.106 L 134.597 319.158 134.667 320.645 L 134.737 322.132 134.723 320.595 L 134.710 319.059 124.148 319.057 L 113.586 319.054 124.092 319.106 M150.518 319.107 C 153.826 319.136,159.184 319.136,162.424 319.107 C 165.664 319.077,162.957 319.053,156.409 319.053 C 149.861 319.053,147.210 319.077,150.518 319.107 M269.467 319.107 C 271.870 319.137,275.802 319.137,278.205 319.107 C 280.607 319.076,278.641 319.051,273.836 319.051 C 269.030 319.051,267.064 319.076,269.467 319.107 M123.572 331.253 C 124.305 331.992,124.949 332.597,125.002 332.597 C 125.055 332.597,124.497 331.992,123.764 331.253 C 123.030 330.514,122.387 329.909,122.334 329.909 C 122.281 329.909,122.838 330.514,123.572 331.253 " stroke="none" fill="#969696" fill-rule="evenodd"></path><path id="path4" d="M175.324 22.564 C 174.858 23.039,174.519 23.428,174.572 23.428 C 174.625 23.428,175.050 23.039,175.516 22.564 C 175.983 22.088,176.321 21.699,176.268 21.699 C 176.215 21.699,175.791 22.088,175.324 22.564 M246.139 24.719 C 246.484 24.762,247.002 24.761,247.291 24.717 C 247.580 24.673,247.297 24.638,246.663 24.639 C 246.030 24.641,245.794 24.676,246.139 24.719 M145.835 32.117 L 145.271 32.741 145.895 32.177 C 146.239 31.867,146.519 31.586,146.519 31.553 C 146.519 31.405,146.361 31.535,145.835 32.117 M268.411 34.512 C 268.754 34.555,269.316 34.555,269.659 34.512 C 270.002 34.470,269.722 34.435,269.035 34.435 C 268.349 34.435,268.068 34.470,268.411 34.512 M133.509 41.035 C 133.694 41.083,133.997 41.083,134.181 41.035 C 134.366 40.987,134.215 40.947,133.845 40.947 C 133.476 40.947,133.325 40.987,133.509 41.035 M220.156 49.976 L 219.203 50.984 220.211 50.031 C 221.148 49.146,221.307 48.968,221.164 48.968 C 221.134 48.968,220.680 49.422,220.156 49.976 M237.689 50.259 C 238.035 50.302,238.553 50.301,238.842 50.257 C 239.130 50.213,238.848 50.178,238.214 50.180 C 237.580 50.181,237.344 50.216,237.689 50.259 M138.730 64.378 L 138.166 65.002 138.790 64.438 C 139.133 64.128,139.414 63.847,139.414 63.814 C 139.414 63.666,139.256 63.797,138.730 64.378 M225.540 76.044 C 226.060 76.572,226.529 77.004,226.582 77.004 C 226.635 77.004,226.252 76.572,225.732 76.044 C 225.212 75.516,224.743 75.084,224.690 75.084 C 224.638 75.084,225.020 75.516,225.540 76.044 M248.442 85.013 C 248.681 85.059,249.027 85.058,249.210 85.010 C 249.394 84.961,249.198 84.924,248.776 84.926 C 248.353 84.928,248.203 84.967,248.442 85.013 M254.011 85.205 C 254.250 85.251,254.595 85.250,254.779 85.202 C 254.963 85.153,254.767 85.116,254.345 85.118 C 253.922 85.120,253.772 85.159,254.011 85.205 M151.464 86.741 C 151.702 86.787,152.091 86.787,152.328 86.741 C 152.566 86.696,152.372 86.658,151.896 86.658 C 151.421 86.658,151.227 86.696,151.464 86.741 M144.263 87.127 C 144.554 87.171,145.029 87.171,145.319 87.127 C 145.610 87.083,145.372 87.047,144.791 87.047 C 144.210 87.047,143.973 87.083,144.263 87.127 M190.879 113.742 C 190.879 113.775,191.159 114.056,191.503 114.366 L 192.127 114.930 191.563 114.306 C 191.037 113.725,190.879 113.594,190.879 113.742 M93.038 202.976 C 93.038 234.081,93.060 246.805,93.087 231.253 C 93.114 215.701,93.114 190.252,93.087 174.700 C 93.060 159.148,93.038 171.872,93.038 202.976 M304.271 204.513 C 304.271 236.462,304.294 249.532,304.321 233.557 C 304.348 217.583,304.348 191.443,304.321 175.468 C 304.294 159.494,304.271 172.564,304.271 204.513 M165.592 151.656 C 168.425 151.686,173.005 151.686,175.770 151.656 C 178.535 151.626,176.217 151.602,170.619 151.602 C 165.022 151.602,162.759 151.626,165.592 151.656 M251.405 151.656 C 252.745 151.689,254.992 151.689,256.398 151.656 C 257.803 151.623,256.707 151.596,253.961 151.596 C 251.215 151.596,250.065 151.623,251.405 151.656 M216.696 159.674 C 216.696 163.053,216.723 164.409,216.754 162.686 C 216.786 160.963,216.786 158.198,216.754 156.541 C 216.722 154.884,216.696 156.294,216.696 159.674 M216.666 167.739 C 216.667 168.267,216.704 168.460,216.748 168.168 C 216.793 167.876,216.791 167.444,216.746 167.208 C 216.700 166.972,216.664 167.211,216.666 167.739 M142.195 185.790 C 142.195 195.295,142.218 199.156,142.247 194.369 C 142.275 189.581,142.275 181.804,142.247 177.086 C 142.218 172.367,142.195 176.284,142.195 185.790 M158.901 185.790 C 158.901 195.295,158.925 199.156,158.953 194.369 C 158.982 189.581,158.982 181.804,158.953 177.086 C 158.925 172.367,158.901 176.284,158.901 185.790 M238.391 172.732 C 238.392 174.950,238.420 175.831,238.454 174.690 C 238.488 173.548,238.487 171.734,238.453 170.657 C 238.419 169.580,238.391 170.514,238.391 172.732 M260.293 186.846 C 260.293 195.771,260.317 199.422,260.346 194.959 C 260.374 190.497,260.374 183.195,260.346 178.733 C 260.317 174.270,260.293 177.921,260.293 186.846 M112.386 171.242 C 113.099 171.279,114.265 171.279,114.978 171.242 C 115.691 171.205,115.108 171.175,113.682 171.175 C 112.256 171.175,111.673 171.205,112.386 171.242 M164.234 171.242 C 164.947 171.279,166.114 171.279,166.827 171.242 C 167.540 171.205,166.956 171.175,165.530 171.175 C 164.105 171.175,163.521 171.205,164.234 171.242 M231.061 171.242 C 231.774 171.279,232.940 171.279,233.653 171.242 C 234.366 171.205,233.783 171.175,232.357 171.175 C 230.931 171.175,230.348 171.205,231.061 171.242 M283.101 171.242 C 283.814 171.279,284.981 171.279,285.694 171.242 C 286.407 171.205,285.823 171.175,284.398 171.175 C 282.972 171.175,282.388 171.205,283.101 171.242 M120.303 187.230 C 120.303 195.943,120.326 199.508,120.355 195.151 C 120.384 190.795,120.384 183.665,120.355 179.309 C 120.326 174.952,120.303 178.517,120.303 187.230 M111.086 192.031 C 111.086 202.645,111.109 206.988,111.138 201.680 C 111.166 196.373,111.166 187.688,111.138 182.381 C 111.109 177.074,111.086 181.416,111.086 192.031 M238.399 187.038 C 238.399 192.055,238.424 194.107,238.454 191.599 C 238.484 189.090,238.484 184.986,238.454 182.477 C 238.424 179.969,238.399 182.021,238.399 187.038 M276.999 190.014 C 276.999 196.563,277.023 199.269,277.052 196.029 C 277.082 192.789,277.082 187.431,277.052 184.123 C 277.023 180.815,276.999 183.466,276.999 190.014 M118.147 211.186 C 121.183 211.215,126.152 211.215,129.189 211.186 C 132.225 211.156,129.741 211.132,123.668 211.132 C 117.595 211.132,115.110 211.156,118.147 211.186 M144.488 211.301 C 144.433 211.443,144.419 212.156,144.456 212.885 L 144.524 214.210 144.562 212.724 L 144.599 211.237 155.305 211.186 L 166.011 211.134 155.299 211.088 C 146.455 211.050,144.570 211.087,144.488 211.301 M237.096 211.186 C 240.072 211.215,244.998 211.215,248.042 211.186 C 251.086 211.156,248.651 211.132,242.631 211.132 C 236.611 211.132,234.120 211.156,237.096 211.186 M268.809 211.186 C 271.906 211.215,276.918 211.215,279.946 211.186 C 282.975 211.156,280.442 211.132,274.316 211.132 C 268.190 211.132,265.712 211.156,268.809 211.186 M119.699 230.965 C 131.721 230.992,151.337 230.992,163.290 230.965 C 175.242 230.938,165.406 230.915,141.431 230.915 C 117.456 230.915,107.676 230.938,119.699 230.965 M233.557 230.965 C 245.149 230.992,264.117 230.992,275.708 230.965 C 287.300 230.938,277.816 230.915,254.633 230.915 C 231.450 230.915,221.966 230.938,233.557 230.965 M98.172 261.546 C 98.172 261.916,98.212 262.067,98.260 261.882 C 98.308 261.697,98.308 261.395,98.260 261.210 C 98.212 261.025,98.172 261.176,98.172 261.546 M304.225 264.138 C 304.227 264.561,304.267 264.711,304.312 264.472 C 304.358 264.233,304.357 263.888,304.309 263.704 C 304.261 263.520,304.223 263.716,304.225 264.138 M93.190 265.482 C 93.191 266.011,93.229 266.204,93.273 265.912 C 93.317 265.620,93.316 265.188,93.270 264.952 C 93.224 264.716,93.188 264.954,93.190 265.482 M98.364 265.578 C 98.364 265.948,98.404 266.099,98.452 265.915 C 98.500 265.730,98.500 265.427,98.452 265.242 C 98.404 265.058,98.364 265.209,98.364 265.578 M299.036 266.155 C 299.036 266.524,299.076 266.675,299.124 266.491 C 299.173 266.306,299.173 266.003,299.124 265.819 C 299.076 265.634,299.036 265.785,299.036 266.155 M93.179 267.499 C 93.179 267.868,93.219 268.020,93.267 267.835 C 93.316 267.650,93.316 267.348,93.267 267.163 C 93.219 266.978,93.179 267.129,93.179 267.499 M304.029 268.459 C 304.029 268.829,304.069 268.980,304.117 268.795 C 304.165 268.610,304.165 268.308,304.117 268.123 C 304.069 267.938,304.029 268.089,304.029 268.459 M142.195 292.751 C 142.195 301.834,142.218 305.522,142.247 300.946 C 142.275 296.370,142.275 288.938,142.247 284.431 C 142.218 279.924,142.195 283.668,142.195 292.751 M158.901 293.711 C 158.901 303.217,158.925 307.077,158.953 302.290 C 158.982 297.503,158.982 289.726,158.953 285.007 C 158.925 280.289,158.901 284.205,158.901 293.711 M110.948 296.784 C 110.920 306.553,110.963 314.546,111.042 314.546 C 111.121 314.546,111.186 306.553,111.186 296.783 C 111.186 287.014,111.143 279.021,111.092 279.021 C 111.040 279.021,110.975 287.014,110.948 296.784 M120.256 297.108 C 120.231 304.680,120.276 310.915,120.355 310.964 C 120.486 311.045,120.484 300.956,120.352 288.238 C 120.323 285.545,120.280 289.536,120.256 297.108 M294.798 310.426 C 294.477 311.132,294.538 311.283,294.886 310.641 C 295.048 310.341,295.145 310.060,295.101 310.016 C 295.058 309.972,294.921 310.156,294.798 310.426 M102.366 310.226 C 102.366 310.331,102.489 310.634,102.640 310.898 C 102.791 311.162,102.915 311.291,102.915 311.186 C 102.915 311.080,102.791 310.778,102.640 310.514 C 102.489 310.250,102.366 310.120,102.366 310.226 M290.180 319.349 C 289.944 319.771,289.790 320.115,289.839 320.115 C 289.969 320.115,290.763 318.735,290.680 318.653 C 290.642 318.615,290.417 318.928,290.180 319.349 M107.057 319.347 C 107.221 319.664,107.398 319.923,107.451 319.923 C 107.504 319.923,107.413 319.664,107.249 319.347 C 107.085 319.030,106.908 318.771,106.855 318.771 C 106.802 318.771,106.893 319.030,107.057 319.347 M144.445 320.352 L 144.407 321.837 139.558 321.892 L 134.710 321.946 139.564 321.991 C 145.090 322.042,144.653 322.199,144.550 320.192 L 144.482 318.867 144.445 320.352 M263.706 319.101 C 263.997 319.145,264.472 319.145,264.762 319.101 C 265.053 319.057,264.815 319.021,264.234 319.021 C 263.653 319.021,263.416 319.057,263.706 319.101 M283.009 319.102 C 283.354 319.145,283.872 319.144,284.161 319.100 C 284.449 319.056,284.167 319.021,283.533 319.023 C 282.900 319.024,282.664 319.059,283.009 319.102 M255.822 321.987 C 257.162 322.020,259.409 322.020,260.814 321.987 C 262.220 321.954,261.123 321.927,258.377 321.927 C 255.631 321.927,254.481 321.954,255.822 321.987 M285.826 325.813 C 285.530 326.201,285.386 326.457,285.506 326.383 C 285.752 326.231,286.583 325.108,286.450 325.108 C 286.402 325.108,286.121 325.425,285.826 325.813 M115.218 330.581 C 115.577 330.951,115.913 331.253,115.966 331.253 C 116.019 331.253,115.769 330.951,115.410 330.581 C 115.052 330.211,114.716 329.909,114.663 329.909 C 114.610 329.909,114.860 330.211,115.218 330.581 M116.179 331.690 C 116.179 331.719,116.848 332.389,117.667 333.178 L 119.155 334.614 117.720 333.125 C 116.386 331.743,116.179 331.549,116.179 331.690 M278.340 334.566 L 277.580 335.382 278.397 334.623 C 279.156 333.917,279.301 333.749,279.156 333.749 C 279.124 333.749,278.757 334.117,278.340 334.566 M120.403 335.958 C 121.084 336.644,121.684 337.206,121.736 337.206 C 121.789 337.206,121.276 336.644,120.595 335.958 C 119.915 335.271,119.315 334.710,119.262 334.710 C 119.209 334.710,119.723 335.271,120.403 335.958 M126.809 341.387 C 126.961 341.633,128.084 342.464,128.084 342.331 C 128.084 342.283,127.767 342.002,127.380 341.707 C 126.992 341.411,126.735 341.267,126.809 341.387 M270.091 341.735 L 269.515 342.230 270.139 341.817 C 270.482 341.590,270.763 341.367,270.763 341.322 C 270.763 341.178,270.682 341.228,270.091 341.735 M266.962 344.009 C 266.070 344.640,265.944 344.820,266.697 344.389 C 267.049 344.188,267.427 343.915,267.537 343.783 C 267.821 343.444,267.688 343.496,266.962 344.009 M259.770 348.646 C 259.052 349.035,259.095 349.197,259.818 348.824 C 260.134 348.660,260.394 348.485,260.394 348.435 C 260.394 348.311,260.373 348.318,259.770 348.646 M141.335 350.734 C 141.335 350.787,141.594 350.964,141.911 351.128 C 142.228 351.292,142.487 351.383,142.487 351.330 C 142.487 351.277,142.228 351.100,141.911 350.936 C 141.594 350.772,141.335 350.681,141.335 350.734 M216.693 355.737 C 216.694 358.272,216.721 359.282,216.754 357.982 C 216.787 356.682,216.787 354.608,216.754 353.374 C 216.721 352.139,216.693 353.202,216.693 355.737 M250.984 353.337 C 250.614 353.539,250.398 353.704,250.504 353.704 C 250.610 353.704,250.999 353.539,251.368 353.337 C 251.738 353.134,251.954 352.969,251.848 352.969 C 251.743 352.969,251.354 353.134,250.984 353.337 M245.799 355.737 C 245.535 355.888,245.406 356.011,245.511 356.011 C 245.617 356.011,245.919 355.888,246.183 355.737 C 246.447 355.586,246.577 355.462,246.471 355.462 C 246.366 355.462,246.063 355.586,245.799 355.737 M234.181 360.339 C 233.440 360.678,233.785 360.683,234.662 360.346 C 235.031 360.203,235.204 360.084,235.046 360.081 C 234.887 360.078,234.498 360.194,234.181 360.339 M227.940 362.458 C 227.571 362.600,227.398 362.717,227.556 362.717 C 227.715 362.717,228.147 362.600,228.517 362.458 C 228.886 362.316,229.059 362.199,228.901 362.199 C 228.742 362.199,228.310 362.316,227.940 362.458 M185.790 367.355 C 186.001 367.446,186.347 367.517,186.558 367.514 C 186.867 367.510,186.848 367.478,186.462 367.355 C 185.805 367.145,185.300 367.145,185.790 367.355 M202.208 369.563 C 201.733 369.701,201.517 369.815,201.728 369.818 C 201.940 369.820,202.458 369.708,202.880 369.569 C 203.875 369.241,203.336 369.236,202.208 369.563 " stroke="none" fill="#5c5c5c" fill-rule="evenodd"></path></g></svg>