<svg id="svg" version="1.1" xmlns="http://www.w3.org/2000/svg" xmlns:xlink="http://www.w3.org/1999/xlink" width="400" height="353.17073170731703" viewBox="0, 0, 400,353.17073170731703"><g id="svgg"><path id="path0" d="M17.668 195.741 C 9.647 197.255,5.387 202.907,5.723 211.586 C 6.059 220.241,9.502 223.132,24.159 227.070 C 35.421 230.096,37.324 231.144,38.466 234.955 C 41.711 245.785,29.334 252.976,17.904 246.902 C 13.148 244.375,10.427 239.901,7.914 230.477 C 7.844 230.216,7.213 230.035,6.372 230.035 L 4.947 230.035 4.985 238.781 C 5.038 250.823,5.152 251.735,6.614 251.877 C 7.675 251.979,7.858 251.819,9.350 249.491 C 11.197 246.611,11.002 246.697,12.670 248.010 C 23.491 256.531,41.361 252.151,44.195 240.283 C 46.955 228.720,41.709 222.360,26.148 218.405 C 14.519 215.449,12.636 214.460,11.356 210.636 C 9.259 204.371,14.050 198.818,21.555 198.816 C 29.451 198.814,35.236 203.620,38.291 212.721 L 39.180 215.371 40.582 215.478 L 41.984 215.585 41.801 210.531 C 41.700 207.751,41.516 203.410,41.392 200.883 L 41.166 196.290 39.875 196.182 C 38.645 196.080,38.521 196.174,37.225 198.207 C 35.683 200.626,35.625 200.651,34.132 199.540 C 29.746 196.276,23.037 194.728,17.668 195.741 M358.481 195.826 C 352.874 196.211,353.004 196.168,353.004 197.652 L 353.004 198.860 355.520 199.002 C 359.720 199.240,359.364 196.956,359.364 223.659 C 359.364 249.840,359.679 247.583,356.001 247.771 L 353.887 247.880 353.778 249.388 L 353.669 250.895 362.789 250.801 L 371.908 250.707 372.023 249.507 C 372.166 248.010,371.727 247.716,369.346 247.709 C 366.333 247.700,366.078 247.237,366.078 241.773 L 366.078 237.257 368.120 235.236 C 370.843 232.542,370.588 232.405,375.618 239.249 C 381.499 247.250,381.621 247.695,377.936 247.709 C 375.987 247.716,375.543 248.070,375.681 249.507 L 375.795 250.707 385.424 250.801 L 395.053 250.895 395.053 249.482 C 395.053 248.226,394.946 248.048,394.081 247.871 C 391.482 247.337,390.350 246.879,389.255 245.917 C 387.807 244.646,375.857 228.766,376.027 228.340 C 376.289 227.686,382.272 222.458,384.238 221.164 C 386.521 219.661,388.167 219.086,390.194 219.083 C 391.504 219.081,391.519 219.065,391.519 217.668 L 391.519 216.254 382.179 216.254 C 373.149 216.254,372.832 216.278,372.615 216.961 C 372.087 218.623,372.660 219.081,375.264 219.081 C 377.612 219.081,378.799 219.566,378.799 220.525 C 378.799 221.326,366.928 232.286,366.408 231.964 C 366.210 231.842,366.078 224.460,366.078 213.583 L 366.078 195.406 364.576 195.458 C 363.750 195.487,361.007 195.652,358.481 195.826 M201.413 198.391 L 201.413 200.000 203.834 200.000 C 209.574 200.000,209.187 198.265,209.187 224.025 L 209.187 245.544 208.358 246.507 C 207.601 247.388,207.266 247.485,204.472 247.631 L 201.413 247.792 201.413 249.338 L 201.413 250.883 217.226 250.876 C 238.635 250.865,243.219 249.760,246.728 243.762 C 251.800 235.091,247.753 226.199,237.433 223.339 C 234.373 222.491,234.238 222.388,235.552 221.908 C 242.826 219.248,245.338 216.461,245.834 210.498 C 246.337 204.452,243.424 200.005,237.493 197.765 C 235.594 197.048,234.814 197.013,218.463 196.900 L 201.413 196.782 201.413 198.391 M232.158 200.948 C 235.750 202.572,237.226 205.439,237.219 210.777 C 237.208 218.632,233.963 221.025,223.322 221.025 L 217.491 221.025 217.392 211.661 C 217.283 201.364,217.334 200.827,218.473 200.342 C 220.020 199.684,230.376 200.142,232.158 200.948 M55.686 201.855 C 55.600 202.292,55.360 203.785,55.153 205.172 C 54.291 210.955,51.525 214.930,47.563 216.082 C 45.545 216.669,45.544 216.670,45.652 217.964 L 45.760 219.258 48.587 219.435 L 51.413 219.611 51.603 233.039 C 51.836 249.571,52.076 250.434,56.812 251.811 C 64.625 254.082,71.073 249.107,71.641 240.371 L 71.831 237.456 70.545 237.456 C 69.837 237.456,69.255 237.575,69.251 237.721 C 69.060 244.961,65.133 249.300,60.683 247.189 C 58.537 246.170,58.481 245.779,58.481 231.979 L 58.481 219.611 63.251 219.525 C 69.598 219.411,69.680 219.387,69.544 217.744 L 69.435 216.431 64.134 216.254 L 58.834 216.078 58.739 208.569 L 58.643 201.060 57.244 201.060 C 56.074 201.060,55.818 201.191,55.686 201.855 M87.986 215.182 C 78.428 216.954,73.087 225.230,74.238 236.484 C 76.247 256.136,102.469 257.973,107.069 238.783 C 110.367 225.028,100.526 212.857,87.986 215.182 M272.907 215.242 C 269.738 215.800,267.126 218.072,265.157 221.983 C 263.543 225.188,263.263 224.796,263.256 219.315 L 263.251 215.132 261.926 215.325 C 261.197 215.432,259.249 215.609,257.597 215.720 C 255.945 215.831,253.679 216.012,252.562 216.123 L 250.530 216.324 250.530 217.703 L 250.530 219.081 253.020 219.081 C 255.192 219.081,255.620 219.192,256.376 219.949 L 257.244 220.816 257.244 233.553 C 257.244 248.247,257.365 247.703,254.093 247.703 C 251.565 247.703,251.237 247.911,251.237 249.508 L 251.237 250.883 260.974 250.883 L 270.712 250.883 270.603 249.382 L 270.495 247.880 267.596 247.703 C 263.594 247.459,263.776 247.846,263.806 239.645 C 263.843 229.746,265.265 224.487,268.886 220.867 C 270.928 218.825,274.038 217.765,273.157 219.411 C 270.976 223.487,276.010 227.913,279.609 225.083 C 284.196 221.474,279.197 214.133,272.907 215.242 M296.113 215.198 C 280.430 217.904,276.956 243.059,291.266 250.299 C 303.576 256.527,315.771 248.088,315.698 233.392 C 315.637 220.969,307.341 213.262,296.113 215.198 M333.392 215.182 C 314.374 219.274,314.803 249.015,333.923 251.985 C 346.544 253.945,356.133 241.417,352.479 227.739 C 350.140 218.978,341.664 213.402,333.392 215.182 M115.548 215.742 C 112.730 215.990,110.057 216.206,109.608 216.223 C 108.885 216.251,108.804 216.406,108.901 217.580 L 109.011 218.905 111.520 219.081 C 115.489 219.361,115.194 218.213,115.194 233.410 C 115.194 248.454,115.350 247.699,112.254 247.709 C 109.899 247.716,109.460 248.013,109.603 249.507 L 109.717 250.707 118.660 250.801 L 127.603 250.896 127.494 249.388 L 127.385 247.880 125.194 247.703 C 121.935 247.440,122.080 247.920,122.115 237.525 C 122.148 227.609,122.438 225.894,124.551 223.124 C 127.405 219.382,134.018 218.737,136.894 221.920 C 138.665 223.880,138.693 224.095,138.693 235.983 C 138.693 248.122,138.795 247.703,135.827 247.703 C 133.560 247.703,133.216 247.941,133.216 249.508 L 133.216 250.883 142.226 250.883 L 151.237 250.883 151.237 249.508 C 151.237 247.914,150.907 247.703,148.406 247.703 C 145.572 247.703,145.678 248.148,145.496 235.435 C 145.319 223.079,145.156 221.975,143.099 219.178 C 138.973 213.567,127.736 214.294,123.349 220.456 C 122.168 222.115,121.908 221.816,121.908 218.799 C 121.908 216.331,121.540 215.074,120.866 215.243 C 120.759 215.270,118.366 215.495,115.548 215.742 M149.358 216.484 C 148.214 217.628,149.365 219.435,151.239 219.435 C 152.756 219.435,154.167 220.877,155.450 223.743 C 158.904 231.451,166.123 248.161,166.520 249.366 C 167.678 252.881,158.813 264.671,156.258 263.014 C 155.645 262.618,155.627 262.428,156.038 260.686 C 157.101 256.171,150.013 254.942,148.161 259.320 C 145.489 265.636,155.394 269.064,161.922 264.083 C 165.557 261.309,166.824 258.815,178.584 231.272 C 183.061 220.786,183.555 220.027,186.262 219.473 C 187.376 219.245,187.456 219.135,187.456 217.830 L 187.456 216.431 180.389 216.431 L 173.322 216.431 173.207 217.631 C 173.074 219.020,173.519 219.421,175.200 219.429 C 179.673 219.450,179.592 220.129,173.355 234.890 C 172.267 237.462,171.378 239.709,171.378 239.882 C 171.378 240.055,171.161 240.377,170.895 240.597 C 170.266 241.120,170.065 240.834,168.560 237.279 C 167.902 235.724,166.121 231.611,164.601 228.139 C 161.017 219.952,161.027 219.577,164.835 219.184 L 166.821 218.979 166.714 217.705 L 166.608 216.431 158.104 216.337 C 153.427 216.285,149.491 216.351,149.358 216.484 M94.438 218.691 C 98.483 220.425,99.823 224.172,99.823 233.746 C 99.823 245.070,97.457 249.102,90.813 249.101 C 84.348 249.099,81.814 244.727,81.814 233.569 C 81.814 220.941,86.581 215.324,94.438 218.691 M303.095 218.928 C 310.568 222.652,310.371 245.131,302.837 248.372 C 294.867 251.800,289.960 246.085,289.975 233.392 C 289.989 220.872,295.284 215.036,303.095 218.928 M339.258 218.423 C 343.575 219.869,345.583 224.663,345.583 233.523 C 345.583 244.403,342.755 249.132,336.264 249.109 C 329.764 249.086,327.385 244.923,327.385 233.569 C 327.385 221.071,331.498 215.825,339.258 218.423 M230.433 225.035 C 237.052 226.428,239.576 229.507,239.576 236.191 C 239.576 244.633,235.579 247.658,224.382 247.689 C 220.214 247.701,218.199 247.283,217.672 246.298 C 217.275 245.555,217.159 225.008,217.550 224.617 C 218.073 224.094,227.397 224.396,230.433 225.035 " stroke="none" fill="#0f0f0f" fill-rule="evenodd"></path><path id="path1" d="M0.000 176.678 L 0.000 353.357 200.000 353.357 L 400.000 353.357 400.000 176.678 L 400.000 0.000 200.000 0.000 L 0.000 0.000 0.000 176.678 M200.177 95.053 L 200.177 170.495 198.910 170.424 C 194.606 170.182,181.510 164.662,174.558 160.158 C 154.595 147.225,141.426 127.910,137.036 105.124 L 136.219 100.883 136.219 67.845 L 136.219 34.806 140.950 32.451 C 153.388 26.261,166.946 22.308,182.509 20.335 C 188.825 19.535,188.796 19.536,194.700 19.575 L 200.177 19.611 200.177 95.053 M208.861 22.085 C 208.973 23.445,209.248 25.989,209.472 27.739 C 209.880 30.925,210.654 37.995,212.006 50.883 C 212.403 54.673,212.877 58.966,213.059 60.424 C 213.240 61.882,213.483 64.108,213.597 65.371 C 213.712 66.634,214.041 69.735,214.328 72.261 C 214.615 74.788,215.483 82.739,216.256 89.929 C 217.029 97.120,217.896 105.071,218.183 107.597 C 218.470 110.124,218.790 113.065,218.893 114.134 C 218.996 115.203,219.395 118.860,219.779 122.261 C 220.565 129.220,222.498 147.118,222.813 150.353 C 222.927 151.519,223.250 154.295,223.531 156.520 C 224.152 161.433,224.437 161.008,218.536 163.967 C 214.985 165.747,214.251 166.003,213.934 165.572 C 213.585 165.097,213.224 160.642,212.357 146.113 C 212.171 143.004,211.703 135.610,211.316 129.682 C 210.236 113.143,208.422 84.482,207.234 65.194 C 206.934 60.336,206.527 54.134,206.328 51.413 C 206.129 48.693,205.742 42.571,205.467 37.809 C 205.192 33.048,204.807 27.244,204.612 24.912 C 204.417 22.580,204.253 20.386,204.249 20.036 C 204.241 19.481,204.517 19.414,206.449 19.506 L 208.657 19.611 208.861 22.085 M217.009 22.438 C 217.327 23.799,217.936 26.581,218.363 28.622 C 218.790 30.663,219.425 33.604,219.775 35.159 C 220.124 36.714,220.661 39.178,220.968 40.636 C 221.276 42.094,222.024 45.592,222.630 48.410 C 223.237 51.228,224.109 55.283,224.568 57.420 C 225.027 59.558,225.902 63.613,226.512 66.431 C 228.562 75.906,229.287 79.288,231.245 88.516 C 232.317 93.569,233.369 98.419,233.582 99.293 C 233.915 100.664,234.940 105.408,238.198 120.671 C 238.572 122.420,239.108 124.965,239.391 126.325 C 239.673 127.686,240.553 131.740,241.345 135.336 C 242.137 138.931,242.920 142.564,243.085 143.409 L 243.384 144.945 239.677 148.621 C 236.654 151.618,234.996 152.885,234.980 152.208 C 234.979 152.160,234.828 151.246,234.644 150.177 C 232.889 139.973,231.860 133.934,229.889 122.261 C 228.625 114.779,227.097 105.795,226.493 102.297 C 225.889 98.799,224.858 92.756,224.203 88.869 C 223.547 84.982,222.351 77.986,221.544 73.322 C 220.738 68.657,219.863 63.489,219.600 61.837 C 219.336 60.186,218.459 55.018,217.650 50.353 C 216.842 45.689,215.975 40.601,215.725 39.046 C 215.055 34.879,214.201 29.884,213.609 26.678 C 213.322 25.124,212.982 22.928,212.853 21.800 L 212.619 19.748 214.525 19.856 L 216.431 19.965 217.009 22.438 M224.468 21.339 C 224.612 21.555,225.455 24.037,226.340 26.855 C 227.226 29.673,228.251 32.853,228.617 33.922 C 228.984 34.991,229.756 37.376,230.332 39.223 C 231.391 42.615,234.113 51.163,239.279 67.314 C 240.833 72.173,242.405 77.102,242.772 78.269 C 243.139 79.435,244.227 82.853,245.191 85.866 C 246.154 88.878,248.158 95.159,249.644 99.823 C 251.130 104.488,253.443 111.712,254.783 115.877 L 257.220 123.451 255.889 126.125 C 252.410 133.112,251.570 133.986,250.857 131.360 C 250.633 130.534,250.159 128.825,249.804 127.562 C 247.444 119.165,244.616 108.905,243.814 105.830 C 243.662 105.247,242.551 101.193,241.344 96.820 C 240.137 92.447,238.386 86.087,237.451 82.686 C 236.517 79.284,234.767 72.924,233.563 68.551 C 232.359 64.178,231.250 60.124,231.098 59.541 C 230.946 58.958,230.309 56.652,229.682 54.417 C 229.055 52.182,228.418 49.876,228.267 49.293 C 228.115 48.710,227.749 47.359,227.453 46.290 C 224.827 36.803,223.552 32.169,223.321 31.272 C 223.170 30.689,222.477 28.162,221.781 25.657 C 221.084 23.152,220.603 20.958,220.712 20.782 C 220.972 20.362,224.127 20.830,224.468 21.339 M232.177 22.460 C 232.838 22.652,232.301 21.457,240.262 40.459 C 242.053 44.735,243.728 48.710,243.984 49.293 C 245.249 52.169,250.131 63.779,255.350 76.325 C 256.604 79.337,258.245 83.233,258.998 84.982 C 259.750 86.731,261.151 90.071,262.109 92.403 L 263.853 96.643 263.587 99.470 C 263.284 102.692,262.305 108.484,262.015 108.774 C 261.610 109.179,260.833 107.847,259.782 104.947 C 259.184 103.295,257.488 98.763,256.014 94.876 C 254.540 90.989,252.294 85.027,251.023 81.625 C 249.751 78.224,248.304 74.408,247.807 73.145 C 247.309 71.882,246.376 69.417,245.733 67.668 C 245.090 65.919,244.256 63.693,243.880 62.721 C 242.724 59.731,239.274 50.595,237.475 45.760 C 236.535 43.233,235.598 40.769,235.393 40.283 C 235.188 39.797,233.812 36.140,232.335 32.155 C 230.858 28.171,229.416 24.384,229.130 23.739 C 228.317 21.904,229.115 21.569,232.177 22.460 M243.294 25.625 C 250.135 27.890,257.377 31.071,261.926 33.810 L 263.958 35.034 263.958 56.739 C 263.958 81.573,264.105 80.687,261.045 74.293 C 258.534 69.046,255.030 61.709,252.693 56.802 C 249.018 49.087,247.182 45.254,244.122 38.911 C 242.399 35.338,240.989 32.358,240.989 32.288 C 240.989 32.218,240.194 30.553,239.223 28.587 C 236.612 23.307,236.511 23.380,243.294 25.625 M169.791 71.020 C 169.657 71.237,168.872 73.434,168.047 75.902 L 166.547 80.389 161.137 80.565 L 155.728 80.742 159.847 83.698 C 162.113 85.324,164.046 86.784,164.144 86.942 C 164.242 87.100,163.618 89.427,162.757 92.113 C 161.896 94.799,161.246 97.051,161.312 97.117 C 161.378 97.184,163.349 95.855,165.693 94.163 L 169.954 91.088 174.211 94.131 C 176.552 95.804,178.534 97.173,178.614 97.173 C 178.795 97.173,177.986 94.423,176.639 90.462 C 176.078 88.812,175.618 87.351,175.618 87.217 C 175.618 87.082,177.541 85.571,179.890 83.857 L 184.162 80.742 178.858 80.565 C 175.941 80.468,173.481 80.309,173.391 80.212 C 173.301 80.115,172.558 77.968,171.740 75.442 C 170.102 70.380,170.137 70.459,169.791 71.020 M27.475 195.785 C 29.906 196.467,33.971 198.514,34.457 199.301 C 34.964 200.121,35.936 199.510,37.047 197.675 L 38.228 195.724 39.874 195.830 L 41.519 195.936 41.756 200.000 C 41.887 202.235,42.046 206.767,42.110 210.071 L 42.226 216.078 40.854 216.190 C 39.117 216.333,38.998 216.199,37.865 212.847 C 34.769 203.694,29.718 199.510,21.731 199.484 C 14.168 199.459,10.253 203.436,11.660 209.716 C 12.620 213.998,14.370 214.966,26.939 218.167 C 37.015 220.732,41.074 223.164,43.431 228.047 C 46.296 233.980,45.249 242.784,41.139 247.333 C 35.154 253.957,20.003 254.475,12.250 248.321 L 11.249 247.527 10.660 248.278 C 10.336 248.691,9.632 249.774,9.095 250.683 C 8.153 252.282,8.071 252.334,6.622 252.229 L 5.124 252.120 4.856 249.470 C 4.709 248.012,4.629 243.004,4.679 238.339 L 4.770 229.859 6.489 229.859 L 8.208 229.859 8.841 232.332 C 11.647 243.296,17.313 248.493,26.436 248.471 C 33.915 248.454,38.516 244.588,38.516 238.321 C 38.516 233.344,35.584 230.401,29.061 228.831 C 11.285 224.553,6.423 221.458,5.267 213.684 C 3.337 200.709,14.102 192.033,27.475 195.785 M366.431 213.268 C 366.431 228.789,366.504 231.442,366.926 231.201 C 368.429 230.344,378.092 221.059,378.092 220.473 C 378.092 219.691,377.387 219.478,374.382 219.349 L 372.261 219.258 372.261 217.668 L 372.261 216.078 382.067 215.984 L 391.873 215.890 391.873 217.613 L 391.873 219.336 389.956 219.534 C 386.566 219.884,383.750 221.564,378.710 226.247 C 376.114 228.660,375.797 227.768,382.335 236.466 C 389.867 246.487,390.210 246.817,393.605 247.303 L 395.230 247.535 395.230 249.298 L 395.230 251.060 385.336 251.060 L 375.442 251.060 375.326 250.046 C 375.072 247.824,375.433 247.395,377.653 247.279 C 380.488 247.131,380.486 246.503,377.643 242.733 C 376.406 241.094,374.506 238.552,373.420 237.086 C 370.571 233.236,370.806 233.312,368.454 235.483 L 366.431 237.351 366.436 241.379 C 366.443 246.817,366.615 247.122,369.796 247.350 L 372.261 247.527 372.261 249.293 L 372.261 251.060 362.721 251.060 L 353.180 251.060 353.180 249.293 L 353.180 247.527 355.470 247.419 C 359.353 247.237,359.011 249.518,359.011 223.813 C 359.011 197.279,359.413 199.311,354.152 199.297 L 352.650 199.293 352.650 197.710 C 352.650 196.360,352.767 196.098,353.445 195.935 C 354.756 195.619,360.401 195.152,363.516 195.101 L 366.431 195.053 366.431 213.268 M236.977 197.214 C 248.837 200.873,249.929 215.643,238.746 221.131 L 235.989 222.484 238.169 223.090 C 245.494 225.127,249.132 229.586,249.111 236.501 C 249.089 243.941,244.244 249.115,235.783 250.734 C 231.683 251.518,201.225 251.469,200.921 250.678 C 199.913 248.049,200.908 246.996,204.404 246.996 C 209.277 246.996,208.868 249.213,208.753 223.412 C 208.642 198.210,209.118 200.707,204.420 200.707 C 200.870 200.707,199.900 199.687,200.921 197.025 C 201.303 196.030,233.690 196.200,236.977 197.214 M59.011 208.127 L 59.187 215.724 64.488 215.901 L 69.788 216.078 69.788 217.845 L 69.788 219.611 64.311 219.788 L 58.834 219.965 58.834 232.155 C 58.834 246.078,58.865 246.254,61.486 247.039 C 65.239 248.163,67.849 245.436,68.461 239.753 L 68.728 237.279 70.495 237.279 L 72.261 237.279 72.171 239.399 C 71.796 248.173,67.717 252.630,60.046 252.646 C 56.018 252.655,53.133 251.058,51.842 248.106 C 51.568 247.481,51.372 242.688,51.247 233.569 L 51.060 219.965 48.145 219.862 L 45.230 219.759 45.230 217.996 C 45.230 216.887,45.394 216.186,45.671 216.107 C 45.914 216.038,46.804 215.794,47.649 215.564 C 51.559 214.499,55.124 208.215,55.124 202.386 C 55.124 200.803,55.713 200.300,57.419 200.426 L 58.834 200.530 59.011 208.127 M219.258 200.586 C 217.669 201.029,217.668 201.033,217.668 211.174 L 217.668 220.848 221.820 220.841 C 233.486 220.821,236.769 218.490,236.732 210.247 C 236.698 202.865,234.098 200.723,224.912 200.506 C 222.191 200.441,219.647 200.477,219.258 200.586 M94.680 215.014 C 104.377 217.053,109.809 226.838,107.614 238.312 C 104.054 256.916,78.625 257.584,74.215 239.189 C 70.638 224.268,80.922 212.119,94.680 215.014 M276.257 214.890 C 280.687 215.964,283.042 220.769,280.865 224.292 C 278.166 228.660,271.740 226.290,272.234 221.108 L 272.428 219.072 271.108 219.751 C 266.371 222.188,263.965 229.472,264.082 241.024 C 264.147 247.423,264.062 247.289,268.142 247.425 L 271.201 247.527 271.201 249.293 L 271.201 251.060 261.155 251.154 C 250.241 251.256,250.546 251.311,250.535 249.248 C 250.528 247.738,251.066 247.405,253.715 247.280 C 257.042 247.124,256.911 247.722,256.804 233.139 C 256.698 218.741,256.978 219.701,252.821 219.491 L 250.177 219.357 250.177 217.618 C 250.177 215.498,249.694 215.663,257.067 215.274 C 264.638 214.875,263.956 214.486,263.964 219.207 L 263.970 223.145 265.041 221.201 C 266.864 217.891,269.258 215.768,272.024 215.006 C 274.159 214.417,274.294 214.414,276.257 214.890 M303.070 215.045 C 313.371 217.430,319.013 229.097,315.387 240.514 C 310.010 257.445,285.492 256.110,282.357 238.716 C 279.607 223.462,289.684 211.945,303.070 215.045 M340.311 215.024 C 348.621 216.772,353.421 223.555,353.436 233.569 C 353.471 258.204,320.472 259.566,319.201 234.982 C 318.493 221.280,327.877 212.408,340.311 215.024 M121.578 215.207 C 122.161 215.519,122.261 215.964,122.261 218.234 L 122.261 220.895 124.019 219.090 C 129.046 213.929,138.130 213.462,142.679 218.130 C 145.580 221.107,145.734 221.920,145.864 234.982 C 145.993 247.908,145.787 247.107,149.045 247.350 L 151.413 247.527 151.413 249.293 L 151.413 251.060 142.049 251.060 L 132.686 251.060 132.570 250.046 C 132.306 247.738,132.640 247.392,135.241 247.278 C 138.588 247.130,138.504 247.418,138.511 236.066 C 138.518 223.242,138.025 221.676,133.617 220.503 C 129.659 219.450,125.592 221.481,123.730 225.442 C 122.830 227.355,122.814 227.532,122.685 236.908 C 122.534 247.867,122.377 247.350,125.856 247.350 C 128.103 247.350,128.468 247.768,128.208 250.046 L 128.092 251.060 118.728 251.060 L 109.364 251.060 109.364 249.293 L 109.364 247.527 111.762 247.350 C 115.004 247.111,114.829 247.896,114.836 233.548 C 114.842 218.775,115.076 219.696,111.248 219.435 L 108.657 219.258 108.551 217.814 C 108.401 215.763,108.700 215.647,114.841 215.363 C 117.853 215.224,120.384 215.050,120.465 214.976 C 120.684 214.775,120.828 214.805,121.578 215.207 M166.923 216.460 C 167.768 218.662,166.964 219.704,164.300 219.855 C 161.407 220.019,161.303 219.626,168.738 236.521 C 170.161 239.753,170.483 240.253,170.793 239.701 C 171.664 238.150,178.092 222.387,178.092 221.804 C 178.092 220.680,177.135 220.059,175.064 219.836 L 172.968 219.611 172.968 217.845 L 172.968 216.078 180.389 216.078 L 187.809 216.078 187.809 217.833 L 187.809 219.589 186.364 219.875 C 183.912 220.360,183.392 221.257,177.185 235.726 C 167.310 258.743,166.140 261.023,162.565 264.206 C 156.194 269.880,145.765 266.562,147.675 259.469 C 149.174 253.902,156.906 255.433,156.474 261.211 C 156.153 265.487,161.339 260.787,164.807 253.660 C 166.600 249.974,166.590 250.331,165.000 246.730 C 164.593 245.808,164.052 244.576,163.798 243.993 C 152.955 219.091,153.590 220.262,150.707 219.855 L 148.940 219.606 148.833 217.753 L 148.726 215.901 157.718 215.901 C 165.590 215.901,166.736 215.971,166.923 216.460 M88.432 218.718 C 79.972 220.728,79.508 245.268,87.874 248.251 C 93.760 250.350,98.332 246.725,99.274 239.212 C 101.104 224.618,96.917 216.704,88.432 218.718 M296.745 218.605 C 292.553 219.336,290.636 224.033,290.636 233.569 C 290.636 244.805,292.708 248.547,298.940 248.566 C 305.472 248.587,307.829 244.610,307.829 233.569 C 307.829 221.746,304.501 217.253,296.745 218.605 M334.015 218.698 C 329.511 219.849,327.751 224.020,327.744 233.569 C 327.735 244.485,330.248 248.806,336.572 248.746 C 342.479 248.689,344.967 244.377,345.023 234.099 C 345.088 221.977,341.396 216.812,334.015 218.698 M217.903 224.971 C 217.152 225.722,217.669 245.897,218.453 246.446 C 221.005 248.234,233.497 246.845,236.191 244.474 C 241.702 239.623,239.753 228.693,232.922 226.135 C 230.054 225.062,218.693 224.181,217.903 224.971 M57.222 275.062 C 57.452 275.339,57.591 276.254,57.530 277.094 L 57.420 278.622 54.276 278.861 C 49.199 279.248,49.647 277.381,49.647 298.155 C 49.647 317.465,49.689 317.903,51.852 321.124 C 54.246 324.689,57.385 325.919,64.134 325.936 C 71.558 325.955,75.216 324.097,77.505 319.143 C 78.445 317.110,78.897 283.006,78.007 281.306 C 77.158 279.686,75.917 279.106,72.851 278.895 L 69.978 278.699 69.750 277.485 C 69.625 276.817,69.699 275.883,69.915 275.409 L 70.308 274.548 80.634 274.641 L 90.961 274.735 91.219 275.972 C 91.719 278.368,91.429 278.677,88.467 278.901 C 83.009 279.313,83.256 278.417,83.014 298.763 C 82.766 319.706,82.325 322.000,77.728 326.301 C 70.411 333.145,51.592 332.640,45.105 325.425 C 41.057 320.923,40.904 319.973,40.730 298.353 C 40.559 277.053,41.069 279.089,35.846 278.860 L 32.509 278.714 32.509 276.872 C 32.509 275.859,32.615 274.923,32.744 274.794 C 33.267 274.271,56.780 274.529,57.222 275.062 M141.902 275.126 C 146.287 277.207,144.869 284.108,140.059 284.094 C 137.927 284.087,136.826 283.550,135.788 282.010 C 133.081 277.993,137.488 273.031,141.902 275.126 M293.363 275.117 C 294.864 275.841,295.790 277.112,296.010 278.751 C 296.710 283.969,289.510 286.280,287.095 281.612 C 284.981 277.523,289.226 273.125,293.363 275.117 M313.781 286.749 L 313.958 294.170 319.188 294.268 L 324.418 294.365 324.311 296.211 L 324.205 298.057 318.919 298.155 C 315.234 298.223,313.551 298.384,313.359 298.685 C 312.962 299.310,313.015 319.225,313.420 321.699 C 313.904 324.656,314.732 325.442,317.364 325.442 C 320.890 325.442,322.415 323.332,323.175 317.403 L 323.413 315.548 324.950 315.548 C 326.870 315.548,327.110 316.200,326.551 319.888 C 325.392 327.530,321.740 330.919,314.664 330.919 C 306.378 330.919,305.654 329.294,305.654 310.717 L 305.654 298.262 302.739 298.159 L 299.823 298.057 299.716 296.397 L 299.609 294.737 301.130 294.336 C 305.722 293.125,308.781 288.837,309.385 282.763 C 309.761 278.978,309.677 279.102,311.760 279.222 L 313.604 279.329 313.781 286.749 M204.450 293.267 C 212.485 294.191,217.406 299.969,217.922 309.084 L 218.127 312.711 205.972 312.804 L 193.816 312.898 193.836 315.371 C 193.887 321.626,197.055 325.640,202.270 326.059 C 207.478 326.477,210.431 324.780,214.533 319.012 C 215.171 318.116,217.428 318.753,217.892 319.960 C 218.465 321.454,213.413 327.374,210.163 329.017 C 197.751 335.290,185.137 326.681,185.164 311.955 C 185.184 301.114,191.092 294.139,201.237 292.979 C 201.431 292.956,202.877 293.086,204.450 293.267 M99.926 296.369 L 100.028 299.274 101.807 297.486 C 107.728 291.534,117.688 291.950,121.773 298.321 C 123.385 300.834,123.664 303.195,123.670 314.374 C 123.676 326.196,123.571 325.791,126.615 325.800 C 129.075 325.808,129.398 326.069,129.263 327.950 L 129.152 329.505 119.788 329.505 L 110.424 329.505 110.313 327.950 C 110.179 326.075,110.503 325.808,112.918 325.800 C 116.160 325.791,116.061 326.094,116.193 315.748 C 116.379 301.114,115.469 298.793,109.541 298.798 C 102.299 298.804,100.594 301.898,100.417 315.353 C 100.274 326.231,100.151 325.791,103.336 325.800 C 105.752 325.808,106.076 326.075,105.942 327.950 L 105.830 329.505 96.466 329.505 L 87.102 329.505 86.991 327.950 C 86.858 326.088,87.186 325.808,89.511 325.800 C 92.813 325.790,92.580 326.838,92.580 312.045 C 92.580 297.034,92.871 298.159,88.905 297.880 L 86.396 297.703 86.287 296.203 C 86.194 294.919,86.296 294.653,86.994 294.357 C 87.832 294.001,95.887 293.339,98.410 293.418 L 99.823 293.463 99.926 296.369 M143.602 293.845 C 143.720 294.153,143.819 301.189,143.822 309.481 C 143.828 326.606,143.630 325.555,146.895 325.795 L 149.293 325.972 149.400 327.827 L 149.507 329.682 139.753 329.682 L 129.998 329.682 130.105 327.827 L 130.212 325.972 132.787 325.795 C 136.236 325.558,136.031 326.438,136.037 311.865 C 136.043 296.996,136.267 297.880,132.492 297.880 C 129.907 297.880,129.682 297.707,129.682 295.723 C 129.682 294.293,130.404 294.056,135.866 293.693 C 143.088 293.214,143.361 293.219,143.602 293.845 M232.155 297.173 C 232.155 301.497,232.313 301.764,233.522 299.486 C 237.854 291.321,248.696 290.898,249.992 298.844 C 250.640 302.813,247.360 305.752,243.652 304.527 C 241.504 303.816,240.520 302.135,240.745 299.558 C 240.943 297.291,240.974 297.333,239.620 298.034 C 234.819 300.516,232.195 308.960,232.562 320.743 C 232.712 325.547,232.726 325.565,236.500 325.795 L 239.399 325.972 239.506 327.832 L 239.613 329.693 229.436 329.599 L 219.258 329.505 219.147 328.156 C 218.988 326.232,219.503 325.795,221.926 325.795 C 225.275 325.795,225.089 326.612,225.083 311.901 C 225.077 297.119,225.340 298.144,221.488 297.894 L 218.551 297.703 218.445 296.067 C 218.316 294.076,218.227 294.110,224.398 293.780 C 226.818 293.651,228.865 293.487,228.946 293.416 C 229.027 293.344,229.782 293.286,230.624 293.286 L 232.155 293.286 232.155 297.173 M270.182 294.606 L 272.342 295.721 273.440 294.481 C 274.343 293.461,274.745 293.260,275.697 293.351 L 276.855 293.463 276.855 300.000 L 276.855 306.537 275.657 306.537 C 274.954 306.537,274.341 306.318,274.174 306.007 C 274.017 305.716,273.478 304.619,272.975 303.570 C 269.652 296.633,260.742 294.217,257.585 299.396 C 255.380 303.012,257.486 305.555,263.781 306.880 C 276.094 309.474,278.932 311.364,279.697 317.486 C 281.047 328.292,268.863 335.010,258.917 328.942 C 256.826 327.667,256.883 327.663,255.907 329.169 C 254.950 330.646,253.754 331.272,252.493 330.955 L 251.576 330.725 251.672 323.048 L 251.767 315.371 252.598 315.253 C 254.272 315.016,254.986 315.463,255.459 317.042 C 257.848 325.026,265.206 329.217,271.315 326.074 C 277.048 323.124,275.333 317.616,268.198 316.063 C 266.935 315.788,265.106 315.388,264.134 315.174 C 257.352 313.678,253.632 311.309,252.668 307.872 C 250.910 301.605,252.785 296.554,257.774 294.119 C 260.561 292.758,267.099 293.015,270.182 294.606 M295.192 293.845 C 295.310 294.153,295.406 301.299,295.406 309.725 C 295.406 321.594,295.506 325.111,295.848 325.333 C 296.091 325.490,297.323 325.698,298.587 325.795 L 300.883 325.972 300.990 327.827 L 301.097 329.682 291.343 329.682 L 281.589 329.682 281.695 327.827 L 281.802 325.972 284.377 325.795 C 287.825 325.559,287.621 326.424,287.627 311.993 C 287.633 297.220,287.868 298.141,284.040 297.880 L 281.449 297.703 281.340 296.203 C 281.199 294.248,281.563 294.099,287.456 293.700 C 294.666 293.213,294.951 293.218,295.192 293.845 M165.018 296.075 C 165.018 297.976,164.745 298.233,162.735 298.233 C 160.949 298.233,160.537 298.980,161.213 300.993 C 161.772 302.655,168.089 317.263,168.788 318.508 C 169.299 319.419,168.766 320.593,174.338 306.272 C 176.838 299.848,176.673 298.233,173.516 298.233 C 171.847 298.233,171.300 297.611,171.444 295.873 L 171.555 294.523 179.082 294.428 L 186.610 294.332 186.503 296.190 L 186.396 298.048 184.990 298.275 C 183.354 298.539,180.974 300.879,180.319 302.868 C 180.103 303.526,178.781 306.846,177.382 310.247 C 175.983 313.648,174.069 318.339,173.129 320.671 C 168.829 331.338,168.961 331.095,167.456 331.095 C 166.033 331.095,165.754 330.527,155.585 306.890 C 152.247 299.131,151.637 298.233,149.699 298.233 C 147.998 298.233,147.703 297.915,147.703 296.075 L 147.703 294.346 156.360 294.346 L 165.018 294.346 165.018 296.075 M344.452 295.967 C 344.586 297.789,344.144 298.161,341.685 298.300 C 340.065 298.392,339.737 298.524,339.654 299.117 C 339.578 299.666,347.323 318.112,347.853 318.642 C 348.128 318.917,355.477 301.096,355.477 300.154 C 355.477 299.114,354.120 298.233,352.517 298.233 C 350.634 298.233,350.094 297.673,350.242 295.873 L 350.353 294.523 357.862 294.428 L 365.371 294.332 365.371 296.068 C 365.371 297.864,365.064 298.233,363.570 298.233 C 361.844 298.233,360.538 300.299,356.866 308.834 C 344.472 337.641,344.309 337.980,341.188 341.305 C 334.913 347.990,323.465 345.928,324.883 338.368 C 325.966 332.594,334.595 333.601,333.799 339.409 C 333.077 344.675,340.043 337.875,343.040 330.389 L 343.818 328.445 339.382 318.198 C 336.942 312.562,334.206 306.221,333.301 304.107 C 331.414 299.695,330.206 298.233,328.447 298.233 C 326.418 298.233,326.148 297.979,326.148 296.069 L 326.148 294.334 335.247 294.429 L 344.346 294.523 344.452 295.967 M198.763 297.407 C 195.794 298.972,193.640 303.493,193.640 308.158 C 193.640 309.090,208.428 309.219,209.195 308.295 C 210.227 307.051,209.114 301.349,207.419 299.195 C 205.681 296.985,201.285 296.077,198.763 297.407 " stroke="none" fill="#f4f3f3" fill-rule="evenodd"></path><path id="path2" d="M186.749 20.317 C 169.860 21.939,154.695 26.101,141.326 32.783 L 136.572 35.159 136.466 64.134 C 136.354 94.454,136.545 100.371,137.839 106.706 C 142.228 128.187,155.183 146.887,174.481 159.596 C 180.457 163.532,194.511 169.566,198.778 170.028 L 199.823 170.141 199.912 94.965 L 200.002 19.788 195.672 19.832 C 193.291 19.856,189.276 20.074,186.749 20.317 M204.947 21.943 C 204.947 23.129,205.183 27.382,205.472 31.396 C 205.760 35.409,206.321 43.940,206.718 50.353 C 207.115 56.767,207.749 66.864,208.127 72.792 C 208.505 78.719,209.140 88.737,209.539 95.053 C 210.740 114.085,211.612 127.608,212.726 144.523 C 213.309 153.366,213.787 161.475,213.789 162.544 C 213.794 165.816,213.910 165.839,218.540 163.472 C 220.774 162.330,222.795 161.162,223.032 160.877 C 223.477 160.341,223.427 159.726,221.531 142.403 C 221.159 139.002,220.535 133.277,220.145 129.682 C 219.755 126.087,219.124 120.283,218.742 116.784 C 218.360 113.286,217.482 105.177,216.791 98.763 C 216.099 92.350,215.304 85.115,215.025 82.686 C 214.745 80.256,214.419 77.235,214.302 75.972 C 214.184 74.708,213.865 71.767,213.593 69.435 C 213.321 67.102,212.769 62.014,212.367 58.127 C 211.964 54.240,211.406 49.072,211.127 46.643 C 210.510 41.273,209.344 30.494,208.835 25.442 C 208.244 19.573,208.332 19.788,206.509 19.788 L 204.947 19.788 204.947 21.943 M213.075 20.406 C 213.077 20.810,217.382 46.385,220.288 63.251 C 220.774 66.069,221.965 73.065,222.936 78.799 C 223.906 84.532,225.339 92.959,226.120 97.527 C 227.575 106.033,228.624 112.200,231.980 131.979 C 235.125 150.516,235.262 151.281,235.471 151.490 C 235.766 151.785,239.291 148.679,241.209 146.434 L 242.872 144.488 241.370 137.527 C 240.545 133.698,239.155 127.306,238.282 123.322 C 237.409 119.337,236.473 114.965,236.202 113.604 C 235.930 112.244,234.983 107.792,234.096 103.710 C 233.210 99.629,231.700 92.633,230.741 88.163 C 229.782 83.693,228.668 78.525,228.265 76.678 C 227.862 74.832,226.749 69.664,225.791 65.194 C 224.834 60.724,223.720 55.557,223.317 53.710 C 222.914 51.864,222.040 47.809,221.375 44.700 C 220.711 41.590,219.837 37.535,219.435 35.689 C 219.032 33.843,218.148 29.715,217.470 26.517 C 216.792 23.319,216.042 20.579,215.804 20.427 C 215.248 20.074,213.074 20.058,213.075 20.406 M221.204 21.643 C 221.205 21.886,221.696 23.834,222.294 25.972 C 223.286 29.514,227.094 43.324,231.989 61.131 C 233.031 64.920,234.783 71.281,235.882 75.265 C 236.982 79.249,238.006 82.986,238.158 83.569 C 238.310 84.152,239.421 88.207,240.626 92.580 C 241.832 96.952,243.583 103.313,244.517 106.714 C 245.452 110.115,246.964 115.601,247.876 118.905 C 250.476 128.317,250.583 128.706,251.028 130.365 C 251.731 132.988,251.754 132.968,254.949 127.009 C 256.828 123.504,256.821 123.605,255.507 119.584 C 254.940 117.850,253.419 113.092,252.126 109.011 C 250.833 104.929,249.557 100.954,249.292 100.177 C 249.026 99.399,248.257 97.014,247.582 94.876 C 246.907 92.739,245.306 87.690,244.025 83.657 C 242.744 79.625,240.650 73.026,239.372 68.993 C 238.093 64.960,236.830 61.025,236.564 60.247 C 236.298 59.470,234.952 55.256,233.573 50.883 C 232.194 46.511,230.844 42.297,230.574 41.519 C 230.303 40.742,228.779 35.972,227.187 30.919 C 225.594 25.866,224.113 21.615,223.895 21.472 C 223.226 21.034,221.201 21.163,221.204 21.643 M229.437 23.233 C 229.543 23.573,230.504 26.157,231.575 28.975 C 234.168 35.804,243.551 60.638,246.795 69.258 C 251.424 81.561,257.633 97.983,258.817 101.060 C 259.453 102.712,260.260 104.859,260.611 105.830 C 260.961 106.802,261.364 107.732,261.506 107.896 C 261.875 108.323,262.519 105.063,262.974 100.465 L 263.366 96.512 261.321 91.631 C 256.340 79.738,252.477 70.544,250.881 66.784 C 249.413 63.327,245.490 54.002,236.686 33.039 C 232.548 23.187,232.478 23.043,231.686 22.830 C 230.130 22.413,229.233 22.573,229.437 23.233 M238.163 25.052 C 238.163 25.379,239.976 29.259,245.097 39.888 C 246.725 43.267,248.057 46.071,248.057 46.119 C 248.057 46.167,249.697 49.604,251.703 53.757 C 253.708 57.910,257.087 64.958,259.212 69.421 L 263.074 77.534 263.290 68.714 C 263.409 63.863,263.528 54.366,263.555 47.610 L 263.604 35.325 262.456 34.617 C 255.601 30.393,238.163 23.526,238.163 25.052 M170.957 71.643 C 171.356 72.761,172.114 75.027,172.643 76.678 C 173.841 80.424,173.400 80.200,179.594 80.207 C 182.460 80.210,184.806 80.354,184.806 80.527 C 184.806 80.701,182.898 82.222,180.565 83.908 C 175.674 87.443,175.872 86.848,177.739 92.403 C 179.946 98.975,180.010 98.932,174.282 94.725 C 169.633 91.310,170.219 91.356,166.472 94.111 C 159.738 99.061,159.929 99.137,162.191 92.403 C 164.056 86.850,164.254 87.446,159.364 83.879 C 157.032 82.177,155.124 80.656,155.124 80.498 C 155.124 80.341,157.310 80.210,159.982 80.207 C 166.735 80.200,166.051 80.671,167.988 74.707 C 169.861 68.943,169.958 68.843,170.957 71.643 M32.862 276.821 L 32.862 278.377 36.210 278.499 C 39.130 278.606,39.660 278.725,40.362 279.426 L 41.166 280.231 41.343 298.861 C 41.555 321.222,41.649 321.732,46.328 325.939 C 53.287 332.195,70.537 332.260,77.269 326.055 C 81.829 321.852,82.073 320.580,82.311 299.823 C 82.555 278.444,82.402 278.987,88.339 278.469 L 90.636 278.269 90.745 276.767 L 90.853 275.265 80.586 275.265 L 70.318 275.265 70.318 276.810 L 70.318 278.354 73.115 278.516 C 79.044 278.860,78.950 278.566,79.082 297.157 C 79.226 317.469,78.846 319.940,75.067 323.266 C 70.097 327.641,57.868 327.605,53.091 323.201 C 49.335 319.740,49.128 318.424,49.122 297.991 C 49.115 277.723,48.920 278.445,54.399 278.445 L 56.890 278.445 56.890 276.855 L 56.890 275.265 44.876 275.265 L 32.862 275.265 32.862 276.821 M137.037 275.995 C 134.268 278.063,135.305 282.750,138.722 283.608 C 143.192 284.730,146.123 278.620,142.390 275.963 C 141.062 275.017,138.326 275.034,137.037 275.995 M288.638 276.062 C 286.566 277.813,286.320 280.204,288.013 282.132 C 291.330 285.910,297.359 282.099,295.215 277.581 C 294.109 275.249,290.566 274.431,288.638 276.062 M310.117 280.300 C 310.000 280.738,309.901 281.629,309.899 282.281 C 309.877 287.691,306.248 293.287,301.951 294.536 C 299.965 295.113,299.961 295.117,300.069 296.409 L 300.177 297.703 303.060 297.805 L 305.943 297.907 306.072 311.410 L 306.201 324.912 307.076 326.676 C 308.644 329.839,312.100 331.182,316.710 330.420 C 322.631 329.442,325.686 325.732,326.067 319.054 L 326.246 315.901 325.039 315.901 L 323.831 315.901 323.374 318.816 C 322.567 323.975,320.860 325.972,317.260 325.972 C 312.908 325.972,312.605 324.752,312.789 307.951 L 312.898 298.057 318.375 297.880 L 323.852 297.703 323.852 296.290 L 323.852 294.876 318.928 294.778 C 312.557 294.650,313.074 295.363,313.074 286.706 L 313.074 279.505 311.702 279.505 C 310.578 279.505,310.291 279.649,310.117 280.300 M198.706 293.802 C 187.421 295.881,181.921 310.662,188.081 322.361 C 193.921 333.454,210.899 333.045,216.907 321.666 C 218.148 319.316,215.710 317.925,214.291 320.173 C 209.100 328.396,197.801 328.800,194.396 320.885 C 193.503 318.810,192.756 314.533,193.069 313.288 L 193.297 312.377 205.394 312.284 L 217.491 312.191 217.596 310.392 C 218.225 299.600,209.383 291.835,198.706 293.802 M109.312 293.994 C 106.692 294.378,104.378 295.644,102.029 297.981 C 99.526 300.472,99.293 300.369,99.293 296.762 L 99.293 293.919 94.081 294.153 C 86.886 294.475,86.925 294.464,86.929 296.053 L 86.931 297.350 89.260 297.394 C 93.285 297.470,93.090 296.808,93.216 310.875 C 93.354 326.335,93.394 326.148,89.947 326.148 C 87.813 326.148,87.168 326.646,87.342 328.159 L 87.456 329.152 96.378 329.246 L 105.300 329.341 105.300 327.928 C 105.300 326.359,105.097 326.240,102.128 326.065 C 99.770 325.926,99.657 325.516,99.659 317.138 C 99.663 302.472,101.740 298.478,109.389 298.428 C 115.891 298.386,116.431 299.587,116.431 314.074 C 116.431 326.634,116.549 326.148,113.513 326.148 C 110.994 326.148,110.131 326.987,110.815 328.770 C 111.003 329.259,112.131 329.329,119.826 329.329 L 128.622 329.329 128.622 327.953 C 128.622 326.391,128.279 326.151,126.031 326.143 C 123.062 326.132,122.968 325.721,122.968 312.648 C 122.968 298.154,121.866 295.628,114.900 294.151 C 112.336 293.608,112.013 293.599,109.312 293.994 M238.939 294.554 C 236.735 295.653,234.942 297.636,233.457 300.618 C 231.944 303.657,231.802 303.465,231.802 298.378 L 231.802 293.930 225.883 294.182 C 219.143 294.469,218.640 294.614,218.796 296.225 L 218.905 297.350 221.632 297.527 C 225.924 297.805,225.618 296.690,225.618 312.055 C 225.618 327.111,225.851 326.148,222.206 326.148 C 219.938 326.148,219.174 326.828,219.588 328.478 L 219.801 329.329 229.512 329.329 L 239.223 329.329 239.223 327.956 C 239.223 326.342,238.842 326.161,235.432 326.153 C 232.062 326.146,232.036 326.071,232.247 317.050 C 232.514 305.694,234.850 299.669,239.845 297.452 C 241.736 296.612,242.225 296.869,241.479 298.311 C 239.862 301.439,242.892 305.215,246.247 304.252 C 248.872 303.500,249.654 302.220,249.395 299.100 C 249.007 294.416,243.778 292.143,238.939 294.554 M258.950 294.118 C 254.639 295.463,251.837 300.238,252.492 305.123 C 253.276 310.973,256.558 313.244,267.314 315.377 C 274.157 316.735,276.565 319.854,274.111 324.184 C 270.064 331.325,257.935 326.998,255.102 317.403 C 254.680 315.974,254.593 315.901,253.301 315.901 L 251.943 315.901 251.943 323.145 L 251.943 330.389 253.138 330.389 C 254.124 330.389,254.558 330.113,255.629 328.806 L 256.926 327.222 258.325 328.105 C 266.396 333.200,276.944 330.346,278.811 322.562 C 280.866 313.997,277.506 310.273,265.423 307.725 C 257.919 306.143,256.535 305.204,256.538 301.696 C 256.546 293.545,269.258 294.751,273.351 303.292 C 274.018 304.684,274.841 305.922,275.180 306.043 C 276.585 306.545,276.678 306.166,276.678 299.962 L 276.678 293.993 275.530 293.990 C 274.661 293.987,274.152 294.266,273.436 295.137 L 272.491 296.287 270.609 295.347 C 267.165 293.626,262.204 293.103,258.950 294.118 M134.276 294.362 C 129.861 294.661,130.389 294.454,130.389 295.885 L 130.389 297.071 132.757 297.292 C 136.811 297.671,136.572 296.764,136.572 311.810 C 136.572 326.581,136.663 326.144,133.602 326.153 C 130.807 326.162,130.389 326.396,130.389 327.956 L 130.389 329.329 139.753 329.329 L 149.117 329.329 149.117 327.953 C 149.117 326.368,148.785 326.151,146.349 326.143 C 143.016 326.132,143.110 326.623,143.110 309.034 L 143.110 293.993 140.548 294.052 C 139.139 294.085,136.316 294.224,134.276 294.362 M285.866 294.362 C 283.825 294.500,282.116 294.633,282.067 294.656 C 282.019 294.680,281.979 295.256,281.979 295.936 L 281.979 297.173 283.657 297.174 C 288.296 297.175,288.402 297.534,288.268 312.712 C 288.145 326.597,288.256 326.148,284.956 326.148 C 282.299 326.148,281.979 326.342,281.979 327.953 L 281.979 329.329 291.343 329.329 L 300.707 329.329 300.707 327.953 C 300.707 326.364,300.374 326.148,297.918 326.148 C 294.677 326.148,294.890 327.273,294.777 309.569 L 294.678 293.993 292.127 294.052 C 290.724 294.085,287.906 294.224,285.866 294.362 M148.057 296.113 C 148.057 297.341,148.161 297.528,148.852 297.534 C 151.343 297.559,152.457 298.648,154.278 302.844 C 155.229 305.035,158.314 312.089,161.133 318.520 L 166.259 330.212 167.475 330.212 C 168.901 330.212,168.298 331.456,175.439 313.781 C 181.408 299.010,181.534 298.793,184.717 297.857 C 186.149 297.435,186.219 297.351,186.219 296.050 L 186.219 294.685 179.064 294.781 L 171.908 294.876 171.801 296.152 C 171.696 297.407,171.720 297.432,173.184 297.628 C 175.149 297.892,176.473 298.904,176.609 300.247 C 176.709 301.243,170.374 318.565,169.485 319.727 C 169.019 320.335,168.676 319.660,164.229 309.374 C 159.319 298.020,159.339 298.193,162.926 297.699 L 164.664 297.460 164.664 296.080 L 164.664 294.700 156.360 294.700 L 148.057 294.700 148.057 296.113 M326.639 295.204 C 326.140 296.505,326.658 297.302,328.271 297.711 C 331.596 298.556,330.613 296.889,338.567 315.177 C 345.016 330.003,344.599 328.236,342.612 332.321 C 339.828 338.045,336.891 341.365,334.520 341.470 L 333.392 341.519 333.392 339.145 C 333.392 335.914,332.682 335.159,329.643 335.159 C 326.696 335.159,325.442 336.443,325.442 339.460 C 325.442 345.978,335.045 347.023,340.689 341.118 C 343.906 337.752,344.037 337.492,353.006 316.608 C 360.274 299.684,360.817 298.707,363.390 297.908 C 364.998 297.408,365.049 297.351,364.947 296.134 L 364.841 294.876 357.862 294.781 L 350.883 294.685 350.883 296.035 L 350.883 297.385 352.998 297.822 C 356.785 298.604,356.759 299.032,352.267 309.720 C 350.307 314.383,348.617 318.483,348.512 318.831 C 348.108 320.162,347.406 318.928,343.510 310.043 C 338.238 298.022,338.195 297.527,342.426 297.527 C 343.812 297.527,343.816 297.523,343.816 296.113 L 343.816 294.700 335.325 294.700 C 328.295 294.700,326.800 294.786,326.639 295.204 M205.722 297.216 C 208.257 298.493,209.859 301.764,209.982 305.912 C 210.090 309.564,210.059 309.576,200.924 309.459 L 193.463 309.364 193.348 308.160 C 192.556 299.862,199.239 293.952,205.722 297.216 " stroke="none" fill="#9a0a0a" fill-rule="evenodd"></path><path id="path3" d="M208.563 81.272 C 208.563 81.952,208.635 82.231,208.724 81.890 C 208.813 81.550,208.813 80.994,208.724 80.654 C 208.635 80.314,208.563 80.592,208.563 81.272 M16.193 195.710 C 9.138 197.678,5.595 202.416,5.358 210.199 C 5.106 218.484,8.104 222.321,17.314 225.503 C 20.398 226.568,29.709 229.025,30.129 228.885 C 30.339 228.815,28.250 228.162,25.487 227.434 C 9.579 223.244,6.067 220.427,5.723 211.586 C 5.276 200.052,13.369 193.810,26.148 195.835 C 27.461 196.043,27.585 196.020,26.855 195.702 C 25.194 194.978,18.801 194.983,16.193 195.710 M357.597 195.589 C 354.973 195.831,352.778 196.047,352.718 196.070 C 352.658 196.094,352.658 196.789,352.718 197.615 L 352.827 199.117 355.460 199.352 C 359.341 199.698,359.011 197.448,359.011 223.541 C 359.011 249.431,359.287 247.350,355.848 247.350 C 353.425 247.350,352.911 247.787,353.069 249.710 L 353.180 251.060 362.721 251.060 L 372.261 251.060 372.377 250.046 C 372.644 247.713,372.297 247.350,369.801 247.350 C 366.622 247.350,366.431 247.018,366.431 241.486 L 366.431 237.192 368.400 235.469 C 369.484 234.521,370.493 233.701,370.643 233.646 C 370.893 233.555,378.790 244.045,379.741 245.733 C 380.371 246.850,379.695 247.350,377.556 247.350 C 375.556 247.350,375.260 247.617,375.270 249.411 C 375.281 251.283,375.117 251.255,385.537 251.154 L 395.230 251.060 395.346 250.046 C 395.566 248.116,395.156 247.350,393.898 247.346 C 390.767 247.337,389.661 246.318,382.726 237.062 L 376.271 228.445 378.860 226.051 C 383.947 221.345,386.301 219.929,389.748 219.498 L 391.696 219.255 391.696 217.666 L 391.696 216.078 381.979 216.078 L 372.261 216.078 372.261 217.668 L 372.261 219.258 374.984 219.435 C 378.528 219.665,378.871 220.021,377.263 221.802 C 375.830 223.388,367.260 231.213,366.762 231.390 C 366.559 231.462,366.431 224.467,366.431 213.280 L 366.431 195.053 364.399 195.102 C 363.282 195.129,360.221 195.348,357.597 195.589 M366.078 213.583 C 366.078 224.460,366.210 231.842,366.408 231.964 C 366.928 232.286,378.799 221.326,378.799 220.525 C 378.799 219.566,377.612 219.081,375.264 219.081 C 372.660 219.081,372.087 218.623,372.615 216.961 C 372.832 216.278,373.149 216.254,382.179 216.254 L 391.519 216.254 391.519 217.668 C 391.519 219.065,391.504 219.081,390.194 219.083 C 388.167 219.086,386.521 219.661,384.238 221.164 C 382.272 222.458,376.289 227.686,376.027 228.340 C 375.857 228.766,387.807 244.646,389.255 245.917 C 390.350 246.879,391.482 247.337,394.081 247.871 C 394.946 248.048,395.053 248.226,395.053 249.482 L 395.053 250.895 385.424 250.801 L 375.795 250.707 375.681 249.507 C 375.543 248.070,375.987 247.716,377.936 247.709 C 381.621 247.695,381.499 247.250,375.618 239.249 C 370.588 232.405,370.843 232.542,368.120 235.236 L 366.078 237.257 366.078 241.773 C 366.078 247.237,366.333 247.700,369.346 247.709 C 371.727 247.716,372.166 248.010,372.023 249.507 L 371.908 250.707 362.789 250.801 L 353.669 250.895 353.778 249.388 L 353.887 247.880 356.001 247.771 C 359.679 247.583,359.364 249.840,359.364 223.659 C 359.364 196.956,359.720 199.240,355.520 199.002 L 353.004 198.860 353.004 197.652 C 353.004 196.988,353.202 196.376,353.445 196.293 C 353.883 196.143,361.684 195.558,364.576 195.458 L 366.078 195.406 366.078 213.583 M38.320 196.021 C 38.115 196.169,37.415 197.119,36.766 198.134 C 36.088 199.192,35.419 199.880,35.195 199.749 C 34.981 199.623,34.327 199.162,33.743 198.723 C 32.428 197.738,28.984 196.113,28.269 196.140 C 27.977 196.152,28.136 196.333,28.622 196.543 C 30.716 197.448,33.118 198.746,34.132 199.519 C 35.621 200.655,35.680 200.630,37.225 198.207 C 38.521 196.174,38.645 196.080,39.875 196.182 L 41.166 196.290 41.392 200.883 C 41.516 203.410,41.700 207.751,41.801 210.531 L 41.984 215.585 40.582 215.478 L 39.180 215.371 38.291 212.721 C 36.390 207.059,32.650 202.166,28.891 200.423 C 26.386 199.262,25.993 199.504,28.449 200.695 C 32.983 202.895,36.805 208.133,38.519 214.498 C 38.930 216.026,39.872 216.523,41.554 216.101 L 42.471 215.870 42.216 209.790 C 42.076 206.446,41.862 201.961,41.740 199.823 L 41.519 195.936 40.106 195.844 C 39.329 195.793,38.525 195.873,38.320 196.021 M201.060 198.372 C 201.060 200.656,201.145 200.707,204.956 200.707 C 209.195 200.707,208.834 198.545,208.834 223.930 C 208.834 249.243,209.227 246.996,204.799 246.996 C 201.155 246.996,201.060 247.056,201.060 249.352 L 201.060 251.279 218.286 251.158 C 237.398 251.023,237.653 250.993,242.237 248.394 C 245.594 246.491,248.798 242.148,248.744 239.576 C 248.732 239.001,248.507 239.371,248.101 240.636 C 245.305 249.336,240.697 250.864,217.226 250.876 L 201.413 250.883 201.413 249.338 L 201.413 247.792 204.472 247.631 C 207.266 247.485,207.601 247.388,208.358 246.507 L 209.187 245.544 209.187 224.025 C 209.187 198.265,209.574 200.000,203.834 200.000 L 201.413 200.000 201.413 198.391 L 201.413 196.782 218.463 196.900 C 237.261 197.029,237.093 197.010,240.938 199.438 C 246.806 203.142,247.696 212.812,242.632 217.844 C 240.577 219.886,239.692 220.394,235.552 221.908 C 234.238 222.388,234.373 222.491,237.433 223.339 C 243.055 224.897,246.413 227.515,247.889 231.490 C 248.350 232.731,248.733 233.428,248.741 233.039 C 248.823 229.203,243.197 224.165,237.456 222.933 L 235.512 222.516 238.106 221.335 C 245.378 218.024,248.378 210.634,245.188 203.887 C 242.026 197.199,239.328 196.479,217.403 196.472 L 201.060 196.466 201.060 198.372 M18.958 198.945 C 18.016 199.110,17.195 199.295,17.133 199.357 C 17.071 199.419,19.064 199.470,21.563 199.470 C 26.150 199.470,26.693 199.190,22.792 198.837 C 21.625 198.732,19.901 198.780,18.958 198.945 M15.371 200.057 C 11.992 201.918,10.103 206.895,11.356 210.636 C 12.636 214.460,14.519 215.449,26.148 218.405 C 38.498 221.544,42.748 224.627,44.124 231.449 C 44.779 234.694,44.859 234.885,44.717 232.862 C 44.173 225.123,39.380 221.293,26.148 218.024 C 15.497 215.393,12.622 213.851,11.659 210.250 C 10.796 207.026,12.094 202.724,14.378 201.237 C 14.974 200.848,15.760 200.341,16.123 200.109 C 16.958 199.578,16.321 199.534,15.371 200.057 M218.473 200.342 C 217.334 200.827,217.283 201.364,217.392 211.661 L 217.491 221.025 223.322 221.025 C 233.963 221.025,237.208 218.632,237.219 210.777 C 237.226 205.439,235.750 202.572,232.158 200.948 C 230.376 200.142,220.020 199.684,218.473 200.342 M55.468 201.260 C 55.279 201.758,55.147 202.752,55.177 203.468 C 55.224 204.631,55.244 204.656,55.362 203.710 C 55.680 201.163,55.753 201.060,57.244 201.060 L 58.643 201.060 58.739 208.569 L 58.834 216.078 64.134 216.254 L 69.435 216.431 69.544 217.744 C 69.680 219.387,69.598 219.411,63.251 219.525 L 58.481 219.611 58.481 231.979 C 58.481 245.779,58.537 246.170,60.683 247.189 C 65.133 249.300,69.060 244.961,69.251 237.721 C 69.255 237.575,69.837 237.456,70.545 237.456 L 71.831 237.456 71.641 240.371 C 71.073 249.107,64.625 254.082,56.812 251.811 C 52.076 250.434,51.836 249.571,51.603 233.039 L 51.413 219.611 48.587 219.435 L 45.760 219.258 45.652 217.964 C 45.544 216.670,45.545 216.669,47.563 216.082 C 51.223 215.018,54.394 210.794,54.953 206.237 C 55.092 205.110,54.968 205.328,54.416 207.181 C 52.900 212.276,50.882 214.705,47.339 215.699 L 45.193 216.301 45.300 217.956 L 45.406 219.611 48.299 219.714 L 51.191 219.816 51.302 233.318 C 51.446 250.823,51.897 251.949,58.993 252.544 C 66.616 253.183,70.849 249.363,72.070 240.743 C 72.538 237.437,72.392 237.102,70.473 237.102 C 68.970 237.102,68.932 237.131,68.731 238.428 C 67.689 245.158,66.605 246.885,63.203 247.231 C 58.993 247.661,58.662 246.517,58.659 231.537 L 58.657 219.788 64.128 219.788 C 70.219 219.788,70.212 219.791,69.904 217.092 L 69.788 216.078 64.488 215.901 L 59.187 215.724 59.092 208.320 C 58.988 200.299,59.006 200.368,56.970 200.359 C 56.051 200.354,55.742 200.540,55.468 201.260 M232.208 201.488 C 235.596 203.039,237.516 207.241,236.937 211.837 C 236.064 218.769,233.543 220.454,223.581 220.763 L 217.656 220.946 217.751 211.102 L 217.845 201.257 218.728 200.786 C 220.390 199.899,229.808 200.389,232.208 201.488 M88.163 214.806 C 87.577 214.936,88.762 215.041,90.813 215.041 C 92.864 215.041,94.049 214.936,93.463 214.806 C 92.880 214.677,91.687 214.571,90.813 214.571 C 89.938 214.571,88.746 214.677,88.163 214.806 M273.145 214.829 C 272.494 215.027,272.791 215.104,274.275 215.121 C 280.090 215.187,283.675 221.884,279.609 225.083 C 276.010 227.913,270.976 223.487,273.157 219.411 C 274.038 217.765,270.928 218.825,268.886 220.867 C 265.265 224.487,263.843 229.746,263.806 239.645 C 263.776 247.846,263.594 247.459,267.596 247.703 L 270.495 247.880 270.603 249.382 L 270.712 250.883 260.974 250.883 L 251.237 250.883 251.237 249.508 C 251.237 247.911,251.565 247.703,254.093 247.703 C 257.365 247.703,257.244 248.247,257.244 233.553 L 257.244 220.816 256.376 219.949 C 255.620 219.192,255.192 219.081,253.020 219.081 L 250.530 219.081 250.530 217.696 L 250.530 216.311 252.739 216.102 C 253.953 215.987,256.537 215.748,258.481 215.572 C 261.721 215.278,261.575 215.265,256.714 215.426 C 249.871 215.652,250.115 215.570,250.247 217.609 L 250.353 219.258 253.092 219.452 C 256.988 219.729,256.699 218.667,256.815 233.098 C 256.935 248.011,257.112 247.262,253.448 247.422 L 251.060 247.527 251.060 249.293 L 251.060 251.060 261.131 251.060 L 271.201 251.060 271.313 249.710 C 271.481 247.665,271.014 247.350,267.809 247.350 C 263.815 247.350,263.824 247.369,264.041 239.131 C 264.285 229.878,265.648 224.952,268.959 221.360 C 270.955 219.194,273.424 218.299,272.467 220.088 C 270.357 224.030,275.768 228.151,279.683 225.585 C 284.728 222.280,279.097 213.016,273.145 214.829 M296.643 214.800 C 296.059 214.926,297.156 215.030,299.083 215.031 C 301.008 215.033,302.201 214.927,301.733 214.796 C 300.666 214.497,298.036 214.499,296.643 214.800 M333.759 214.796 C 333.184 214.919,334.376 215.025,336.409 215.032 C 338.443 215.038,339.629 214.937,339.046 214.807 C 337.707 214.509,335.122 214.503,333.759 214.796 M83.138 216.429 C 79.165 218.417,73.948 224.852,74.637 226.914 C 74.724 227.173,75.068 226.565,75.401 225.563 C 76.842 221.227,80.588 217.564,85.294 215.890 C 86.309 215.528,86.774 215.235,86.355 215.220 C 85.944 215.206,84.496 215.750,83.138 216.429 M95.956 215.686 C 101.618 217.597,105.384 221.777,106.960 227.901 C 107.778 231.076,108.055 231.038,107.376 227.844 C 106.125 221.956,100.648 216.093,95.731 215.378 C 94.577 215.210,94.586 215.224,95.956 215.686 M112.472 215.521 C 108.769 215.752,108.389 215.982,108.545 217.886 L 108.657 219.258 111.166 219.435 C 115.132 219.714,114.841 218.593,114.841 233.569 C 114.841 248.317,115.085 247.258,111.647 247.419 L 109.364 247.527 109.364 249.293 L 109.364 251.060 118.622 251.154 L 127.881 251.248 128.107 250.043 C 128.493 247.985,127.872 247.350,125.473 247.350 C 122.487 247.350,122.461 247.292,122.315 240.253 C 122.041 227.132,123.541 222.511,128.651 220.722 C 129.509 220.421,129.904 220.167,129.529 220.158 C 128.348 220.129,125.838 221.566,124.738 222.900 C 122.471 225.650,122.092 227.767,122.088 237.702 C 122.084 247.896,121.943 247.441,125.194 247.703 L 127.385 247.880 127.494 249.388 L 127.603 250.896 118.660 250.801 L 109.717 250.707 109.603 249.507 C 109.460 248.013,109.899 247.716,112.254 247.709 C 115.350 247.699,115.194 248.454,115.194 233.410 C 115.194 218.213,115.489 219.361,111.520 219.081 L 109.011 218.905 108.901 217.580 C 108.804 216.406,108.885 216.251,109.608 216.223 C 110.057 216.206,112.730 215.990,115.548 215.742 C 120.839 215.277,118.766 215.128,112.472 215.521 M129.224 215.704 C 127.502 216.318,125.631 217.574,123.864 219.301 C 123.093 220.055,122.338 220.632,122.185 220.583 C 122.033 220.534,121.908 220.733,121.908 221.025 C 121.908 221.882,122.467 221.639,123.445 220.356 C 124.862 218.499,127.783 216.547,130.167 215.864 C 131.358 215.524,131.935 215.240,131.449 215.235 C 130.963 215.230,129.962 215.441,129.224 215.704 M137.481 215.648 C 144.329 217.621,145.277 219.962,145.497 235.435 C 145.677 248.148,145.572 247.703,148.406 247.703 C 150.907 247.703,151.237 247.914,151.237 249.508 L 151.237 250.883 142.226 250.883 L 133.216 250.883 133.216 249.508 C 133.216 247.941,133.560 247.703,135.827 247.703 C 138.803 247.703,138.693 248.167,138.693 235.629 C 138.693 225.973,138.618 224.423,138.106 223.498 C 137.250 221.952,135.666 220.577,134.452 220.326 C 133.434 220.115,133.440 220.128,134.626 220.673 C 138.199 222.313,138.516 223.564,138.516 236.028 C 138.516 247.574,138.578 247.350,135.386 247.350 C 133.084 247.350,132.507 247.737,132.514 249.276 C 132.524 251.298,132.311 251.257,142.251 251.155 L 151.413 251.060 151.413 249.293 L 151.413 247.527 149.130 247.419 C 145.794 247.263,146.021 248.107,145.861 235.231 C 145.670 219.872,144.127 216.226,137.456 215.383 L 135.866 215.182 137.481 215.648 M263.256 219.325 C 263.263 224.796,263.543 225.187,265.157 221.983 C 266.590 219.136,268.756 216.803,270.843 215.854 C 271.623 215.500,272.014 215.206,271.712 215.202 C 270.082 215.179,266.785 218.154,265.063 221.201 L 263.964 223.145 263.961 219.367 C 263.959 217.234,263.804 215.494,263.604 215.371 C 263.376 215.230,263.253 216.632,263.256 219.325 M291.583 216.252 C 279.127 222.144,278.532 243.578,290.636 250.354 C 304.763 258.263,319.855 244.753,315.678 227.938 C 314.089 221.538,307.968 215.106,303.574 215.218 C 302.864 215.236,303.018 215.356,304.240 215.735 C 311.785 218.075,315.652 224.035,315.698 233.392 C 315.753 244.450,310.402 251.035,300.473 252.129 C 281.077 254.265,274.866 223.018,293.286 215.974 C 294.355 215.566,294.912 215.223,294.523 215.213 C 294.134 215.203,292.811 215.670,291.583 216.252 M329.473 215.950 C 316.144 221.209,315.535 244.584,328.567 250.749 C 344.507 258.290,359.264 241.285,351.604 224.203 C 349.787 220.151,343.795 215.140,340.854 215.213 C 340.442 215.223,341.062 215.587,342.230 216.021 C 358.384 222.029,356.405 248.378,339.543 251.795 C 319.170 255.923,310.891 223.327,330.466 216.056 C 331.687 215.602,332.367 215.233,331.979 215.236 C 331.590 215.238,330.462 215.560,329.473 215.950 M148.999 216.137 C 148.869 216.266,148.763 217.058,148.763 217.897 C 148.763 219.546,148.665 219.476,151.663 219.957 C 153.239 220.210,153.934 221.022,155.275 224.175 C 155.825 225.470,156.351 226.453,156.443 226.360 C 157.476 225.327,152.954 219.438,151.121 219.429 C 149.492 219.421,149.047 219.010,149.179 217.631 L 149.293 216.431 158.039 216.431 C 162.849 216.431,166.785 216.312,166.785 216.166 C 166.784 215.839,149.326 215.810,148.999 216.137 M173.034 216.130 C 172.734 216.430,172.716 218.472,173.006 219.229 C 173.161 219.633,173.699 219.788,174.949 219.788 C 178.754 219.788,178.827 220.772,175.597 228.491 C 174.225 231.770,172.524 235.839,171.817 237.533 C 171.110 239.228,170.504 240.580,170.469 240.537 C 169.993 239.953,162.191 221.423,162.191 220.876 C 162.191 220.038,162.251 220.008,165.018 219.484 L 166.961 219.116 164.905 219.252 C 161.017 219.510,161.003 219.920,164.601 228.139 C 166.121 231.611,167.902 235.724,168.560 237.279 C 170.065 240.834,170.266 241.120,170.895 240.597 C 171.161 240.377,171.378 240.055,171.378 239.882 C 171.378 239.709,172.267 237.462,173.355 234.890 C 179.592 220.129,179.673 219.450,175.200 219.429 C 173.519 219.421,173.074 219.020,173.207 217.631 L 173.322 216.431 180.389 216.431 L 187.456 216.431 187.456 217.830 C 187.456 219.135,187.376 219.245,186.262 219.473 C 184.600 219.813,183.418 220.789,182.439 222.630 C 181.194 224.971,175.546 238.208,175.718 238.380 C 175.800 238.462,177.437 234.913,179.356 230.494 C 183.189 221.664,184.067 220.329,186.330 219.882 L 187.809 219.589 187.809 217.833 L 187.809 216.078 180.543 215.982 C 176.546 215.930,173.167 215.996,173.034 216.130 M88.261 218.312 C 87.926 218.445,89.063 218.553,90.788 218.552 C 92.513 218.552,93.741 218.434,93.517 218.292 C 93.011 217.969,89.087 217.985,88.261 218.312 M295.580 218.680 C 293.403 219.669,290.015 224.408,290.871 225.265 C 290.960 225.353,291.326 224.609,291.685 223.611 C 293.010 219.925,295.991 218.110,300.112 218.481 C 305.713 218.984,307.853 223.282,307.889 234.099 C 307.905 238.880,307.974 239.709,308.224 238.163 C 309.047 233.078,307.926 224.727,306.000 221.598 C 304.005 218.356,299.234 217.020,295.580 218.680 M333.691 218.292 C 333.467 218.434,334.693 218.551,336.416 218.551 C 338.140 218.551,339.277 218.443,338.944 218.311 C 338.121 217.984,334.197 217.970,333.691 218.292 M85.830 219.536 C 83.041 221.412,81.568 226.627,81.683 234.213 L 81.740 237.986 81.988 232.862 C 82.355 225.266,83.368 222.085,86.149 219.792 C 87.679 218.531,87.516 218.401,85.830 219.536 M95.785 220.029 C 96.577 220.745,97.616 222.057,98.093 222.945 C 98.570 223.832,98.858 224.161,98.733 223.675 C 98.391 222.346,97.263 220.633,96.066 219.626 C 94.406 218.229,94.169 218.570,95.785 220.029 M330.517 220.312 C 326.245 224.770,325.970 241.457,330.086 246.424 C 332.795 249.692,338.833 250.099,342.008 247.228 C 342.990 246.339,344.884 242.546,344.858 241.519 C 344.848 241.131,344.464 241.825,344.004 243.062 C 340.592 252.251,329.864 250.399,328.064 240.312 C 326.378 230.859,328.100 222.369,332.332 219.268 C 332.819 218.912,332.882 218.747,332.537 218.739 C 332.260 218.733,331.352 219.441,330.517 220.312 M341.691 220.456 C 344.458 223.223,345.053 225.631,345.053 234.063 C 345.053 237.737,345.163 240.122,345.298 239.364 C 346.605 231.999,344.727 222.034,341.580 219.633 C 339.747 218.235,339.790 218.555,341.691 220.456 M131.011 220.038 C 131.451 220.122,132.087 220.119,132.425 220.031 C 132.762 219.942,132.403 219.873,131.625 219.877 C 130.848 219.881,130.572 219.953,131.011 220.038 M217.580 224.582 C 217.168 225.002,217.256 245.520,217.672 246.298 C 219.341 249.417,234.349 247.650,237.376 243.978 C 242.169 238.163,238.669 225.317,232.332 225.465 C 231.920 225.474,232.279 225.746,233.193 226.117 C 237.567 227.891,239.051 230.503,239.033 236.396 C 239.007 244.817,236.071 246.996,224.753 246.996 C 216.900 246.996,217.668 248.279,217.668 235.164 L 217.668 224.624 223.587 224.867 C 226.842 225.001,229.982 225.185,230.565 225.275 L 231.625 225.439 230.565 225.048 C 229.325 224.591,217.969 224.183,217.580 224.582 M99.217 226.678 C 99.544 229.423,99.543 238.134,99.215 240.636 C 98.999 242.282,99.024 242.444,99.382 241.696 C 99.946 240.513,99.935 227.103,99.368 225.618 C 99.025 224.718,99.002 224.878,99.217 226.678 M290.216 227.473 C 289.842 229.665,289.913 238.313,290.319 240.030 C 290.537 240.948,290.636 238.929,290.636 233.581 C 290.636 225.078,290.633 225.032,290.216 227.473 M156.537 227.008 C 156.537 227.157,156.770 227.779,157.054 228.392 C 157.339 229.004,159.571 234.116,162.016 239.752 L 166.460 249.999 165.893 251.484 C 164.071 256.254,160.313 261.477,158.011 262.439 C 156.487 263.076,156.360 262.921,156.360 260.423 C 156.360 257.194,154.410 255.709,151.007 256.347 C 149.459 256.638,147.698 258.285,147.717 259.425 C 147.730 260.172,147.773 260.151,148.199 259.187 C 150.078 254.931,157.078 256.269,156.038 260.686 C 155.627 262.428,155.645 262.618,156.258 263.014 C 158.814 264.671,167.678 252.881,166.520 249.366 C 165.433 246.068,156.537 226.144,156.537 227.008 M73.902 229.556 C 73.387 232.121,73.438 235.723,74.022 237.986 L 74.478 239.753 74.320 237.456 C 74.233 236.193,74.103 234.867,74.031 234.510 C 73.960 234.152,74.043 232.490,74.216 230.815 C 74.586 227.230,74.466 226.749,73.902 229.556 M31.449 229.398 C 37.243 232.050,38.497 233.639,38.505 238.339 C 38.517 245.412,32.499 249.491,23.675 248.389 C 16.013 247.433,11.170 241.950,8.476 231.184 L 8.100 229.682 6.435 229.735 L 4.770 229.788 6.314 230.000 L 7.858 230.212 8.485 232.688 C 11.587 244.943,19.872 250.955,30.369 248.567 C 41.193 246.105,42.149 231.374,31.625 229.212 C 30.596 229.000,30.591 229.006,31.449 229.398 M4.732 234.982 C 4.732 237.606,4.788 238.679,4.856 237.367 C 4.924 236.056,4.924 233.909,4.856 232.597 C 4.788 231.285,4.732 232.359,4.732 234.982 M107.875 233.746 C 107.878 234.717,107.946 235.073,108.027 234.536 C 108.109 233.999,108.106 233.204,108.023 232.769 C 107.939 232.334,107.872 232.774,107.875 233.746 M248.876 236.396 C 248.876 237.659,248.940 238.176,249.019 237.544 C 249.097 236.913,249.097 235.879,249.019 235.247 C 248.940 234.616,248.876 235.133,248.876 236.396 M107.096 238.683 C 103.845 255.037,80.691 257.086,75.377 241.489 C 75.054 240.541,74.720 239.975,74.635 240.230 C 74.550 240.486,75.062 241.874,75.775 243.314 C 81.801 255.508,99.993 255.582,105.886 243.437 C 106.920 241.306,108.079 236.937,107.709 236.567 C 107.621 236.478,107.345 237.430,107.096 238.683 M44.578 237.986 C 43.787 251.169,24.412 257.256,12.670 248.010 C 11.002 246.697,11.197 246.611,9.350 249.491 C 7.173 252.888,5.617 253.014,5.259 249.823 L 5.042 247.880 5.083 250.000 L 5.124 252.120 6.360 252.212 C 7.886 252.326,7.993 252.245,9.634 249.735 C 11.118 247.463,11.207 247.421,12.456 248.403 C 20.941 255.078,37.286 253.600,42.318 245.703 C 43.757 243.445,44.948 239.814,44.778 238.207 C 44.656 237.061,44.635 237.038,44.578 237.986 M82.169 240.078 C 83.055 250.193,96.300 252.899,98.734 243.463 C 98.867 242.947,98.625 243.202,98.153 244.073 C 93.754 252.195,84.530 249.972,82.476 240.296 L 81.986 237.986 82.169 240.078 M172.267 246.017 C 167.043 258.082,164.914 261.801,161.922 264.083 C 156.940 267.885,149.399 267.120,148.069 262.679 C 147.795 261.765,147.761 261.745,147.734 262.490 C 147.645 264.920,150.816 266.921,154.770 266.930 C 160.604 266.943,164.954 263.188,168.855 254.770 C 171.136 249.848,175.658 239.145,175.517 239.004 C 175.435 238.922,173.972 242.078,172.267 246.017 M307.092 241.920 C 304.952 250.418,294.548 251.489,291.678 243.507 C 291.323 242.520,290.960 241.785,290.871 241.873 C 290.783 241.961,290.992 242.770,291.335 243.669 C 294.535 252.048,305.942 250.603,307.607 241.608 C 307.954 239.736,307.586 239.959,307.092 241.920 M242.319 293.536 C 242.758 293.621,243.394 293.617,243.732 293.529 C 244.070 293.441,243.710 293.371,242.933 293.375 C 242.155 293.379,241.879 293.452,242.319 293.536 M262.284 293.540 C 262.821 293.621,263.616 293.619,264.051 293.535 C 264.485 293.451,264.046 293.385,263.074 293.387 C 262.102 293.390,261.747 293.459,262.284 293.540 M281.861 294.582 C 281.535 294.908,281.564 297.093,281.897 297.299 C 282.046 297.392,282.110 296.859,282.040 296.116 C 281.936 295.034,282.041 294.731,282.563 294.596 C 283.049 294.471,283.073 294.418,282.656 294.387 C 282.348 294.365,281.991 294.452,281.861 294.582 M123.124 313.604 C 123.124 319.240,123.173 321.496,123.233 318.618 C 123.292 315.739,123.292 311.128,123.232 308.371 C 123.173 305.613,123.124 307.968,123.124 313.604 M99.795 316.961 C 99.795 320.751,99.847 322.301,99.910 320.406 C 99.974 318.511,99.974 315.411,99.910 313.516 C 99.847 311.621,99.795 313.171,99.795 316.961 M105.292 327.843 L 105.462 329.505 105.582 328.134 C 105.648 327.379,105.571 326.631,105.412 326.472 C 105.252 326.312,105.198 326.929,105.292 327.843 " stroke="none" fill="#949494" fill-rule="evenodd"></path><path id="path4" d="M187.809 19.680 C 182.204 20.214,169.039 22.363,168.584 22.818 C 168.275 23.127,169.754 22.947,173.077 22.272 C 179.239 21.021,186.897 20.132,193.507 19.902 L 200.000 19.676 200.000 94.997 C 200.000 152.563,199.902 170.318,199.584 170.318 C 198.798 170.318,190.989 167.776,187.986 166.543 C 159.183 154.714,138.930 127.709,136.757 98.233 C 136.487 94.576,136.389 83.186,136.463 63.958 L 136.572 35.159 141.908 32.509 C 147.814 29.576,154.076 27.168,160.777 25.255 C 163.207 24.562,165.910 23.766,166.784 23.487 L 168.375 22.979 166.961 23.178 C 161.723 23.914,148.963 28.463,140.950 32.451 L 136.219 34.806 136.219 67.845 L 136.219 100.883 137.036 105.124 C 141.426 127.910,154.595 147.225,174.558 160.158 C 181.510 164.662,194.606 170.182,198.910 170.424 L 200.177 170.495 200.177 95.053 L 200.177 19.611 194.700 19.578 C 191.687 19.560,188.587 19.605,187.809 19.680 M204.445 23.057 C 204.869 29.549,205.256 31.213,205.040 25.618 C 204.928 22.703,204.835 20.119,204.833 19.876 C 204.831 19.633,204.689 19.435,204.519 19.435 C 204.345 19.435,204.312 21.030,204.445 23.057 M205.742 19.678 C 206.082 19.767,206.639 19.767,206.979 19.678 C 207.319 19.589,207.041 19.517,206.360 19.517 C 205.680 19.517,205.402 19.589,205.742 19.678 M208.347 21.442 C 208.650 24.133,208.834 24.272,208.834 21.811 C 208.834 20.721,208.672 19.730,208.475 19.608 C 208.237 19.461,208.194 20.083,208.347 21.442 M212.879 21.976 C 213.165 24.576,214.048 28.772,214.092 27.739 C 214.108 27.350,213.887 25.601,213.599 23.852 C 213.312 22.102,213.076 20.543,213.076 20.386 C 213.075 20.229,213.746 20.150,214.566 20.209 C 216.325 20.337,216.280 20.213,218.408 30.919 C 218.640 32.085,218.902 32.833,218.990 32.581 C 219.139 32.157,218.421 28.482,217.009 22.438 L 216.431 19.965 214.533 19.856 L 212.634 19.748 212.879 21.976 M220.712 20.782 C 220.603 20.958,221.084 23.152,221.781 25.657 C 222.477 28.162,223.170 30.689,223.321 31.272 C 223.552 32.169,224.827 36.803,227.453 46.290 C 227.749 47.359,228.115 48.710,228.267 49.293 C 228.418 49.876,229.055 52.182,229.682 54.417 C 230.309 56.652,230.946 58.958,231.098 59.541 C 231.250 60.124,232.359 64.178,233.563 68.551 C 234.767 72.924,236.517 79.284,237.451 82.686 C 238.386 86.087,240.137 92.447,241.344 96.820 C 242.551 101.193,243.662 105.247,243.814 105.830 C 244.616 108.905,247.444 119.165,249.804 127.562 C 250.159 128.825,250.633 130.534,250.857 131.360 C 251.570 133.986,252.410 133.112,255.889 126.125 L 257.220 123.451 254.783 115.877 C 253.443 111.712,251.130 104.488,249.644 99.823 C 248.158 95.159,246.154 88.878,245.191 85.866 C 244.227 82.853,243.139 79.435,242.772 78.269 C 242.405 77.102,240.833 72.173,239.279 67.314 C 234.113 51.163,231.391 42.615,230.332 39.223 C 229.756 37.376,228.984 34.991,228.617 33.922 C 228.251 32.853,227.226 29.673,226.340 26.855 C 225.455 24.037,224.612 21.555,224.468 21.339 C 224.127 20.830,220.972 20.362,220.712 20.782 M224.947 23.852 C 226.713 29.320,229.701 38.686,231.597 44.700 C 232.700 48.198,233.822 51.696,234.090 52.473 C 234.359 53.251,235.551 56.988,236.740 60.777 C 237.929 64.567,239.122 68.304,239.391 69.081 C 239.660 69.859,240.775 73.357,241.868 76.855 C 242.961 80.353,244.154 84.090,244.518 85.159 C 244.882 86.228,246.077 89.965,247.173 93.463 C 248.269 96.961,249.386 100.459,249.655 101.237 C 249.924 102.014,251.123 105.751,252.320 109.541 C 253.517 113.330,254.956 117.856,255.517 119.597 C 256.825 123.655,256.847 123.427,254.751 127.421 C 251.725 133.189,251.686 133.221,251.015 130.448 C 250.796 129.541,249.948 126.413,249.132 123.498 C 248.315 120.583,247.442 117.403,247.191 116.431 C 246.940 115.459,246.061 112.279,245.237 109.364 C 244.413 106.449,243.538 103.269,243.294 102.297 C 243.049 101.325,242.174 98.145,241.350 95.230 C 240.526 92.314,239.643 89.134,239.389 88.163 C 238.922 86.384,238.365 84.351,236.388 77.208 C 235.796 75.071,235.017 72.208,234.657 70.848 C 234.297 69.488,233.331 65.989,232.510 63.074 C 231.690 60.159,230.812 56.979,230.559 56.007 C 230.307 55.035,229.672 52.730,229.148 50.883 C 228.623 49.037,228.070 47.049,227.918 46.466 C 227.767 45.883,226.893 42.703,225.977 39.399 C 225.061 36.095,224.105 32.597,223.854 31.625 C 223.602 30.654,222.849 27.911,222.181 25.530 C 220.790 20.571,220.751 20.916,222.669 21.177 C 224.147 21.378,224.148 21.379,224.947 23.852 M228.833 22.205 C 228.711 22.404,228.844 23.094,229.130 23.739 C 229.416 24.384,230.858 28.171,232.335 32.155 C 233.812 36.140,235.188 39.797,235.393 40.283 C 235.598 40.769,236.535 43.233,237.475 45.760 C 239.274 50.595,242.724 59.731,243.880 62.721 C 244.256 63.693,245.090 65.919,245.733 67.668 C 246.376 69.417,247.309 71.882,247.807 73.145 C 248.304 74.408,249.751 78.224,251.023 81.625 C 252.294 85.027,254.540 90.989,256.014 94.876 C 257.488 98.763,259.186 103.295,259.787 104.947 C 261.637 110.033,262.184 110.133,262.683 105.477 C 262.853 103.881,262.813 103.949,262.261 106.176 L 261.649 108.641 260.002 104.232 C 259.096 101.807,256.185 94.099,253.532 87.102 C 250.879 80.106,247.664 71.599,246.388 68.198 C 243.459 60.395,240.379 52.242,239.580 50.177 C 238.971 48.600,235.979 40.651,234.461 36.572 C 234.027 35.406,232.759 32.067,231.645 29.152 C 228.894 21.959,228.939 22.246,230.618 22.636 C 231.366 22.809,232.081 22.955,232.206 22.960 C 232.330 22.964,233.822 26.268,235.521 30.300 C 239.833 40.535,242.564 46.981,244.191 50.763 C 244.957 52.543,245.583 54.089,245.583 54.199 C 245.583 54.308,245.974 55.237,246.452 56.262 C 246.930 57.288,247.865 59.479,248.529 61.131 C 249.193 62.783,250.381 65.645,251.168 67.491 C 251.955 69.337,255.009 76.562,257.955 83.546 L 263.310 96.244 263.062 99.977 C 262.757 104.563,263.125 104.562,263.548 99.976 L 263.855 96.643 262.110 92.403 C 261.151 90.071,259.750 86.731,258.998 84.982 C 258.245 83.233,256.604 79.337,255.350 76.325 C 250.131 63.779,245.249 52.169,243.984 49.293 C 243.728 48.710,242.053 44.735,240.262 40.459 C 232.301 21.457,232.838 22.652,232.177 22.460 C 230.595 21.999,229.034 21.881,228.833 22.205 M237.456 24.493 C 237.456 24.779,238.251 26.622,239.223 28.587 C 240.194 30.553,240.989 32.218,240.989 32.288 C 240.989 32.358,242.399 35.338,244.122 38.911 C 247.182 45.254,249.018 49.087,252.693 56.802 C 255.030 61.709,258.534 69.046,261.045 74.293 C 264.105 80.687,263.958 81.573,263.958 56.739 L 263.958 35.034 261.926 33.810 C 254.541 29.364,237.456 22.858,237.456 24.493 M209.043 26.678 C 209.139 28.039,209.448 31.219,209.729 33.746 C 210.692 42.403,211.630 51.064,212.352 57.951 C 213.373 67.686,213.793 71.155,213.976 71.337 C 214.241 71.602,213.831 66.683,213.081 60.601 C 212.889 59.046,212.406 54.673,212.008 50.883 C 211.610 47.094,210.979 41.210,210.606 37.809 C 210.232 34.408,209.827 30.511,209.706 29.148 C 209.389 25.585,208.815 23.446,209.043 26.678 M242.791 25.934 C 250.001 28.298,256.686 31.214,261.661 34.164 L 263.428 35.212 263.428 56.474 C 263.428 68.169,263.308 77.737,263.163 77.738 C 263.017 77.738,262.898 77.601,262.898 77.433 C 262.898 77.265,261.542 74.308,259.886 70.863 C 258.230 67.418,256.338 63.461,255.681 62.070 C 255.025 60.679,253.261 56.996,251.761 53.887 C 250.262 50.777,248.436 46.961,247.703 45.406 C 246.970 43.852,245.399 40.552,244.210 38.074 C 237.651 24.398,237.644 24.382,237.933 24.382 C 238.001 24.382,240.187 25.080,242.791 25.934 M214.275 30.389 C 214.631 33.312,215.300 36.607,215.449 36.163 C 215.614 35.666,214.537 28.901,214.251 28.639 C 214.134 28.533,214.145 29.320,214.275 30.389 M205.341 33.971 C 205.274 36.678,206.030 48.214,206.293 48.481 C 206.427 48.617,206.348 45.306,206.116 41.123 C 205.694 33.478,205.417 30.930,205.341 33.971 M219.081 33.615 C 219.081 33.834,219.481 35.862,219.970 38.120 C 220.459 40.378,221.082 43.260,221.354 44.523 C 221.627 45.786,222.176 48.330,222.576 50.177 C 222.976 52.023,223.709 55.442,224.206 57.774 C 224.702 60.106,225.269 62.730,225.464 63.604 C 226.074 66.331,229.553 82.495,231.283 90.636 C 232.192 94.912,232.998 98.476,233.075 98.557 C 233.457 98.958,233.052 96.695,231.256 88.389 C 230.178 83.406,228.919 77.580,228.458 75.442 C 227.997 73.304,227.121 69.249,226.512 66.431 C 225.437 61.467,224.966 59.275,222.634 48.410 C 222.029 45.592,221.309 42.253,221.034 40.989 C 220.759 39.726,220.276 37.460,219.960 35.954 C 219.444 33.492,219.081 32.525,219.081 33.615 M215.576 37.419 C 215.560 37.884,216.092 41.382,216.757 45.192 C 217.422 49.003,218.173 53.392,218.427 54.947 C 218.680 56.502,218.937 57.456,218.997 57.067 C 219.095 56.438,216.082 37.804,215.741 36.926 C 215.665 36.731,215.591 36.953,215.576 37.419 M206.512 53.534 C 206.755 57.737,207.383 67.798,208.464 84.806 C 208.841 90.733,209.357 98.843,209.610 102.827 C 209.876 107.003,210.117 109.173,210.181 107.951 C 210.241 106.784,209.890 99.867,209.401 92.580 C 208.912 85.292,208.263 75.274,207.959 70.318 C 206.989 54.501,206.664 50.009,206.473 49.825 C 206.371 49.727,206.388 51.396,206.512 53.534 M219.249 59.541 C 219.378 60.512,219.708 62.580,219.983 64.134 C 220.661 67.968,222.739 80.188,224.249 89.216 C 225.403 96.123,225.798 97.923,225.793 96.260 C 225.791 95.560,225.740 95.246,224.205 86.396 C 223.699 83.481,223.069 79.744,222.805 78.092 C 221.561 70.313,219.387 58.139,219.211 57.967 C 219.104 57.861,219.121 58.569,219.249 59.541 M167.945 74.823 L 166.235 80.035 160.653 80.133 C 154.047 80.248,154.104 80.042,159.587 84.033 L 163.873 87.153 162.453 91.545 C 159.958 99.259,159.695 99.092,166.472 94.111 C 170.226 91.350,169.570 91.285,174.603 94.923 C 180.024 98.842,179.875 99.058,177.299 91.010 L 176.060 87.143 180.433 83.998 C 182.838 82.268,184.806 80.713,184.806 80.541 C 184.806 80.370,182.314 80.186,179.268 80.133 L 173.730 80.035 172.030 74.912 C 171.095 72.094,170.327 69.748,170.324 69.700 C 170.253 68.640,169.299 70.696,167.945 74.823 M171.740 75.442 C 172.558 77.968,173.301 80.115,173.391 80.212 C 173.481 80.309,175.941 80.468,178.858 80.565 L 184.162 80.742 179.890 83.857 C 177.541 85.571,175.618 87.082,175.618 87.217 C 175.618 87.351,176.078 88.812,176.639 90.462 C 177.986 94.423,178.795 97.173,178.614 97.173 C 178.534 97.173,176.552 95.804,174.211 94.131 L 169.954 91.088 165.693 94.163 C 163.349 95.855,161.378 97.184,161.312 97.117 C 161.246 97.051,161.896 94.799,162.757 92.113 C 163.618 89.427,164.242 87.100,164.144 86.942 C 164.046 86.784,162.113 85.324,159.847 83.698 L 155.728 80.742 161.137 80.565 L 166.547 80.389 168.047 75.902 C 169.511 71.521,169.922 70.509,170.145 70.736 C 170.205 70.798,170.923 72.915,171.740 75.442 M214.330 75.265 C 214.421 76.917,214.807 80.972,215.188 84.276 C 216.435 95.073,217.683 106.460,218.054 110.424 C 218.255 112.562,218.562 115.106,218.738 116.078 C 219.210 118.693,218.851 113.011,218.202 107.597 C 217.922 105.265,217.048 97.314,216.259 89.929 C 214.629 74.663,214.062 70.349,214.330 75.265 M225.795 97.759 C 225.795 98.146,226.107 100.200,226.488 102.323 C 227.248 106.563,232.510 137.597,233.610 144.329 C 234.270 148.365,234.629 149.716,234.629 148.162 C 234.629 147.766,234.382 146.030,234.081 144.304 C 233.044 138.371,231.049 126.675,230.561 123.675 C 230.292 122.023,229.659 118.286,229.155 115.371 C 228.650 112.456,227.759 107.214,227.175 103.722 C 226.177 97.758,225.795 96.109,225.795 97.759 M233.365 100.177 C 233.498 100.954,233.826 102.544,234.093 103.710 C 234.360 104.876,234.983 107.739,235.477 110.071 C 237.932 121.652,238.516 124.084,238.516 122.722 C 238.516 121.647,233.652 99.255,233.360 98.984 C 233.229 98.862,233.231 99.399,233.365 100.177 M210.474 115.194 C 210.569 118.012,210.873 123.498,211.150 127.385 C 211.427 131.272,211.886 138.348,212.172 143.110 C 213.234 160.844,213.566 165.072,213.934 165.572 C 214.251 166.003,214.985 165.747,218.536 163.967 C 224.283 161.085,224.107 161.311,223.652 157.414 C 223.132 152.955,222.946 152.889,223.188 157.250 L 223.395 160.966 218.963 163.257 C 213.640 166.009,213.922 166.187,213.644 159.894 C 213.447 155.433,213.232 152.101,212.009 134.629 C 211.812 131.811,211.553 127.597,211.434 125.265 C 211.314 122.933,211.011 118.560,210.759 115.548 L 210.300 110.071 210.474 115.194 M219.293 120.848 C 219.389 122.500,219.782 126.634,220.165 130.035 C 221.514 142.013,221.929 145.794,222.274 149.268 C 222.466 151.197,222.722 152.867,222.844 152.978 C 223.110 153.222,222.933 151.232,221.523 138.163 C 220.066 124.657,219.057 116.825,219.293 120.848 M238.516 123.837 C 238.516 124.186,238.821 125.842,239.195 127.518 C 239.568 129.194,240.197 132.076,240.591 133.922 C 240.986 135.769,241.664 138.897,242.098 140.875 L 242.887 144.471 241.217 146.426 C 239.493 148.443,235.776 151.797,235.536 151.552 C 235.461 151.476,235.240 150.857,235.046 150.177 C 234.752 149.146,234.688 149.087,234.666 149.823 C 234.563 153.166,235.263 152.998,239.677 148.621 L 243.384 144.945 243.085 143.409 C 242.920 142.564,242.137 138.931,241.345 135.336 C 240.553 131.740,239.675 127.622,239.394 126.185 C 238.890 123.604,238.516 122.604,238.516 123.837 M200.803 198.587 C 200.803 199.461,200.872 199.819,200.956 199.382 C 201.040 198.944,201.040 198.229,200.956 197.792 C 200.872 197.354,200.803 197.712,200.803 198.587 M8.988 199.735 L 7.951 200.883 9.099 199.846 C 9.731 199.275,10.247 198.758,10.247 198.697 C 10.247 198.424,9.956 198.665,8.988 199.735 M5.053 210.954 C 5.053 212.023,5.119 212.460,5.200 211.926 C 5.281 211.391,5.281 210.517,5.200 209.982 C 5.119 209.448,5.053 209.885,5.053 210.954 M236.845 210.601 C 236.845 211.475,236.914 211.833,236.998 211.396 C 237.083 210.958,237.083 210.243,236.998 209.806 C 236.914 209.368,236.845 209.726,236.845 210.601 M133.309 215.095 C 133.846 215.176,134.641 215.174,135.076 215.090 C 135.510 215.006,135.071 214.939,134.099 214.942 C 133.127 214.945,132.772 215.013,133.309 215.095 M122.027 218.021 C 122.027 219.479,122.089 220.075,122.166 219.346 C 122.242 218.617,122.242 217.425,122.166 216.696 C 122.089 215.967,122.027 216.564,122.027 218.021 M166.874 217.845 C 166.877 218.622,166.950 218.898,167.034 218.459 C 167.119 218.019,167.116 217.383,167.027 217.045 C 166.939 216.708,166.870 217.067,166.874 217.845 M347.350 218.485 C 347.350 218.546,347.867 219.063,348.498 219.634 L 349.647 220.671 348.609 219.523 C 347.641 218.452,347.350 218.212,347.350 218.485 M122.408 238.516 C 122.408 242.111,122.461 243.582,122.525 241.784 C 122.589 239.987,122.589 237.045,122.525 235.247 C 122.461 233.450,122.408 234.920,122.408 238.516 M44.965 235.866 C 44.969 236.643,45.042 236.920,45.126 236.480 C 45.211 236.040,45.208 235.404,45.119 235.067 C 45.031 234.729,44.962 235.088,44.965 235.866 M4.731 243.993 C 4.732 246.519,4.788 247.507,4.856 246.187 C 4.924 244.867,4.924 242.800,4.855 241.593 C 4.786 240.386,4.730 241.466,4.731 243.993 M200.796 249.293 C 200.800 250.071,200.872 250.347,200.957 249.908 C 201.041 249.468,201.038 248.832,200.949 248.494 C 200.861 248.156,200.792 248.516,200.796 249.293 M250.619 249.293 C 250.623 250.071,250.695 250.347,250.780 249.908 C 250.864 249.468,250.861 248.832,250.773 248.494 C 250.684 248.156,250.615 248.516,250.619 249.293 M147.432 261.131 C 147.432 261.811,147.505 262.089,147.593 261.749 C 147.682 261.409,147.682 260.852,147.593 260.512 C 147.505 260.172,147.432 260.451,147.432 261.131 M32.744 274.794 C 32.615 274.923,32.509 275.859,32.509 276.872 L 32.509 278.714 35.846 278.860 C 41.069 279.089,40.559 277.053,40.730 298.353 C 40.904 319.973,41.057 320.923,45.105 325.425 C 51.592 332.640,70.411 333.145,77.728 326.301 C 82.325 322.000,82.766 319.706,83.014 298.763 C 83.256 278.417,83.009 279.313,88.467 278.901 C 91.429 278.677,91.719 278.368,91.219 275.972 L 90.961 274.735 80.634 274.641 L 70.308 274.548 69.915 275.409 C 69.699 275.883,69.625 276.817,69.750 277.485 L 69.978 278.699 72.851 278.895 C 75.917 279.106,77.158 279.686,78.007 281.306 C 78.897 283.006,78.445 317.110,77.505 319.143 C 73.591 327.613,57.067 328.889,51.852 321.124 C 49.689 317.903,49.647 317.465,49.647 298.155 C 49.647 277.381,49.199 279.248,54.276 278.861 L 57.420 278.622 57.530 277.094 C 57.720 274.456,58.229 274.558,44.892 274.558 C 38.340 274.558,32.874 274.664,32.744 274.794 M137.527 275.210 C 135.012 276.550,134.214 279.674,135.788 282.010 C 138.371 285.843,144.523 284.200,144.523 279.677 C 144.523 275.766,140.864 273.430,137.527 275.210 M289.089 275.163 C 284.777 277.287,286.330 284.102,291.125 284.098 C 293.229 284.096,294.930 283.066,295.641 281.365 C 297.408 277.136,293.189 273.142,289.089 275.163 M56.890 276.767 L 56.890 278.445 54.399 278.445 C 48.922 278.445,49.117 277.726,49.117 297.969 C 49.117 318.329,49.339 319.743,53.091 323.201 C 57.868 327.605,70.097 327.641,75.067 323.266 C 78.846 319.940,79.226 317.469,79.082 297.157 C 78.950 278.566,79.044 278.860,73.115 278.516 L 70.318 278.354 70.318 276.810 L 70.318 275.265 80.565 275.265 L 90.813 275.265 90.813 276.855 L 90.813 278.445 88.781 278.453 C 82.586 278.477,82.591 278.458,82.328 299.823 C 82.098 318.536,82.098 318.541,80.031 322.622 C 74.715 333.121,50.209 333.488,43.829 323.165 C 41.546 319.472,41.560 319.606,41.354 299.038 L 41.166 280.231 40.362 279.426 C 39.660 278.725,39.130 278.606,36.210 278.499 L 32.862 278.377 32.862 276.733 L 32.862 275.088 44.876 275.088 L 56.890 275.088 56.890 276.767 M142.699 276.271 C 145.678 279.054,143.855 283.569,139.753 283.569 C 138.137 283.569,137.696 283.416,136.777 282.535 C 133.845 279.726,135.671 275.265,139.753 275.265 C 141.319 275.265,141.796 275.428,142.699 276.271 M293.885 275.956 C 295.162 276.734,295.999 278.858,295.622 280.359 C 294.777 283.727,290.483 284.811,288.135 282.249 C 284.645 278.440,289.409 273.227,293.885 275.956 M309.746 279.947 C 309.658 280.384,309.495 281.651,309.385 282.763 C 308.781 288.837,305.722 293.125,301.130 294.336 L 299.609 294.737 299.716 296.397 L 299.823 298.057 302.739 298.159 L 305.654 298.262 305.654 310.717 C 305.654 329.294,306.378 330.919,314.664 330.919 C 321.740 330.919,325.392 327.530,326.551 319.888 C 327.110 316.200,326.870 315.548,324.950 315.548 L 323.413 315.548 323.175 317.403 C 322.415 323.332,320.890 325.442,317.364 325.442 C 314.732 325.442,313.904 324.656,313.420 321.699 C 313.015 319.225,312.962 299.310,313.359 298.685 C 313.551 298.384,315.234 298.223,318.919 298.155 L 324.205 298.057 324.311 296.211 L 324.418 294.365 319.188 294.268 L 313.958 294.170 313.862 286.936 C 313.807 282.829,313.616 279.553,313.420 279.356 C 313.195 279.131,313.074 281.592,313.074 286.431 C 313.074 295.453,312.537 294.700,318.975 294.700 L 324.028 294.700 324.028 296.281 L 324.028 297.862 318.463 297.959 L 312.898 298.057 312.800 308.834 C 312.656 324.605,313.015 325.972,317.297 325.972 C 320.857 325.972,322.570 323.955,323.374 318.816 L 323.831 315.901 325.039 315.901 L 326.246 315.901 326.067 318.993 C 325.625 326.593,321.757 330.507,314.672 330.520 C 306.770 330.535,306.266 329.412,306.085 311.396 L 305.949 297.880 302.974 297.880 L 300.000 297.880 300.000 296.455 C 300.000 295.618,300.182 294.979,300.442 294.906 C 300.685 294.837,301.575 294.592,302.420 294.362 C 306.295 293.307,309.881 287.371,309.899 281.980 C 309.906 279.952,310.151 279.597,311.664 279.414 C 312.845 279.271,312.834 279.263,311.402 279.208 C 310.113 279.160,309.885 279.261,309.746 279.947 M201.148 293.176 C 201.489 293.265,202.045 293.265,202.385 293.176 C 202.725 293.088,202.447 293.015,201.767 293.015 C 201.087 293.015,200.808 293.088,201.148 293.176 M93.110 293.671 C 86.799 294.159,86.728 294.302,92.882 294.130 C 96.060 294.041,98.822 293.934,99.019 293.892 C 99.241 293.845,99.353 294.907,99.313 296.697 C 99.233 300.373,99.518 300.507,102.025 297.967 C 108.720 291.183,119.356 292.607,122.496 300.707 C 123.020 302.060,123.141 304.020,123.305 313.883 C 123.520 326.752,123.384 326.129,125.972 326.148 C 128.522 326.166,128.887 326.395,128.847 327.944 L 128.811 329.329 119.706 329.329 L 110.601 329.329 110.606 328.180 C 110.614 326.525,110.907 326.287,113.066 326.182 C 116.801 326.000,116.695 326.398,116.545 313.061 C 116.394 299.705,115.749 298.387,109.389 298.428 C 101.737 298.478,99.977 301.783,99.962 316.132 C 99.951 326.542,99.792 326.042,103.180 326.211 L 105.477 326.325 105.586 327.827 L 105.694 329.329 96.466 329.329 L 87.239 329.329 87.347 327.827 L 87.456 326.325 89.854 326.148 C 93.493 325.880,93.356 326.501,93.216 310.875 C 93.090 296.809,93.304 297.526,89.183 297.326 L 86.773 297.210 86.878 295.690 C 86.956 294.551,86.880 294.269,86.576 294.565 C 86.353 294.782,86.221 295.577,86.283 296.332 L 86.396 297.703 88.905 297.880 C 92.871 298.159,92.580 297.034,92.580 312.045 C 92.580 326.838,92.813 325.790,89.511 325.800 C 87.186 325.808,86.858 326.088,86.991 327.950 L 87.102 329.505 96.466 329.505 L 105.830 329.505 105.942 327.950 C 106.076 326.075,105.752 325.808,103.336 325.800 C 100.151 325.791,100.274 326.231,100.417 315.353 C 100.594 301.898,102.299 298.804,109.541 298.798 C 115.469 298.793,116.379 301.114,116.193 315.748 C 116.061 326.094,116.160 325.791,112.918 325.800 C 110.503 325.808,110.179 326.075,110.313 327.950 L 110.424 329.505 119.788 329.505 L 129.152 329.505 129.263 327.950 C 129.398 326.069,129.075 325.808,126.615 325.800 C 123.571 325.791,123.676 326.196,123.670 314.374 C 123.664 303.195,123.385 300.834,121.773 298.321 C 117.688 291.950,107.728 291.534,101.807 297.486 L 100.028 299.274 99.926 296.369 L 99.823 293.463 98.410 293.416 C 97.633 293.391,95.247 293.505,93.110 293.671 M136.396 293.677 C 134.161 293.836,131.935 294.028,131.449 294.104 C 129.893 294.344,136.818 294.299,139.827 294.049 C 141.423 293.916,142.854 293.849,143.008 293.900 C 143.161 293.951,143.241 300.631,143.186 308.745 C 143.064 326.773,142.952 326.148,146.286 326.148 C 148.787 326.148,149.117 326.359,149.117 327.953 L 149.117 329.329 139.753 329.329 L 130.389 329.329 130.389 327.790 L 130.389 326.251 132.774 326.187 C 136.809 326.078,136.572 326.971,136.572 311.837 C 136.572 296.661,136.788 297.471,132.723 297.394 L 130.394 297.350 130.391 295.827 C 130.390 294.903,130.250 294.390,130.035 294.523 C 129.645 294.764,129.561 296.447,129.896 297.321 C 130.063 297.754,130.647 297.880,132.492 297.880 C 136.267 297.880,136.043 296.996,136.037 311.865 C 136.031 326.438,136.236 325.558,132.787 325.795 L 130.212 325.972 130.105 327.827 L 129.998 329.682 139.753 329.682 L 149.507 329.682 149.400 327.827 L 149.293 325.972 146.895 325.795 C 143.630 325.555,143.828 326.606,143.822 309.481 C 143.819 301.189,143.720 294.153,143.602 293.845 C 143.363 293.222,142.923 293.211,136.396 293.677 M197.350 293.541 C 192.375 294.756,186.786 300.737,186.029 305.654 C 185.889 306.568,186.057 306.327,186.674 304.731 C 188.968 298.794,192.883 294.994,197.743 293.985 C 198.790 293.767,199.647 293.521,199.647 293.438 C 199.647 293.249,198.295 293.310,197.350 293.541 M206.714 294.079 C 213.571 296.191,217.644 302.173,217.663 310.159 L 217.668 312.367 205.484 312.367 L 193.300 312.367 193.067 313.293 C 192.764 314.504,193.527 318.830,194.400 320.848 C 197.539 328.102,208.019 328.602,213.103 321.739 C 215.753 318.162,215.125 318.405,217.604 320.000 C 218.368 320.492,213.875 326.136,211.427 327.761 C 202.067 333.973,190.587 329.891,186.523 318.905 C 185.981 317.438,185.903 317.348,186.066 318.375 C 187.675 328.537,200.182 334.061,210.163 329.017 C 213.413 327.374,218.465 321.454,217.892 319.960 C 217.428 318.753,215.171 318.116,214.533 319.012 C 210.431 324.780,207.478 326.477,202.270 326.059 C 197.055 325.640,193.887 321.626,193.836 315.371 L 193.816 312.898 205.972 312.804 L 218.127 312.711 217.922 309.084 C 217.442 300.608,212.409 294.161,205.708 293.440 C 204.245 293.282,204.356 293.353,206.714 294.079 M228.946 293.416 C 228.865 293.487,226.818 293.651,224.398 293.780 C 218.227 294.110,218.316 294.076,218.445 296.067 L 218.551 297.703 221.488 297.894 C 225.340 298.144,225.077 297.119,225.083 311.901 C 225.089 326.612,225.275 325.795,221.926 325.795 C 219.503 325.795,218.988 326.232,219.147 328.156 L 219.258 329.505 229.329 329.513 L 239.399 329.522 229.417 329.420 L 219.435 329.318 219.435 327.948 C 219.435 326.344,219.758 326.148,222.400 326.148 C 225.819 326.148,225.618 327.028,225.618 312.055 C 225.618 296.690,225.924 297.805,221.632 297.527 L 218.905 297.350 218.796 296.037 C 218.662 294.422,218.508 294.464,225.605 294.165 C 228.512 294.043,231.057 293.915,231.258 293.880 C 231.492 293.839,231.661 295.453,231.724 298.322 C 231.837 303.462,231.984 303.663,233.416 300.629 C 234.809 297.676,237.774 294.710,240.107 293.938 C 241.369 293.521,241.621 293.345,240.989 293.323 C 238.828 293.249,235.264 296.201,233.499 299.529 C 232.315 301.761,232.155 301.482,232.155 297.173 L 232.155 293.286 230.624 293.286 C 229.782 293.286,229.027 293.344,228.946 293.416 M245.459 293.892 C 251.098 296.317,250.921 304.358,245.230 304.358 C 241.965 304.358,240.015 301.142,241.518 298.236 C 242.651 296.046,239.308 297.044,237.027 299.577 C 233.619 303.360,232.492 307.485,232.252 317.045 C 232.025 326.064,232.054 326.146,235.432 326.153 C 238.719 326.160,239.159 326.353,239.333 327.863 C 239.453 328.905,239.474 328.847,239.440 327.562 L 239.399 325.972 236.500 325.795 C 232.726 325.565,232.712 325.547,232.562 320.743 C 232.195 308.960,234.819 300.516,239.620 298.034 C 240.974 297.333,240.943 297.291,240.745 299.558 C 240.353 304.044,244.978 306.544,248.376 303.685 C 251.765 300.833,249.657 294.151,245.145 293.442 C 244.059 293.272,244.077 293.298,245.459 293.892 M257.774 294.137 C 252.800 296.513,250.909 301.601,252.668 307.872 C 253.632 311.309,257.352 313.678,264.134 315.174 C 265.106 315.388,266.935 315.788,268.198 316.063 C 275.333 317.616,277.048 323.124,271.315 326.074 C 265.206 329.217,257.848 325.026,255.459 317.042 C 254.986 315.463,254.272 315.016,252.598 315.253 L 251.767 315.371 251.672 323.048 L 251.576 330.725 252.493 330.955 C 253.754 331.272,254.950 330.646,255.907 329.169 C 256.883 327.663,256.826 327.667,258.917 328.942 C 268.863 335.010,281.047 328.292,279.697 317.486 C 278.932 311.364,276.094 309.474,263.781 306.880 C 257.486 305.555,255.380 303.012,257.585 299.396 C 260.742 294.217,269.652 296.633,272.975 303.570 C 273.478 304.619,274.017 305.716,274.174 306.007 C 274.341 306.318,274.954 306.537,275.657 306.537 L 276.855 306.537 276.855 300.000 L 276.855 293.463 275.697 293.351 C 274.745 293.260,274.343 293.461,273.440 294.481 L 272.342 295.721 270.240 294.660 C 269.024 294.046,267.369 293.533,266.313 293.442 L 264.488 293.285 266.608 293.809 C 267.774 294.098,269.570 294.774,270.600 295.312 L 272.471 296.290 273.426 295.138 C 274.148 294.268,274.663 293.987,275.530 293.990 L 276.678 293.993 276.678 299.962 C 276.678 306.166,276.585 306.545,275.180 306.043 C 274.841 305.922,274.030 304.712,273.376 303.353 C 270.868 298.139,266.242 295.440,261.599 296.480 C 254.352 298.104,254.658 305.547,262.032 307.001 C 276.142 309.783,278.405 311.219,279.123 317.845 C 280.302 328.737,268.487 334.520,258.252 328.059 L 256.929 327.224 255.850 328.534 C 255.256 329.254,254.770 329.966,254.770 330.116 C 254.770 330.266,254.134 330.389,253.357 330.389 L 251.943 330.389 251.943 323.145 L 251.943 315.901 253.301 315.901 C 254.592 315.901,254.680 315.975,255.108 317.403 C 257.978 327.002,270.069 331.317,274.111 324.184 C 276.604 319.785,274.419 316.983,267.258 315.396 C 261.128 314.036,260.002 313.720,258.042 312.802 C 249.589 308.843,250.665 296.665,259.709 293.933 C 261.284 293.458,261.456 293.339,260.601 293.318 C 260.018 293.305,258.746 293.673,257.774 294.137 M288.163 293.679 C 281.801 294.158,281.791 294.300,288.130 294.123 C 291.417 294.031,294.243 293.924,294.411 293.886 C 294.579 293.848,294.752 300.844,294.796 309.435 C 294.887 327.203,294.622 325.884,298.162 326.148 L 300.530 326.325 300.639 327.827 L 300.747 329.329 291.363 329.329 L 281.979 329.329 281.979 327.794 L 281.979 326.260 284.364 326.186 C 288.354 326.064,288.143 326.766,288.274 313.153 C 288.426 297.291,288.461 297.419,283.938 297.288 L 281.802 297.226 281.802 295.803 C 281.802 295.020,281.672 294.510,281.513 294.670 C 281.354 294.829,281.274 295.577,281.336 296.332 L 281.449 297.703 284.040 297.880 C 287.868 298.141,287.633 297.220,287.627 311.993 C 287.621 326.424,287.825 325.559,284.377 325.795 L 281.802 325.972 281.695 327.827 L 281.589 329.682 291.343 329.682 L 301.097 329.682 300.990 327.827 L 300.883 325.972 298.587 325.795 C 297.323 325.698,296.091 325.490,295.848 325.333 C 295.506 325.111,295.406 321.594,295.406 309.725 C 295.406 301.299,295.310 294.153,295.192 293.845 C 294.952 293.221,294.412 293.208,288.163 293.679 M147.767 295.987 C 147.699 297.932,147.958 298.233,149.699 298.233 C 151.637 298.233,152.247 299.131,155.585 306.890 C 165.754 330.527,166.033 331.095,167.456 331.095 C 168.961 331.095,168.829 331.338,173.129 320.671 C 174.069 318.339,175.983 313.648,177.382 310.247 C 178.781 306.846,180.103 303.526,180.319 302.868 C 180.974 300.879,183.354 298.539,184.990 298.275 L 186.396 298.048 186.503 296.190 L 186.610 294.332 179.082 294.428 L 171.555 294.523 171.444 295.873 C 171.300 297.611,171.847 298.233,173.516 298.233 C 176.673 298.233,176.838 299.848,174.338 306.272 C 168.766 320.593,169.299 319.419,168.788 318.508 C 168.089 317.263,161.772 302.655,161.213 300.993 C 160.537 298.980,160.949 298.233,162.735 298.233 C 164.745 298.233,165.018 297.976,165.018 296.075 L 165.018 294.346 156.802 294.428 L 148.587 294.509 156.625 294.611 L 164.664 294.713 164.664 296.080 C 164.664 297.432,164.647 297.449,163.049 297.689 C 159.165 298.271,159.085 297.926,167.395 316.537 C 169.364 320.947,169.141 321.096,172.059 313.428 C 173.280 310.221,174.827 306.185,175.497 304.460 C 177.311 299.791,176.745 298.106,173.203 297.631 C 171.764 297.438,171.731 297.403,171.731 296.067 L 171.731 294.700 178.975 294.700 L 186.219 294.700 186.219 296.067 C 186.219 297.386,186.163 297.450,184.628 297.880 C 182.241 298.549,180.997 300.186,178.850 305.489 C 177.829 308.009,176.847 310.389,176.666 310.777 C 176.241 311.692,171.718 322.883,170.054 327.137 L 168.768 330.423 167.575 330.318 C 166.064 330.184,166.664 331.345,158.951 313.642 L 152.502 298.839 151.074 298.191 C 150.289 297.834,149.298 297.539,148.871 297.534 C 148.201 297.528,148.077 297.298,147.963 295.848 L 147.831 294.170 147.767 295.987 M326.148 296.106 C 326.148 298.009,326.742 298.488,328.674 298.144 C 329.303 298.032,329.132 297.926,327.972 297.711 L 326.439 297.426 326.561 295.886 C 326.628 295.039,326.563 294.346,326.416 294.346 C 326.269 294.346,326.148 295.138,326.148 296.106 M331.204 294.610 C 333.498 294.672,337.155 294.672,339.331 294.610 C 341.506 294.548,339.629 294.498,335.159 294.498 C 330.689 294.498,328.909 294.549,331.204 294.610 M343.816 296.021 L 343.816 297.738 342.572 297.593 C 339.185 297.197,338.528 298.767,340.381 302.827 C 340.868 303.896,341.912 306.281,342.699 308.127 C 343.487 309.973,344.314 311.882,344.538 312.367 C 344.762 312.853,345.526 314.589,346.236 316.225 C 347.814 319.863,348.016 319.946,349.071 317.396 C 349.532 316.282,350.113 314.894,350.362 314.311 C 353.414 307.179,355.830 301.028,355.830 300.391 C 355.830 299.309,355.208 298.233,354.581 298.233 C 354.190 298.233,354.236 298.405,354.770 298.940 C 355.689 299.858,355.667 300.171,354.474 303.246 C 352.753 307.683,347.983 318.772,347.853 318.642 C 347.323 318.112,339.578 299.666,339.654 299.117 C 339.737 298.524,340.065 298.392,341.685 298.300 C 342.748 298.240,343.822 298.022,344.071 297.815 C 344.604 297.372,344.681 294.839,344.170 294.523 C 343.953 294.389,343.816 294.967,343.816 296.021 M350.442 294.549 C 349.135 295.872,350.571 298.338,352.537 298.149 L 353.887 298.018 352.403 297.730 C 350.946 297.447,350.917 297.412,350.813 295.861 C 350.754 294.992,350.587 294.401,350.442 294.549 M358.216 294.611 L 365.018 294.715 365.018 296.075 C 365.018 297.386,364.961 297.451,363.418 297.883 C 362.437 298.157,361.467 298.748,360.910 299.410 C 359.862 300.656,360.083 300.171,352.413 318.021 C 345.076 335.097,345.390 334.399,343.902 336.926 C 340.078 343.419,333.314 346.633,328.390 344.297 C 323.607 342.027,324.549 335.159,329.643 335.159 C 332.682 335.159,333.392 335.914,333.392 339.145 L 333.392 341.519 334.520 341.470 C 336.891 341.365,339.828 338.045,342.612 332.321 C 344.596 328.242,344.650 328.823,341.705 322.438 C 341.346 321.661,339.753 318.004,338.165 314.311 C 335.120 307.230,334.966 306.879,333.244 303.067 C 332.645 301.742,332.155 300.533,332.155 300.380 C 332.155 299.939,330.463 298.233,330.025 298.233 C 329.806 298.233,330.084 298.690,330.642 299.248 C 331.201 299.806,332.397 301.993,333.301 304.107 C 334.206 306.221,336.942 312.562,339.382 318.198 L 343.818 328.445 343.040 330.389 C 340.043 337.875,333.077 344.675,333.799 339.409 C 334.595 333.601,325.966 332.594,324.883 338.368 C 323.465 345.928,334.913 347.990,341.188 341.305 C 344.309 337.980,344.472 337.641,356.866 308.834 C 360.538 300.299,361.844 298.233,363.570 298.233 C 365.063 298.233,365.371 297.864,365.371 296.075 L 365.371 294.346 358.392 294.427 L 351.413 294.507 358.216 294.611 M200.177 296.440 C 196.068 297.455,193.815 300.913,193.579 306.563 L 193.463 309.364 200.924 309.459 C 210.059 309.576,210.090 309.564,209.982 305.912 C 209.786 299.301,205.470 295.132,200.177 296.440 M205.281 297.517 C 208.345 299.080,210.932 306.202,209.195 308.295 C 208.428 309.219,193.640 309.090,193.640 308.158 C 193.640 299.914,199.492 294.563,205.281 297.517 M185.380 308.171 C 185.094 309.601,185.158 315.114,185.473 316.247 C 185.608 316.729,185.718 314.861,185.718 312.095 C 185.718 306.644,185.708 306.531,185.380 308.171 " stroke="none" fill="#d69090" fill-rule="evenodd"></path></g></svg>