<svg id="svg" version="1.1" xmlns="http://www.w3.org/2000/svg" xmlns:xlink="http://www.w3.org/1999/xlink" width="400" height="333.984375" viewBox="0, 0, 400,333.984375"><g id="svgg"><path id="path0" d="M200.167 77.732 L 200.167 155.464 201.754 155.233 C 202.627 155.106,203.772 154.792,204.298 154.534 C 204.824 154.277,206.403 153.748,207.807 153.360 C 209.211 152.972,210.671 152.457,211.052 152.215 C 211.433 151.973,212.352 151.593,213.095 151.370 C 214.431 150.970,214.443 150.953,214.175 149.752 C 214.026 149.084,213.666 144.553,213.374 139.683 C 213.082 134.812,212.407 123.985,211.875 115.622 C 211.342 107.260,210.666 96.282,210.371 91.228 C 210.077 86.174,209.694 80.610,209.520 78.864 C 209.346 77.118,209.050 72.682,208.862 69.006 C 208.526 62.412,206.480 30.213,205.179 11.028 C 204.811 5.606,204.511 0.906,204.511 0.585 C 204.511 0.088,204.185 0.000,202.339 0.000 L 200.167 0.000 200.167 77.732 M208.855 0.489 C 208.855 1.078,209.062 3.053,211.212 23.058 C 212.131 31.604,213.172 41.078,213.525 44.110 C 213.878 47.143,214.259 50.677,214.373 51.963 C 214.486 53.250,215.090 58.964,215.714 64.662 C 216.339 70.359,217.456 80.660,218.196 87.552 C 218.937 94.444,219.842 102.640,220.209 105.764 C 220.576 108.889,221.032 113.099,221.223 115.121 C 221.703 120.195,224.205 143.272,224.425 144.644 C 224.587 145.657,224.657 145.717,225.167 145.279 C 225.477 145.012,226.370 144.444,227.151 144.015 C 227.932 143.586,228.571 143.113,228.571 142.963 C 228.571 142.813,228.732 142.690,228.928 142.690 C 229.274 142.690,231.268 141.306,232.211 140.411 C 232.466 140.169,233.068 139.719,233.547 139.411 C 234.027 139.103,234.693 138.511,235.028 138.097 C 235.363 137.682,235.834 137.343,236.074 137.343 C 236.313 137.343,236.697 137.118,236.926 136.842 C 237.272 136.425,237.230 136.341,236.682 136.341 C 236.134 136.341,235.961 135.987,235.660 134.252 C 235.461 133.104,234.544 127.728,233.622 122.306 C 232.700 116.884,231.177 107.937,230.238 102.423 C 229.298 96.909,227.932 88.864,227.202 84.545 C 226.472 80.226,225.342 73.609,224.692 69.841 C 224.042 66.074,222.931 59.532,222.224 55.305 C 221.516 51.078,220.013 42.206,218.883 35.589 C 217.754 28.972,216.250 20.100,215.543 15.873 C 214.835 11.646,214.015 6.834,213.720 5.180 C 213.426 3.525,213.107 1.683,213.010 1.086 C 212.813 -0.137,208.855 -0.706,208.855 0.489 M216.876 0.632 C 216.876 0.846,217.392 3.385,218.023 6.275 C 219.215 11.731,220.959 19.820,223.047 29.574 C 223.716 32.698,224.559 36.563,224.919 38.161 C 225.280 39.760,225.943 42.843,226.392 45.012 C 226.841 47.181,228.349 54.219,229.743 60.652 C 231.137 67.084,232.719 74.453,233.260 77.026 C 233.801 79.599,234.782 84.185,235.441 87.218 C 236.100 90.251,237.073 94.762,237.604 97.243 C 238.135 99.724,239.166 104.536,239.895 107.937 C 240.625 111.337,241.537 115.622,241.923 117.460 C 244.333 128.947,244.434 129.214,245.764 127.570 C 246.248 126.972,246.981 126.107,247.395 125.647 C 248.511 124.406,250.816 121.256,251.306 120.301 C 251.542 119.841,251.995 119.281,252.312 119.055 C 252.988 118.576,253.477 116.945,253.032 116.657 C 252.863 116.547,252.100 114.202,251.337 111.445 C 250.573 108.688,249.509 104.854,248.973 102.924 C 248.436 100.994,247.447 97.385,246.775 94.904 C 246.103 92.423,245.034 88.513,244.398 86.216 C 243.762 83.918,242.709 80.084,242.058 77.694 C 241.407 75.305,240.575 72.312,240.211 71.042 C 239.846 69.773,239.124 67.141,238.606 65.194 C 238.088 63.247,236.437 57.218,234.937 51.796 C 233.438 46.374,231.909 40.810,231.540 39.432 C 231.171 38.053,230.514 35.647,230.081 34.085 C 229.648 32.523,228.819 29.515,228.238 27.402 C 227.658 25.288,226.679 21.754,226.063 19.549 C 222.902 8.236,221.193 1.554,221.354 1.135 C 221.476 0.818,221.284 0.668,220.755 0.668 C 220.327 0.668,219.279 0.573,218.426 0.456 C 217.348 0.308,216.876 0.362,216.876 0.632 M225.332 2.238 C 225.678 3.920,258.359 106.425,258.643 106.719 C 259.007 107.097,259.516 106.101,260.365 103.346 C 260.748 102.103,261.188 101.006,261.342 100.909 C 261.497 100.811,262.010 99.157,262.481 97.233 C 262.953 95.309,263.474 93.493,263.639 93.197 C 263.848 92.824,263.757 92.466,263.341 92.027 C 263.012 91.680,262.278 90.117,261.711 88.555 C 260.260 84.560,258.578 80.066,254.644 69.674 C 252.766 64.712,249.739 56.667,247.918 51.796 C 246.097 46.926,244.387 42.414,244.119 41.771 C 243.851 41.128,242.740 38.195,241.650 35.255 C 239.886 30.494,236.383 21.197,231.274 7.711 C 230.339 5.244,229.574 2.946,229.574 2.605 C 229.574 1.885,229.363 1.798,226.939 1.513 L 225.139 1.302 225.332 2.238 M233.584 3.292 C 233.584 3.448,234.571 5.892,235.777 8.722 C 236.983 11.552,238.505 15.146,239.159 16.708 C 239.813 18.271,240.763 20.526,241.270 21.721 C 242.245 24.019,243.669 27.424,245.952 32.916 C 246.716 34.754,248.294 38.513,249.458 41.270 C 250.623 44.027,252.584 48.688,253.817 51.629 C 255.051 54.570,256.475 57.953,256.982 59.148 C 257.489 60.343,258.690 63.200,259.649 65.497 C 260.609 67.794,261.806 70.652,262.310 71.846 C 262.815 73.041,263.650 75.040,264.168 76.289 C 264.686 77.538,265.234 78.637,265.387 78.732 C 265.965 79.089,265.717 61.431,265.134 60.787 C 264.843 60.465,263.360 57.596,261.839 54.412 C 237.662 3.787,237.932 4.372,238.680 4.309 C 239.053 4.278,234.451 3.055,233.835 3.021 C 233.697 3.014,233.584 3.135,233.584 3.292 M265.458 47.619 C 265.458 49.825,265.512 50.683,265.578 49.527 C 265.643 48.372,265.643 46.567,265.577 45.517 C 265.510 44.468,265.457 45.414,265.458 47.619 M168.974 52.130 C 168.880 52.406,168.084 54.846,167.203 57.553 L 165.603 62.474 159.917 62.566 L 154.231 62.657 158.569 65.801 C 160.955 67.530,162.998 69.083,163.109 69.250 C 163.220 69.418,162.579 71.833,161.685 74.616 C 160.791 77.400,160.099 79.780,160.147 79.906 C 160.195 80.031,162.169 78.720,164.534 76.992 C 169.718 73.206,168.697 73.205,173.935 76.996 C 176.324 78.724,178.327 80.092,178.387 80.034 C 178.446 79.977,177.731 77.574,176.799 74.696 C 175.867 71.817,175.104 69.423,175.104 69.376 C 175.104 69.328,177.139 67.797,179.626 65.973 L 184.147 62.657 178.657 62.565 C 172.279 62.459,172.851 62.797,171.461 58.312 C 169.987 53.556,169.175 51.538,168.974 52.130 " stroke="none" fill="#faf7f7" fill-rule="evenodd"></path><path id="path1" d="M11.195 180.594 C 3.657 182.730,0.185 187.744,0.187 196.491 C 0.189 202.972,3.089 208.299,7.174 209.324 C 7.639 209.441,8.020 209.662,8.020 209.814 C 8.020 209.967,9.336 210.528,10.944 211.061 C 12.552 211.594,13.943 212.122,14.035 212.235 C 14.127 212.347,15.781 212.832,17.711 213.312 C 31.904 216.844,34.085 218.339,34.085 224.536 C 34.085 230.395,30.010 234.550,24.227 234.588 C 23.492 234.593,22.670 234.736,22.401 234.907 C 22.131 235.077,21.755 235.095,21.565 234.946 C 21.375 234.797,20.317 234.588,19.215 234.482 C 13.036 233.887,7.575 228.994,5.532 222.222 C 5.226 221.211,4.845 220.140,4.683 219.841 C 4.522 219.542,4.291 218.715,4.171 218.003 C 3.746 215.495,3.788 215.539,1.815 215.539 L 0.000 215.539 0.000 227.251 L 0.000 238.964 1.887 238.864 C 3.341 238.787,3.858 238.614,4.143 238.113 C 4.345 237.756,4.780 237.157,5.109 236.783 C 5.438 236.409,5.792 235.762,5.897 235.345 C 6.114 234.482,7.263 234.302,7.563 235.083 C 8.351 237.136,15.854 239.386,21.888 239.381 C 30.818 239.373,36.141 236.890,39.330 231.245 C 41.856 226.772,41.910 216.539,39.424 213.130 C 39.061 212.632,38.761 212.105,38.759 211.960 C 38.750 211.461,35.254 208.298,33.751 207.427 C 31.243 205.975,26.715 204.479,21.888 203.506 C 20.785 203.284,19.733 202.997,19.549 202.869 C 19.365 202.741,18.012 202.357,16.541 202.017 C 14.009 201.431,12.183 200.696,9.815 199.310 C 8.903 198.776,8.459 198.115,6.968 195.076 C 6.604 194.333,6.599 192.377,6.961 191.963 C 7.114 191.789,7.422 191.004,7.645 190.220 C 8.667 186.625,11.480 185.032,16.876 184.992 C 20.389 184.966,25.047 185.962,25.069 186.744 C 25.072 186.867,25.821 187.419,26.734 187.970 C 27.646 188.521,28.395 189.147,28.398 189.360 C 28.402 189.574,28.818 190.108,29.323 190.548 C 29.829 190.987,30.688 192.241,31.232 193.334 C 31.777 194.427,32.318 195.397,32.436 195.489 C 32.663 195.666,33.889 199.379,34.229 200.919 C 34.426 201.809,34.503 201.838,36.646 201.838 L 38.860 201.838 38.656 199.582 C 38.544 198.342,38.348 193.605,38.222 189.056 L 37.992 180.785 35.880 180.785 C 33.834 180.785,33.751 180.819,33.212 181.871 C 32.906 182.469,32.548 183.033,32.418 183.124 C 32.287 183.216,32.007 183.620,31.796 184.021 L 31.412 184.750 29.708 183.603 C 28.770 182.972,27.793 182.456,27.535 182.456 C 27.278 182.456,27.068 182.313,27.068 182.138 C 27.068 180.717,14.928 179.536,11.195 180.594 M363.576 180.318 C 363.116 180.374,361.274 180.516,359.482 180.633 L 356.224 180.848 356.224 182.460 C 356.224 185.059,356.299 185.129,359.076 185.129 C 362.932 185.129,362.573 182.630,362.573 209.507 C 362.573 236.046,362.919 233.510,359.260 233.817 L 356.892 234.015 356.892 236.139 L 356.892 238.262 366.750 238.262 L 376.608 238.262 376.608 236.138 L 376.608 234.014 374.185 233.793 C 370.956 233.499,370.928 233.450,370.925 228.090 L 370.922 223.726 372.846 221.972 C 375.118 219.901,375.017 219.923,375.901 221.303 C 376.284 221.901,377.124 223.066,377.767 223.893 C 378.411 224.720,379.525 226.230,380.244 227.248 C 380.963 228.266,381.792 229.300,382.087 229.545 C 382.382 229.790,382.623 230.151,382.623 230.348 C 382.623 230.546,383.019 231.120,383.502 231.624 C 384.793 232.972,384.387 233.485,381.809 233.761 L 379.616 233.996 379.616 236.129 L 379.616 238.262 389.808 238.262 L 400.000 238.262 400.000 236.114 L 400.000 233.966 398.187 233.589 C 395.987 233.133,393.981 231.740,392.548 229.677 C 391.617 228.337,390.779 227.251,388.795 224.820 C 388.536 224.502,387.923 223.637,387.434 222.898 C 386.945 222.159,386.414 221.554,386.255 221.554 C 386.095 221.554,385.965 221.393,385.965 221.197 C 385.965 220.819,384.626 218.957,383.375 217.596 C 382.962 217.146,382.623 216.657,382.623 216.510 C 382.623 216.362,382.241 215.830,381.775 215.326 C 381.030 214.522,380.992 214.374,381.464 214.110 C 381.759 213.944,382.780 213.054,383.732 212.132 C 385.371 210.544,387.433 208.829,389.464 207.365 C 390.769 206.424,392.510 205.867,394.904 205.627 L 396.992 205.417 396.992 203.460 L 396.992 201.504 386.633 201.504 L 376.274 201.504 376.274 203.509 L 376.274 205.514 378.530 205.518 C 381.236 205.524,382.289 205.768,382.289 206.388 C 382.289 206.857,382.066 207.101,379.727 209.190 C 376.298 212.252,372.091 216.105,371.540 216.688 C 370.945 217.317,370.927 216.785,370.927 198.726 L 370.927 180.117 367.669 180.167 C 365.877 180.195,364.035 180.263,363.576 180.318 M200.743 181.323 C 200.610 181.456,200.501 182.501,200.501 183.646 C 200.501 186.140,200.488 186.132,204.475 186.132 C 209.171 186.132,208.674 183.483,208.779 209.076 C 208.889 235.641,209.350 233.584,203.277 233.584 L 200.471 233.584 200.570 235.840 L 200.668 238.095 218.379 238.095 L 236.090 238.095 238.429 237.286 C 239.716 236.840,241.408 236.256,242.189 235.987 C 242.970 235.718,243.609 235.378,243.609 235.232 C 243.609 235.085,243.935 234.862,244.334 234.736 C 249.270 233.169,252.346 222.236,249.491 216.406 C 247.645 212.638,243.151 209.313,238.929 208.592 L 237.533 208.354 240.395 206.909 C 251.448 201.329,250.259 186.398,238.429 182.236 L 235.756 181.296 218.370 181.189 C 208.808 181.130,200.876 181.191,200.743 181.323 M51.454 187.035 C 51.446 188.714,51.308 189.385,50.130 193.484 C 49.375 196.111,47.435 199.132,46.028 199.873 C 45.617 200.090,45.198 200.391,45.098 200.543 C 44.998 200.695,44.020 201.023,42.926 201.272 L 40.936 201.724 40.936 203.702 L 40.936 205.681 44.027 205.777 L 47.118 205.873 47.124 217.306 C 47.134 237.473,47.711 238.932,55.787 239.209 C 61.505 239.406,64.103 238.314,67.130 234.441 C 68.024 233.298,68.881 229.713,69.077 226.298 L 69.276 222.854 67.303 222.956 L 65.330 223.058 65.240 224.896 C 65.191 225.906,65.013 227.034,64.846 227.402 C 64.678 227.769,64.359 228.672,64.137 229.407 C 63.241 232.373,61.423 233.777,58.855 233.487 C 55.672 233.128,55.476 232.208,55.474 217.627 L 55.472 205.848 61.153 205.848 L 66.834 205.848 66.834 203.676 L 66.834 201.504 61.326 201.504 L 55.818 201.504 55.729 193.567 L 55.639 185.631 53.551 185.531 L 51.462 185.432 51.454 187.035 M232.754 186.985 C 236.307 188.723,237.370 190.878,237.361 196.324 C 237.348 204.067,233.741 206.516,222.346 206.516 L 218.212 206.516 218.212 197.377 C 218.212 187.377,218.369 186.273,219.825 186.011 C 222.828 185.472,230.904 186.080,232.754 186.985 M84.962 200.053 C 84.365 200.139,83.876 200.350,83.876 200.522 C 83.876 200.695,83.523 200.835,83.091 200.835 C 81.508 200.835,75.552 203.956,75.513 204.806 C 75.507 204.920,74.908 205.682,74.180 206.500 C 73.452 207.318,72.687 208.521,72.481 209.173 C 72.275 209.826,71.895 210.696,71.637 211.107 C 69.945 213.805,69.803 226.784,71.454 227.881 C 71.611 227.985,71.972 228.761,72.256 229.604 C 72.982 231.764,76.946 236.591,77.993 236.591 C 78.112 236.591,78.771 236.961,79.456 237.413 C 83.341 239.976,92.489 239.862,97.220 237.192 C 108.289 230.945,109.123 211.364,98.673 203.117 C 95.896 200.926,89.232 199.437,84.962 200.053 M274.854 200.046 C 274.486 200.132,273.885 200.329,273.517 200.485 C 273.150 200.641,272.322 200.967,271.679 201.210 C 270.165 201.783,267.794 204.228,266.696 206.349 L 265.831 208.020 265.664 204.177 L 265.497 200.334 264.389 200.228 C 263.780 200.169,263.103 200.262,262.885 200.435 C 262.668 200.607,260.016 200.852,256.993 200.980 C 250.488 201.255,250.961 201.055,250.961 203.528 L 250.961 205.514 253.278 205.514 C 255.652 205.514,257.268 205.917,257.716 206.621 C 257.855 206.839,257.970 212.839,257.973 219.955 C 257.979 234.921,258.376 233.504,254.090 233.828 L 251.600 234.017 251.698 236.056 L 251.796 238.095 262.573 238.183 L 273.350 238.272 273.350 236.095 L 273.350 233.918 271.559 233.918 C 265.833 233.918,265.664 233.697,265.664 226.181 C 265.664 223.268,265.795 220.886,265.955 220.886 C 266.115 220.886,266.349 219.841,266.475 218.564 C 266.951 213.729,268.840 209.349,271.509 206.889 C 273.380 205.165,273.931 205.114,273.747 206.685 C 273.165 211.676,278.413 214.599,282.201 211.394 C 286.981 207.351,281.285 198.553,274.854 200.046 M298.747 200.039 C 298.287 200.125,297.611 200.316,297.243 200.463 C 296.876 200.610,295.748 200.999,294.737 201.327 C 290.545 202.686,286.418 206.943,285.171 211.195 C 284.874 212.206,284.461 213.244,284.254 213.501 C 283.727 214.156,283.741 224.851,284.270 225.930 C 284.487 226.372,284.901 227.485,285.190 228.404 C 285.479 229.323,286.054 230.589,286.467 231.218 C 286.880 231.846,287.368 232.598,287.552 232.889 C 291.369 238.920,303.283 241.282,310.316 237.402 C 312.448 236.225,315.455 233.630,315.455 232.966 C 315.455 232.754,315.568 232.581,315.706 232.581 C 317.713 232.578,320.794 217.186,319.206 215.094 C 319.043 214.879,318.708 213.801,318.463 212.698 C 318.067 210.921,317.531 209.652,316.249 207.451 C 314.819 204.998,311.094 202.056,308.456 201.297 C 307.435 201.003,306.306 200.608,305.946 200.419 C 305.245 200.050,300.128 199.780,298.747 200.039 M336.591 200.052 C 335.994 200.139,335.505 200.350,335.505 200.522 C 335.505 200.695,335.152 200.835,334.720 200.835 C 333.110 200.835,327.151 203.977,327.151 204.826 C 327.151 204.951,326.726 205.495,326.206 206.035 C 321.464 210.966,320.466 223.447,324.250 230.514 C 325.379 232.624,328.896 236.591,329.636 236.591 C 329.852 236.591,330.531 236.962,331.145 237.415 C 335.017 240.272,344.976 239.819,349.877 236.564 C 351.622 235.404,352.159 234.878,353.994 232.528 C 358.081 227.293,358.817 216.407,355.540 209.661 C 353.391 205.238,348.183 200.835,345.100 200.835 C 344.632 200.835,344.199 200.683,344.137 200.498 C 344.015 200.131,338.356 199.797,336.591 200.052 M117.794 200.501 C 117.681 200.685,116.657 200.836,115.519 200.837 C 114.381 200.838,111.752 200.936,109.676 201.056 L 105.902 201.273 106.000 203.310 L 106.099 205.347 108.271 205.432 C 112.927 205.615,112.661 204.690,112.543 220.299 C 112.435 234.517,112.681 233.480,109.349 233.790 L 106.934 234.014 106.934 236.138 L 106.934 238.262 116.589 238.262 C 127.435 238.262,126.650 238.469,126.650 235.610 L 126.650 234.015 124.282 233.817 C 120.676 233.514,120.904 234.262,121.054 223.249 C 121.216 211.419,121.657 209.920,125.714 207.412 C 129.413 205.125,136.007 206.981,136.007 210.309 C 136.007 210.591,136.157 210.914,136.341 211.028 C 136.552 211.158,136.675 215.135,136.675 221.856 C 136.675 234.301,136.901 233.561,133.008 233.840 L 130.660 234.008 130.660 236.140 L 130.660 238.272 140.602 238.184 L 150.543 238.095 150.641 236.056 L 150.739 234.017 148.145 233.821 C 144.467 233.542,144.695 234.348,144.695 221.640 C 144.695 210.961,144.280 206.182,143.354 206.182 C 143.197 206.182,142.964 205.850,142.835 205.443 C 142.226 203.526,138.235 200.835,135.999 200.835 C 135.473 200.835,134.951 200.685,134.837 200.501 C 134.584 200.092,130.436 200.053,130.186 200.457 C 130.088 200.616,129.340 200.822,128.526 200.914 C 126.441 201.149,124.430 202.212,122.389 204.159 L 120.635 205.833 120.635 203.401 C 120.635 201.955,120.472 200.807,120.234 200.568 C 119.748 200.082,118.082 200.037,117.794 200.501 M147.034 203.275 C 147.034 205.337,147.416 205.848,148.956 205.848 C 151.237 205.848,152.536 206.985,153.729 210.025 C 154.162 211.128,154.787 212.481,155.118 213.033 C 155.449 213.584,155.721 214.235,155.721 214.479 C 155.722 214.723,156.245 216.009,156.884 217.337 C 157.522 218.664,158.279 220.413,158.564 221.223 C 158.850 222.033,159.194 222.778,159.328 222.877 C 159.461 222.976,159.858 223.885,160.209 224.896 C 160.560 225.906,161.273 227.579,161.794 228.613 C 162.314 229.646,162.740 230.596,162.740 230.722 C 162.740 230.849,163.104 231.732,163.548 232.686 C 165.536 236.952,165.519 236.443,163.787 239.967 C 160.004 247.663,155.271 252.052,155.634 247.527 C 155.768 245.857,155.689 245.294,155.262 244.867 C 154.964 244.569,154.720 244.156,154.720 243.950 C 154.720 242.781,150.444 242.226,148.510 243.143 C 144.744 244.931,145.129 251.369,149.122 253.383 C 152.605 255.140,160.696 253.863,161.638 251.406 C 161.732 251.161,161.954 250.961,162.131 250.961 C 162.895 250.961,165.954 246.758,167.362 243.776 C 169.345 239.577,170.092 237.937,170.092 237.782 C 170.092 237.687,170.599 236.515,171.218 235.179 C 171.838 233.842,172.536 232.147,172.770 231.412 C 173.005 230.677,173.324 229.992,173.479 229.890 C 173.635 229.788,174.109 228.712,174.534 227.498 C 174.958 226.284,175.458 225.090,175.644 224.843 C 175.830 224.596,176.411 223.266,176.935 221.888 C 177.460 220.510,178.071 219.081,178.294 218.713 C 178.517 218.346,179.054 217.030,179.488 215.789 C 179.923 214.549,180.392 213.534,180.532 213.534 C 180.671 213.534,180.786 213.346,180.787 213.116 C 180.788 212.886,180.998 212.299,181.252 211.812 C 181.506 211.324,181.893 210.384,182.111 209.723 C 182.329 209.062,182.623 208.521,182.763 208.521 C 182.903 208.521,183.192 208.138,183.406 207.669 C 183.823 206.753,185.584 205.848,186.950 205.848 C 187.923 205.848,188.245 205.027,188.077 202.976 L 187.970 201.671 180.033 201.581 L 172.097 201.492 172.097 203.670 L 172.097 205.848 173.860 205.848 C 177.202 205.848,177.869 207.328,176.125 210.875 C 175.723 211.694,175.020 213.342,174.565 214.536 C 174.109 215.731,173.367 217.489,172.916 218.442 C 172.466 219.396,172.097 220.335,172.097 220.530 C 172.097 220.724,171.646 221.839,171.094 223.006 C 170.543 224.173,170.092 225.301,170.092 225.513 C 170.092 225.725,169.942 225.898,169.758 225.898 C 169.574 225.898,169.424 225.616,169.424 225.271 C 169.424 224.926,169.198 224.456,168.922 224.227 C 168.647 223.998,168.421 223.602,168.421 223.345 C 168.421 223.089,167.744 221.432,166.917 219.662 C 166.090 217.892,165.414 216.306,165.414 216.138 C 165.414 215.971,164.812 214.573,164.077 213.033 C 163.342 211.492,162.740 210.120,162.740 209.983 C 162.740 209.847,162.425 209.083,162.039 208.286 C 161.028 206.199,161.291 205.848,163.864 205.848 C 166.312 205.848,166.416 205.737,166.416 203.147 L 166.416 201.504 156.725 201.504 L 147.034 201.504 147.034 203.275 M92.356 205.627 C 95.188 207.786,96.041 209.797,96.625 215.686 C 97.604 225.550,95.561 232.973,91.518 234.244 C 90.715 234.496,89.916 234.827,89.741 234.979 C 89.328 235.338,87.040 235.335,86.295 234.973 C 85.975 234.819,85.033 234.364,84.201 233.963 C 81.430 232.630,80.103 229.603,79.560 223.381 C 79.117 218.292,79.971 209.190,80.891 209.190 C 81.018 209.190,81.312 208.731,81.544 208.171 C 83.019 204.609,89.136 203.170,92.356 205.627 M344.101 205.696 C 347.366 208.043,348.345 211.368,348.329 220.050 C 348.312 228.973,346.808 233.093,343.146 234.244 C 342.344 234.496,341.545 234.827,341.370 234.979 C 340.913 235.376,339.035 235.318,337.944 234.874 C 335.331 233.808,334.809 233.477,333.870 232.292 C 329.652 226.966,330.240 209.594,334.753 206.210 C 335.259 205.831,335.891 205.335,336.157 205.108 C 337.525 203.940,342.133 204.282,344.101 205.696 M306.111 205.763 C 306.748 206.359,307.379 206.848,307.514 206.849 C 307.792 206.851,308.493 208.401,309.556 211.362 C 310.384 213.669,310.660 225.978,309.905 226.933 C 309.701 227.191,309.449 227.854,309.345 228.406 C 308.687 231.893,307.853 232.806,303.346 234.976 C 302.540 235.364,300.167 235.326,299.916 234.921 C 299.803 234.737,299.448 234.586,299.128 234.586 C 297.821 234.586,295.722 232.779,294.859 230.911 C 294.392 229.900,293.862 228.794,293.681 228.454 C 292.600 226.422,292.638 211.616,293.725 211.253 C 293.914 211.190,294.069 210.917,294.069 210.645 C 294.069 210.373,294.438 209.369,294.890 208.414 C 295.647 206.814,296.121 206.359,298.530 204.917 C 300.068 203.997,304.790 204.524,306.111 205.763 M228.430 211.223 C 236.896 212.064,240.477 215.984,239.821 223.693 C 239.194 231.049,235.420 233.578,225.063 233.580 C 217.864 233.581,218.212 234.218,218.212 221.037 L 218.212 210.860 221.496 210.860 C 223.302 210.860,226.422 211.024,228.430 211.223 M60.071 314.689 C 60.486 314.769,61.088 314.766,61.407 314.682 C 61.727 314.599,61.387 314.533,60.652 314.537 C 59.916 314.541,59.655 314.609,60.071 314.689 M202.761 314.689 C 203.176 314.769,203.778 314.766,204.097 314.682 C 204.417 314.599,204.077 314.533,203.342 314.537 C 202.607 314.541,202.345 314.609,202.761 314.689 " stroke="none" fill="#040404" fill-rule="evenodd"></path><path id="path2" d="M213.277 1.003 C 213.277 1.646,213.346 1.909,213.430 1.587 C 213.514 1.266,213.514 0.739,213.430 0.418 C 213.346 0.096,213.277 0.359,213.277 1.003 M204.936 2.005 C 204.936 2.832,205.002 3.170,205.081 2.757 C 205.161 2.343,205.161 1.667,205.081 1.253 C 205.002 0.840,204.936 1.178,204.936 2.005 M216.598 1.504 C 216.593 1.871,216.718 2.473,216.876 2.840 C 217.241 3.692,217.241 2.813,216.876 1.671 C 216.660 0.999,216.606 0.966,216.598 1.504 M238.623 4.845 C 238.621 5.213,238.835 5.890,239.098 6.349 C 239.708 7.417,239.711 7.188,239.107 5.514 C 238.843 4.779,238.625 4.478,238.623 4.845 M205.271 7.352 C 205.271 8.179,205.336 8.517,205.415 8.104 C 205.495 7.690,205.495 7.013,205.415 6.600 C 205.336 6.186,205.271 6.525,205.271 7.352 M209.281 9.357 C 209.281 10.184,209.346 10.522,209.425 10.109 C 209.505 9.695,209.505 9.018,209.425 8.605 C 209.346 8.191,209.281 8.530,209.281 9.357 M209.615 12.364 C 209.615 13.191,209.680 13.530,209.760 13.116 C 209.839 12.703,209.839 12.026,209.760 11.612 C 209.680 11.199,209.615 11.537,209.615 12.364 M224.608 13.367 C 224.608 13.642,224.738 14.169,224.896 14.536 C 225.077 14.958,225.183 15.019,225.183 14.703 C 225.183 14.428,225.054 13.901,224.896 13.534 C 224.715 13.113,224.608 13.051,224.608 13.367 M205.939 19.716 C 205.939 20.543,206.004 20.881,206.084 20.468 C 206.163 20.054,206.163 19.378,206.084 18.964 C 206.004 18.551,205.939 18.889,205.939 19.716 M245.642 19.883 C 245.642 20.067,245.930 20.744,246.282 21.387 C 246.635 22.030,246.923 22.406,246.923 22.222 C 246.923 22.038,246.635 21.362,246.282 20.718 C 245.930 20.075,245.642 19.699,245.642 19.883 M206.294 23.726 C 206.294 25.104,206.353 25.668,206.426 24.979 C 206.498 24.290,206.498 23.162,206.426 22.473 C 206.353 21.784,206.294 22.348,206.294 23.726 M206.612 27.903 C 206.614 28.822,206.679 29.158,206.756 28.650 C 206.833 28.142,206.831 27.391,206.752 26.980 C 206.672 26.569,206.609 26.984,206.612 27.903 M250.191 29.570 C 250.496 30.211,250.806 30.676,250.878 30.603 C 251.031 30.450,250.017 28.404,249.788 28.404 C 249.704 28.404,249.885 28.929,250.191 29.570 M211.606 31.078 C 211.606 31.721,211.675 31.984,211.759 31.662 C 211.843 31.341,211.843 30.815,211.759 30.493 C 211.675 30.171,211.606 30.434,211.606 31.078 M229.287 30.409 C 229.287 30.685,229.416 31.211,229.574 31.579 C 229.755 32.000,229.861 32.062,229.861 31.746 C 229.861 31.470,229.732 30.944,229.574 30.576 C 229.393 30.155,229.287 30.093,229.287 30.409 M206.941 33.083 C 206.941 33.910,207.007 34.248,207.086 33.835 C 207.166 33.421,207.166 32.744,207.086 32.331 C 207.007 31.917,206.941 32.256,206.941 33.083 M211.954 33.751 C 211.954 34.578,212.019 34.916,212.099 34.503 C 212.178 34.089,212.178 33.413,212.099 32.999 C 212.019 32.586,211.954 32.924,211.954 33.751 M252.655 34.586 C 252.655 34.770,252.870 35.297,253.133 35.756 C 253.395 36.216,253.610 36.441,253.610 36.257 C 253.610 36.074,253.395 35.547,253.133 35.088 C 252.870 34.628,252.655 34.403,252.655 34.586 M246.306 34.921 C 246.306 35.104,246.521 35.631,246.784 36.090 C 247.046 36.550,247.261 36.775,247.261 36.591 C 247.261 36.408,247.046 35.881,246.784 35.422 C 246.521 34.962,246.306 34.737,246.306 34.921 M219.956 40.602 C 219.959 40.969,220.077 41.721,220.217 42.272 C 220.446 43.173,220.473 43.190,220.479 42.439 C 220.482 41.980,220.364 41.228,220.217 40.769 C 220.008 40.114,219.951 40.078,219.956 40.602 M257.208 44.273 C 257.514 44.914,257.823 45.379,257.896 45.307 C 258.049 45.154,257.034 43.108,256.806 43.108 C 256.721 43.108,256.902 43.632,257.208 44.273 M265.141 43.546 C 265.048 43.787,265.016 45.704,265.070 47.807 L 265.167 51.629 265.332 47.368 C 265.495 43.162,265.471 42.685,265.141 43.546 M207.610 45.447 C 207.610 46.274,207.675 46.612,207.755 46.199 C 207.834 45.785,207.834 45.109,207.755 44.695 C 207.675 44.282,207.610 44.620,207.610 45.447 M259.343 48.622 C 259.343 48.805,259.631 49.482,259.983 50.125 C 260.335 50.769,260.624 51.145,260.624 50.961 C 260.624 50.777,260.335 50.100,259.983 49.457 C 259.631 48.814,259.343 48.438,259.343 48.622 M207.937 50.627 C 207.941 51.362,208.009 51.623,208.089 51.207 C 208.169 50.792,208.166 50.190,208.083 49.871 C 207.999 49.551,207.934 49.891,207.937 50.627 M247.643 50.627 C 247.643 50.810,247.858 51.337,248.120 51.796 C 248.383 52.256,248.598 52.481,248.598 52.297 C 248.598 52.114,248.383 51.587,248.120 51.128 C 247.858 50.668,247.643 50.443,247.643 50.627 M167.790 54.172 C 167.584 54.763,167.474 55.305,167.545 55.376 C 167.617 55.448,167.844 55.023,168.050 54.432 C 168.256 53.842,168.366 53.300,168.294 53.229 C 168.223 53.157,167.996 53.582,167.790 54.172 M208.278 55.806 C 208.278 56.633,208.343 56.972,208.423 56.558 C 208.503 56.145,208.503 55.468,208.423 55.054 C 208.343 54.641,208.278 54.979,208.278 55.806 M171.620 58.145 C 171.743 58.605,171.983 59.206,172.153 59.482 C 172.369 59.830,172.395 59.728,172.240 59.148 C 172.117 58.688,171.877 58.087,171.706 57.811 C 171.491 57.463,171.465 57.565,171.620 58.145 M208.617 60.652 C 208.619 61.571,208.684 61.907,208.761 61.399 C 208.838 60.891,208.836 60.139,208.757 59.728 C 208.677 59.317,208.614 59.733,208.617 60.652 M244.135 63.158 C 244.258 63.617,244.498 64.219,244.668 64.495 C 244.883 64.843,244.909 64.741,244.754 64.160 C 244.631 63.701,244.391 63.099,244.221 62.824 C 244.006 62.475,243.979 62.577,244.135 63.158 M208.951 65.664 C 208.954 66.583,209.018 66.919,209.095 66.411 C 209.172 65.903,209.170 65.152,209.091 64.741 C 209.011 64.330,208.949 64.745,208.951 65.664 M230.309 65.330 C 230.309 65.698,230.429 66.374,230.576 66.834 C 230.788 67.495,230.844 67.530,230.844 67.001 C 230.844 66.633,230.724 65.957,230.576 65.497 C 230.365 64.836,230.309 64.801,230.309 65.330 M260.341 68.338 C 260.341 68.521,260.556 69.048,260.819 69.507 C 261.081 69.967,261.296 70.192,261.296 70.008 C 261.296 69.825,261.081 69.298,260.819 68.839 C 260.556 68.379,260.341 68.154,260.341 68.338 M209.274 71.011 C 209.278 71.746,209.346 72.007,209.426 71.592 C 209.506 71.176,209.503 70.575,209.419 70.255 C 209.336 69.936,209.270 70.276,209.274 71.011 M216.298 73.851 C 216.298 74.678,216.363 75.017,216.443 74.603 C 216.523 74.190,216.523 73.513,216.443 73.099 C 216.363 72.686,216.298 73.024,216.298 73.851 M209.615 76.190 C 209.615 77.018,209.680 77.356,209.760 76.942 C 209.839 76.529,209.839 75.852,209.760 75.439 C 209.680 75.025,209.615 75.363,209.615 76.190 M216.632 76.859 C 216.632 77.686,216.698 78.024,216.777 77.611 C 216.857 77.197,216.857 76.520,216.777 76.107 C 216.698 75.693,216.632 76.032,216.632 76.859 M165.246 76.733 C 164.646 77.245,164.523 77.448,164.940 77.241 C 165.552 76.937,166.701 75.837,166.373 75.868 C 166.305 75.875,165.798 76.264,165.246 76.733 M248.813 77.861 C 248.936 78.321,249.176 78.922,249.346 79.198 C 249.562 79.546,249.588 79.444,249.433 78.864 C 249.310 78.404,249.070 77.803,248.899 77.527 C 248.684 77.179,248.658 77.281,248.813 77.861 M209.942 81.370 C 209.946 82.105,210.014 82.367,210.094 81.951 C 210.174 81.535,210.171 80.934,210.088 80.614 C 210.004 80.295,209.939 80.635,209.942 81.370 M251.152 85.213 C 251.275 85.673,251.515 86.274,251.685 86.550 C 251.901 86.898,251.927 86.796,251.772 86.216 C 251.649 85.756,251.409 85.155,251.239 84.879 C 251.023 84.530,250.997 84.632,251.152 85.213 M210.276 86.717 C 210.280 87.452,210.349 87.713,210.428 87.298 C 210.508 86.882,210.505 86.281,210.422 85.961 C 210.338 85.642,210.273 85.982,210.276 86.717 M234.977 87.051 C 234.972 87.419,235.097 88.020,235.255 88.388 C 235.621 89.239,235.621 88.361,235.255 87.218 C 235.040 86.546,234.985 86.514,234.977 87.051 M210.622 91.729 C 210.624 92.648,210.689 92.985,210.766 92.477 C 210.843 91.969,210.841 91.217,210.762 90.806 C 210.682 90.395,210.619 90.810,210.622 91.729 M253.491 92.565 C 253.614 93.024,253.854 93.626,254.025 93.901 C 254.240 94.250,254.266 94.148,254.111 93.567 C 253.988 93.108,253.748 92.506,253.578 92.231 C 253.362 91.882,253.336 91.984,253.491 92.565 M218.624 95.572 C 218.624 96.216,218.693 96.479,218.777 96.157 C 218.861 95.835,218.861 95.309,218.777 94.987 C 218.693 94.666,218.624 94.929,218.624 95.572 M210.956 97.076 C 210.959 97.995,211.023 98.331,211.100 97.823 C 211.177 97.315,211.175 96.563,211.096 96.152 C 211.016 95.741,210.954 96.157,210.956 97.076 M247.666 97.243 C 247.666 97.519,247.795 98.045,247.953 98.413 C 248.134 98.834,248.240 98.896,248.240 98.580 C 248.240 98.304,248.111 97.778,247.953 97.410 C 247.772 96.989,247.666 96.927,247.666 97.243 M218.958 98.580 C 218.958 99.223,219.027 99.486,219.111 99.165 C 219.195 98.843,219.195 98.317,219.111 97.995 C 219.027 97.673,218.958 97.937,218.958 98.580 M219.299 101.086 C 219.303 101.821,219.371 102.083,219.451 101.667 C 219.531 101.251,219.528 100.650,219.444 100.330 C 219.361 100.011,219.295 100.351,219.299 101.086 M211.286 101.921 C 211.286 102.749,211.351 103.087,211.430 102.673 C 211.510 102.260,211.510 101.583,211.430 101.170 C 211.351 100.756,211.286 101.094,211.286 101.921 M211.613 107.101 C 211.617 107.836,211.685 108.098,211.765 107.682 C 211.845 107.266,211.842 106.665,211.758 106.345 C 211.675 106.026,211.609 106.366,211.613 107.101 M257.896 107.519 C 257.265 108.229,256.203 110.714,256.648 110.439 C 256.921 110.270,258.667 106.934,258.483 106.934 C 258.446 106.934,258.182 107.197,257.896 107.519 M231.658 109.273 C 231.658 109.733,231.773 110.560,231.913 111.111 C 232.141 112.005,232.168 112.023,232.168 111.278 C 232.168 110.819,232.053 109.992,231.913 109.440 C 231.686 108.546,231.658 108.528,231.658 109.273 M211.954 112.281 C 211.954 113.108,212.019 113.446,212.099 113.033 C 212.178 112.619,212.178 111.942,212.099 111.529 C 212.019 111.115,211.954 111.454,211.954 112.281 M255.299 112.387 C 254.181 114.270,254.092 114.537,254.769 113.978 C 255.304 113.536,256.431 111.291,256.223 111.082 C 256.171 111.031,255.756 111.618,255.299 112.387 M253.610 115.333 C 253.305 115.903,253.169 115.954,252.935 115.584 C 252.767 115.318,252.640 115.281,252.637 115.498 C 252.623 116.495,253.507 116.574,253.872 115.607 C 254.306 114.456,254.161 114.304,253.610 115.333 M212.281 117.794 C 212.285 118.530,212.354 118.791,212.434 118.375 C 212.513 117.960,212.510 117.358,212.427 117.039 C 212.343 116.719,212.278 117.059,212.281 117.794 M221.297 119.967 C 221.297 120.610,221.366 120.873,221.450 120.551 C 221.534 120.230,221.534 119.703,221.450 119.382 C 221.366 119.060,221.297 119.323,221.297 119.967 M212.616 124.812 C 212.619 125.547,212.688 125.809,212.768 125.393 C 212.848 124.977,212.845 124.376,212.761 124.056 C 212.677 123.737,212.612 124.077,212.616 124.812 M212.942 129.323 C 212.936 129.967,213.131 132.974,213.376 136.007 L 213.819 141.520 213.646 136.842 C 213.479 132.357,212.965 126.863,212.942 129.323 M222.634 131.997 C 222.634 132.640,222.703 132.903,222.787 132.581 C 222.871 132.260,222.871 131.734,222.787 131.412 C 222.703 131.090,222.634 131.353,222.634 131.997 M240.537 131.913 C 239.519 133.098,239.527 133.471,240.550 132.519 C 241.130 131.979,241.604 131.490,241.604 131.433 C 241.604 131.121,240.973 131.406,240.537 131.913 M222.975 135.505 C 222.979 136.241,223.047 136.502,223.127 136.086 C 223.207 135.671,223.204 135.069,223.120 134.750 C 223.037 134.430,222.971 134.770,222.975 135.505 M237.587 134.845 C 237.355 135.125,237.261 135.451,237.379 135.569 C 237.497 135.687,237.594 135.604,237.594 135.383 C 237.594 135.163,237.932 134.847,238.346 134.680 C 238.855 134.476,238.922 134.371,238.554 134.357 C 238.255 134.345,237.820 134.565,237.587 134.845 M223.299 138.346 C 223.290 138.989,223.400 140.267,223.544 141.186 C 223.754 142.538,223.807 142.634,223.819 141.688 C 223.828 141.044,223.717 139.766,223.574 138.847 C 223.364 137.495,223.311 137.400,223.299 138.346 M213.978 144.194 C 213.979 145.480,214.040 145.966,214.112 145.272 C 214.184 144.579,214.183 143.526,214.109 142.933 C 214.035 142.340,213.976 142.907,213.978 144.194 M223.225 145.530 C 222.996 145.806,222.602 146.032,222.348 146.032 C 222.095 146.032,221.888 146.168,221.888 146.335 C 221.888 146.809,223.120 146.367,223.756 145.664 C 224.072 145.315,224.176 145.029,223.986 145.029 C 223.796 145.029,223.454 145.255,223.225 145.530 M220.468 147.061 C 220.146 147.248,219.885 147.582,219.888 147.803 C 219.892 148.080,219.969 148.092,220.139 147.841 C 220.274 147.642,220.685 147.308,221.053 147.099 C 221.420 146.891,221.571 146.720,221.387 146.720 C 221.203 146.720,220.789 146.874,220.468 147.061 M218.031 148.393 C 217.667 148.982,218.051 149.065,218.738 148.545 C 219.303 148.117,219.313 148.057,218.817 148.047 C 218.506 148.042,218.153 148.197,218.031 148.393 M214.212 149.206 C 214.212 150.241,214.784 150.419,215.908 149.733 C 217.162 148.969,217.055 148.819,215.698 149.438 C 214.984 149.763,214.766 149.748,214.518 149.354 C 214.350 149.089,214.212 149.023,214.212 149.206 " stroke="none" fill="#b03737" fill-rule="evenodd"></path><path id="path3" d="M182.957 0.520 C 176.524 1.300,171.606 2.059,171.261 2.326 C 171.078 2.468,169.424 2.846,167.586 3.166 C 165.748 3.485,163.417 4.020,162.406 4.354 C 161.395 4.688,159.440 5.265,158.062 5.636 C 155.159 6.417,149.256 8.486,148.037 9.150 C 147.577 9.400,146.600 9.798,145.865 10.034 C 144.539 10.461,141.082 12.053,138.513 13.422 C 137.778 13.814,136.537 14.441,135.756 14.817 L 134.336 15.500 134.336 47.944 C 134.336 82.666,134.621 89.116,136.331 93.066 C 136.490 93.434,137.020 95.312,137.510 97.240 C 137.999 99.168,138.522 100.822,138.672 100.916 C 138.822 101.009,139.124 101.763,139.342 102.590 C 139.561 103.417,140.164 104.996,140.684 106.099 C 142.784 110.557,143.384 111.802,143.665 112.281 C 147.689 119.144,147.625 119.044,150.521 122.974 C 153.574 127.116,163.148 137.343,163.973 137.343 C 164.118 137.343,164.614 137.719,165.076 138.178 C 166.305 139.402,168.567 141.184,170.004 142.061 C 170.696 142.483,171.313 142.952,171.376 143.102 C 171.439 143.253,172.115 143.691,172.880 144.075 C 173.644 144.459,174.495 144.966,174.770 145.202 C 176.053 146.299,184.571 150.609,186.967 151.373 C 187.703 151.608,188.471 151.931,188.675 152.092 C 189.275 152.566,192.869 153.724,193.167 153.540 C 193.318 153.447,193.939 153.649,194.548 153.988 C 196.055 154.829,197.094 155.061,197.291 154.601 C 197.396 154.356,197.588 154.428,197.825 154.804 C 198.029 155.125,198.564 155.388,199.014 155.388 L 199.833 155.388 199.833 77.694 L 199.833 0.000 193.233 0.037 C 189.603 0.058,184.979 0.275,182.957 0.520 M204.991 0.734 C 205.083 1.157,205.318 5.038,205.514 9.357 C 205.710 13.676,206.007 18.413,206.174 19.883 C 206.341 21.353,206.648 25.639,206.854 29.407 C 207.356 38.558,208.972 64.126,211.340 100.418 C 211.796 107.402,212.330 116.274,212.527 120.134 C 212.725 123.993,213.021 128.279,213.186 129.657 C 213.351 131.036,213.660 135.773,213.873 140.184 C 214.341 149.904,214.333 149.856,215.303 149.531 C 215.709 149.396,216.442 149.283,216.933 149.280 C 217.539 149.277,217.881 149.062,217.999 148.614 C 218.135 148.094,218.353 148.000,219.027 148.169 C 219.679 148.333,219.883 148.256,219.883 147.847 C 219.883 147.552,220.334 147.140,220.886 146.932 C 221.437 146.724,221.888 146.436,221.888 146.293 C 221.888 146.149,222.048 146.032,222.243 146.032 C 223.427 146.032,224.112 144.895,223.844 143.373 C 223.697 142.538,223.126 137.419,222.574 131.997 C 222.022 126.575,221.124 118.079,220.579 113.116 C 220.034 108.154,219.199 100.485,218.724 96.074 C 218.249 91.662,217.634 86.023,217.358 83.542 C 216.533 76.138,216.270 73.707,214.548 57.644 C 213.642 49.190,212.749 40.919,212.564 39.265 C 212.379 37.611,211.775 31.896,211.221 26.566 C 210.667 21.236,210.065 15.973,209.884 14.871 C 209.702 13.768,209.390 11.061,209.190 8.855 C 208.990 6.650,208.720 3.793,208.590 2.506 L 208.354 0.167 206.589 0.066 C 204.900 -0.031,204.831 -0.003,204.991 0.734 M213.534 0.607 C 213.534 1.355,214.796 9.308,216.328 18.212 C 216.960 21.888,217.867 27.226,218.344 30.075 C 218.821 32.924,219.587 37.360,220.046 39.933 C 220.505 42.506,221.175 46.416,221.535 48.622 C 221.895 50.827,222.811 56.241,223.571 60.652 C 224.331 65.063,225.384 71.303,225.911 74.520 C 226.439 77.736,227.563 84.353,228.410 89.223 C 229.256 94.094,230.309 100.342,230.749 103.109 C 231.190 105.876,231.628 108.357,231.723 108.623 C 231.819 108.889,232.278 111.512,232.743 114.453 C 234.320 124.425,236.210 135.326,236.421 135.667 C 236.734 136.173,237.600 136.078,237.401 135.559 C 237.180 134.982,238.109 134.206,238.735 134.446 C 239.283 134.656,240.089 133.855,239.799 133.387 C 239.463 132.844,240.968 131.259,241.651 131.437 C 242.115 131.559,242.330 131.372,242.487 130.713 C 242.779 129.486,243.233 128.990,244.068 128.984 C 244.605 128.980,244.666 128.907,244.316 128.686 C 244.061 128.524,243.487 126.685,243.040 124.597 C 242.593 122.510,241.776 118.697,241.224 116.124 C 240.672 113.551,239.714 108.999,239.095 106.010 C 238.476 103.020,237.887 100.312,237.785 99.991 C 237.683 99.670,237.077 96.928,236.439 93.898 C 235.801 90.867,234.743 85.906,234.089 82.874 C 233.435 79.841,232.463 75.330,231.930 72.849 C 231.398 70.368,230.410 65.781,229.737 62.657 C 228.539 57.099,227.490 52.221,225.103 41.103 C 222.478 28.877,221.853 25.971,220.541 19.883 C 219.789 16.391,218.644 11.053,217.998 8.020 C 217.352 4.987,216.740 2.130,216.637 1.671 C 216.265 -0.004,213.534 -0.940,213.534 0.607 M221.554 1.492 C 221.554 1.761,221.769 2.626,222.031 3.414 C 222.502 4.827,224.090 10.547,225.907 17.377 C 226.420 19.307,227.469 23.141,228.238 25.898 C 229.977 32.132,231.340 37.086,232.743 42.272 C 233.339 44.478,234.392 48.312,235.083 50.794 C 235.773 53.275,236.833 57.109,237.437 59.315 C 238.040 61.520,239.093 65.355,239.775 67.836 C 240.457 70.317,241.504 74.152,242.102 76.358 C 243.354 80.974,245.136 87.436,246.618 92.732 C 247.184 94.754,248.262 98.663,249.013 101.420 C 251.779 111.570,252.210 113.146,252.608 114.579 C 252.832 115.383,253.140 115.910,253.293 115.748 C 253.697 115.322,254.920 113.163,256.488 110.109 C 257.242 108.638,258.041 107.474,258.263 107.522 C 258.560 107.586,258.545 107.365,258.206 106.687 C 257.952 106.180,257.037 103.509,256.171 100.752 C 255.306 97.995,254.316 94.912,253.971 93.901 C 253.626 92.891,252.571 89.582,251.626 86.550 C 250.681 83.517,249.554 79.983,249.120 78.697 C 248.687 77.410,247.634 74.102,246.781 71.345 C 245.928 68.588,244.875 65.280,244.442 63.993 C 244.008 62.707,242.956 59.398,242.103 56.642 C 241.250 53.885,240.197 50.576,239.764 49.290 C 239.331 48.003,238.271 44.695,237.408 41.938 C 236.545 39.181,235.491 35.873,235.065 34.586 C 234.639 33.300,233.219 28.864,231.909 24.728 C 230.599 20.593,228.500 13.977,227.245 10.025 C 225.990 6.074,224.870 2.427,224.756 1.921 C 224.516 0.856,221.554 0.459,221.554 1.492 M229.908 2.459 C 229.908 2.708,230.903 5.528,232.118 8.724 C 233.334 11.921,234.745 15.664,235.253 17.043 C 235.762 18.421,236.806 21.203,237.574 23.225 C 238.342 25.246,239.324 27.878,239.756 29.073 C 240.187 30.267,241.243 33.049,242.102 35.255 C 242.961 37.460,244.018 40.242,244.452 41.437 C 244.885 42.632,245.869 45.263,246.639 47.285 C 247.408 49.307,248.459 52.089,248.975 53.467 C 249.491 54.845,250.506 57.552,251.231 59.482 C 251.955 61.412,253.479 65.472,254.617 68.505 C 255.755 71.537,257.062 74.969,257.520 76.132 C 257.979 77.294,259.089 80.227,259.988 82.648 C 262.738 90.059,263.512 91.932,263.734 91.710 C 263.851 91.593,263.866 91.286,263.767 91.028 C 263.668 90.769,263.790 90.557,264.041 90.555 C 264.410 90.550,264.406 90.494,264.023 90.251 C 263.625 89.999,263.640 89.863,264.118 89.385 C 264.557 88.946,264.597 88.713,264.298 88.352 C 263.999 87.992,264.016 87.885,264.370 87.881 C 264.733 87.877,264.724 87.802,264.327 87.522 C 263.948 87.253,263.928 87.126,264.246 86.997 C 264.477 86.903,264.570 86.672,264.454 86.484 C 264.337 86.295,264.449 86.007,264.702 85.844 C 265.089 85.595,265.082 85.494,264.662 85.218 C 264.293 84.976,264.277 84.888,264.601 84.884 C 264.888 84.881,264.967 84.647,264.829 84.211 C 264.707 83.827,264.769 83.542,264.973 83.542 C 265.451 83.542,265.431 82.629,264.950 82.469 C 264.680 82.379,264.704 82.117,265.034 81.562 C 265.397 80.950,265.407 80.749,265.079 80.630 C 264.448 80.402,264.579 79.534,265.246 79.522 C 265.799 79.511,265.799 79.486,265.237 79.060 C 264.911 78.812,264.290 77.727,263.858 76.648 C 263.427 75.569,262.215 72.657,261.166 70.175 C 260.117 67.694,258.757 64.461,258.143 62.991 C 257.528 61.520,255.951 57.761,254.636 54.637 C 253.322 51.512,251.712 47.678,251.059 46.115 C 250.406 44.553,249.608 42.673,249.286 41.938 C 248.704 40.611,246.298 34.849,244.053 29.407 C 243.408 27.845,242.607 25.956,242.271 25.211 C 241.936 24.465,240.831 21.834,239.815 19.363 C 238.800 16.892,237.158 12.991,236.168 10.693 C 235.178 8.396,234.084 5.722,233.738 4.751 C 233.245 3.365,232.927 2.947,232.261 2.809 C 231.794 2.712,231.151 2.492,230.832 2.319 C 230.056 1.900,229.908 1.922,229.908 2.459 M238.931 4.818 C 238.931 5.428,239.653 7.079,242.525 13.033 C 243.811 15.698,245.579 19.382,246.455 21.220 C 247.331 23.058,249.305 27.168,250.841 30.355 C 252.377 33.541,253.634 36.197,253.634 36.257 C 253.634 36.317,255.213 39.622,257.143 43.601 C 259.073 47.580,260.652 50.896,260.652 50.969 C 260.652 51.042,261.742 53.326,263.074 56.044 L 265.497 60.986 265.591 56.501 C 265.648 53.742,265.552 51.884,265.340 51.673 C 264.891 51.224,264.882 43.552,265.330 43.275 C 265.544 43.143,265.664 38.104,265.664 29.257 L 265.664 15.445 264.077 14.702 C 263.204 14.292,262.414 13.841,262.322 13.698 C 262.173 13.466,259.437 12.127,253.467 9.363 C 252.364 8.852,251.086 8.323,250.627 8.188 C 250.167 8.052,248.456 7.424,246.825 6.791 C 245.193 6.159,243.276 5.619,242.564 5.590 C 241.852 5.562,241.270 5.420,241.270 5.276 C 241.270 5.131,240.969 5.013,240.602 5.013 C 240.234 5.013,239.933 4.862,239.933 4.678 C 239.933 4.495,239.708 4.344,239.432 4.344 C 239.156 4.344,238.931 4.557,238.931 4.818 M171.382 56.746 L 173.173 62.155 178.984 62.155 C 185.098 62.155,185.515 62.277,183.709 63.535 C 183.112 63.951,181.024 65.471,179.070 66.914 L 175.516 69.538 176.672 73.115 C 177.308 75.082,178.121 77.503,178.478 78.495 C 179.484 81.283,178.805 81.183,174.494 77.911 C 173.084 76.841,171.300 75.551,170.531 75.045 L 169.132 74.125 166.921 75.743 C 165.705 76.632,163.747 78.074,162.570 78.947 C 158.933 81.646,158.933 81.647,161.069 75.155 C 163.104 68.971,163.121 69.591,160.880 67.993 C 156.294 64.724,153.718 62.731,153.718 62.455 C 153.718 62.290,156.312 62.155,159.487 62.155 L 165.257 62.155 165.799 60.568 C 166.097 59.695,166.910 57.210,167.604 55.045 C 169.176 50.145,169.199 50.155,171.382 56.746 M28.070 263.993 L 28.070 266.332 30.660 266.340 C 33.187 266.348,35.583 266.716,36.033 267.166 C 36.156 267.289,36.335 275.911,36.430 286.326 C 36.550 299.556,36.718 305.515,36.987 306.099 C 37.198 306.558,37.559 307.669,37.790 308.568 C 38.205 310.188,40.437 313.934,41.424 314.667 C 41.707 314.877,42.337 315.420,42.824 315.873 C 43.311 316.327,44.400 316.982,45.245 317.330 C 46.090 317.677,46.782 318.064,46.782 318.189 C 46.790 319.547,63.401 320.226,67.671 319.043 C 72.370 317.741,76.169 314.690,77.944 310.793 C 79.972 306.342,79.931 306.780,80.158 287.218 L 80.368 269.173 81.421 268.048 C 82.569 266.822,84.081 266.372,87.135 266.347 L 88.889 266.332 88.889 263.989 L 88.889 261.645 77.611 261.733 L 66.332 261.821 66.235 264.026 L 66.137 266.230 69.327 266.439 C 75.441 266.841,75.188 265.968,75.186 286.683 C 75.184 305.542,75.107 306.398,73.159 309.271 C 67.975 316.916,50.967 316.233,47.630 308.246 C 46.085 304.548,46.019 303.721,45.876 286.400 C 45.704 265.432,45.366 266.739,51.044 266.417 L 54.135 266.241 54.135 263.948 L 54.135 261.654 41.103 261.654 L 28.070 261.654 28.070 263.993 M136.111 261.991 C 132.841 263.309,132.058 268.007,134.689 270.528 C 136.795 272.545,141.770 271.863,142.733 269.424 C 142.933 268.918,143.230 268.243,143.394 267.924 C 143.768 267.198,143.773 266.491,143.413 265.743 C 143.259 265.424,142.916 264.715,142.652 264.168 C 141.641 262.075,138.498 261.029,136.111 261.991 M291.395 262.033 C 289.004 262.967,287.366 267.602,288.889 269.125 C 289.165 269.401,289.390 269.723,289.390 269.841 C 289.390 270.234,290.330 271.004,291.225 271.344 C 293.503 272.210,297.744 271.262,297.744 269.887 C 297.744 269.631,297.970 269.235,298.246 269.006 C 298.566 268.740,298.747 268.000,298.747 266.953 C 298.747 263.086,295.044 260.608,291.395 262.033 M312.448 267.482 C 312.448 268.299,312.319 269.046,312.161 269.144 C 312.003 269.241,311.779 270.123,311.664 271.102 C 311.258 274.558,309.084 279.151,307.437 280.033 C 307.097 280.214,306.591 280.591,306.313 280.870 C 306.034 281.148,304.932 281.575,303.864 281.817 L 301.921 282.258 301.921 284.237 L 301.921 286.216 304.981 286.311 L 308.041 286.407 308.182 300.179 C 308.335 315.110,308.348 315.224,310.250 317.548 C 312.632 320.460,321.713 320.683,325.158 317.914 C 328.515 315.217,329.825 312.067,329.825 306.689 L 329.825 303.390 328.070 303.491 C 326.390 303.588,326.312 303.635,326.225 304.595 C 325.522 312.352,321.105 316.659,317.630 312.975 C 316.146 311.401,316.124 311.181,316.124 298.045 L 316.124 286.398 321.888 286.307 L 327.652 286.216 327.652 284.043 L 327.652 281.871 322.055 281.780 L 316.458 281.688 316.458 273.843 L 316.458 265.998 314.453 265.998 L 312.448 265.998 312.448 267.482 M198.496 280.587 C 198.037 280.681,197.518 280.896,197.343 281.064 C 197.169 281.232,196.793 281.372,196.508 281.373 C 191.994 281.402,185.129 290.239,185.129 296.022 C 185.129 296.764,184.979 297.464,184.795 297.577 C 184.612 297.691,184.461 298.978,184.461 300.437 C 184.461 301.984,184.601 303.091,184.795 303.091 C 184.979 303.091,185.129 303.633,185.129 304.296 C 185.129 310.342,190.195 317.073,196.324 319.172 C 199.361 320.212,209.186 319.524,210.179 318.202 C 210.278 318.070,210.953 317.661,211.678 317.293 C 215.425 315.395,220.190 308.221,218.129 307.581 C 217.715 307.453,216.954 307.050,216.438 306.686 C 215.368 305.932,215.171 306.067,213.888 308.438 C 209.787 316.013,198.497 316.724,195.305 309.607 C 194.810 308.505,194.257 307.316,194.076 306.966 C 193.896 306.616,193.667 305.150,193.568 303.708 L 193.388 301.086 206.134 301.086 L 218.881 301.086 218.869 298.997 C 218.845 294.718,217.153 288.782,215.369 286.717 C 212.852 283.804,211.233 282.579,208.975 281.882 C 207.898 281.550,206.832 281.132,206.606 280.954 C 206.154 280.599,199.832 280.312,198.496 280.587 M241.688 280.583 C 241.274 280.674,240.936 280.888,240.936 281.059 C 240.936 281.230,240.670 281.370,240.345 281.370 C 238.778 281.370,235.643 284.322,234.313 287.051 L 233.417 288.889 233.250 284.879 L 233.083 280.869 231.469 280.766 C 230.582 280.709,229.680 280.806,229.464 280.982 C 229.249 281.157,226.967 281.403,224.394 281.528 C 218.166 281.830,218.494 281.691,218.614 283.987 L 218.713 285.881 221.593 286.054 C 225.933 286.315,225.564 284.999,225.564 300.225 C 225.564 314.769,225.673 314.116,223.241 314.122 C 222.405 314.124,221.150 314.220,220.453 314.336 L 219.185 314.545 219.283 316.587 L 219.382 318.630 230.159 318.718 L 240.936 318.806 240.936 316.675 L 240.936 314.544 239.385 314.331 C 238.533 314.214,237.122 314.119,236.252 314.119 C 233.792 314.119,233.748 313.989,233.769 306.797 C 233.790 299.592,234.815 292.581,235.950 291.880 C 236.125 291.772,236.476 291.184,236.731 290.574 C 237.323 289.158,239.309 286.954,240.772 286.091 L 241.906 285.422 241.588 286.258 C 240.042 290.324,245.510 295.405,248.642 292.812 C 248.907 292.593,249.574 292.048,250.125 291.599 C 252.512 289.660,251.452 283.507,248.457 281.913 C 247.723 281.523,247.035 281.087,246.929 280.945 C 246.692 280.630,242.725 280.356,241.688 280.583 M261.851 280.590 C 261.316 280.682,260.565 280.952,260.180 281.191 C 259.796 281.429,259.106 281.711,258.647 281.817 C 251.522 283.459,251.319 298.155,258.378 301.269 C 259.169 301.618,259.891 301.989,259.983 302.093 C 260.240 302.386,262.566 303.034,265.219 303.552 C 266.537 303.810,267.760 304.111,267.939 304.221 C 268.117 304.331,269.358 304.652,270.695 304.933 C 276.270 306.106,278.050 310.029,274.547 313.424 C 269.618 318.202,260.288 314.497,257.642 306.712 C 256.592 303.623,256.392 303.425,254.326 303.425 L 252.632 303.425 252.632 311.612 L 252.632 319.799 254.454 319.799 C 256.027 319.799,256.358 319.683,256.877 318.948 C 257.207 318.480,257.722 317.772,258.022 317.374 L 258.566 316.651 259.692 317.497 C 261.770 319.057,263.562 319.556,267.678 319.722 C 273.972 319.975,276.374 319.067,279.854 315.121 C 281.392 313.377,282.181 307.499,281.389 303.684 C 280.572 299.750,276.718 297.034,270.343 295.900 C 268.596 295.589,266.867 295.204,266.500 295.043 C 266.132 294.883,264.721 294.506,263.363 294.206 C 258.474 293.125,256.863 289.741,259.803 286.730 C 263.610 282.832,271.442 285.019,274.113 290.727 C 274.500 291.554,274.915 292.306,275.036 292.398 C 275.156 292.490,275.403 293.016,275.583 293.567 C 275.889 294.501,276.025 294.570,277.555 294.570 L 279.198 294.570 279.293 288.388 C 279.411 280.711,279.409 280.702,277.699 280.702 C 276.631 280.702,276.152 280.930,275.184 281.897 L 273.989 283.093 272.737 282.441 C 272.049 282.082,270.965 281.677,270.329 281.541 C 269.693 281.404,269.000 281.154,268.788 280.983 C 268.345 280.628,263.303 280.342,261.851 280.590 M94.052 281.011 C 93.877 281.181,91.441 281.428,88.638 281.559 L 83.542 281.798 83.542 283.923 L 83.542 286.048 85.997 286.048 C 89.821 286.048,89.557 284.995,89.557 300.294 C 89.557 314.519,89.615 314.116,87.569 314.122 C 86.916 314.124,85.819 314.219,85.129 314.333 L 83.876 314.540 83.876 316.669 L 83.876 318.797 93.734 318.797 L 103.592 318.797 103.592 316.667 C 103.592 314.268,103.384 314.119,100.034 314.119 C 97.868 314.119,97.818 313.855,98.006 303.425 C 98.161 294.833,98.525 291.924,99.554 291.061 C 99.664 290.969,100.162 290.345,100.661 289.675 C 103.471 285.903,110.181 285.782,112.615 289.460 L 113.784 291.228 113.885 301.771 C 114.001 313.950,113.974 314.117,111.871 314.122 C 111.086 314.124,109.879 314.219,109.190 314.333 L 107.937 314.540 107.937 316.669 L 107.937 318.797 117.794 318.797 L 127.652 318.797 127.652 316.669 L 127.652 314.540 126.399 314.333 C 125.710 314.219,124.601 314.124,123.934 314.122 C 121.790 314.116,121.824 314.310,121.623 300.785 C 121.446 288.785,121.219 286.383,120.268 286.383 C 120.102 286.383,119.967 286.155,119.967 285.876 C 119.967 284.857,116.926 282.394,114.975 281.832 C 113.953 281.538,112.855 281.163,112.536 281.000 C 111.803 280.624,107.032 280.607,106.802 280.979 C 106.708 281.132,105.793 281.444,104.769 281.673 C 102.759 282.123,100.464 283.622,98.668 285.658 L 97.587 286.884 97.582 283.793 L 97.577 280.702 95.973 280.702 C 95.091 280.702,94.226 280.841,94.052 281.011 M138.680 281.003 C 138.680 281.169,136.274 281.414,133.333 281.547 L 127.987 281.790 127.987 283.919 L 127.987 286.048 130.456 286.048 C 134.669 286.048,134.367 284.908,134.260 300.410 L 134.169 313.601 133.333 313.851 C 132.874 313.989,131.483 314.193,130.242 314.304 L 127.987 314.506 127.987 316.656 L 127.987 318.807 138.262 318.718 L 148.538 318.630 148.636 316.587 L 148.735 314.545 147.467 314.336 C 146.769 314.220,145.597 314.122,144.862 314.117 C 142.361 314.101,142.534 315.305,142.427 297.088 L 142.332 280.702 140.506 280.702 C 139.502 280.702,138.680 280.838,138.680 281.003 M294.013 281.007 C 293.952 281.175,291.495 281.438,288.555 281.592 L 283.208 281.871 283.101 283.176 C 282.886 285.809,283.042 285.963,286.076 286.100 C 290.040 286.280,289.764 285.168,289.652 300.509 C 289.547 314.925,289.694 314.101,287.218 314.117 C 286.483 314.122,285.317 314.219,284.628 314.333 L 283.375 314.540 283.375 316.669 L 283.375 318.797 293.567 318.797 L 303.759 318.797 303.759 316.669 L 303.759 314.540 302.506 314.333 C 301.817 314.219,300.700 314.124,300.024 314.122 C 297.639 314.115,297.744 314.910,297.744 296.885 L 297.744 280.702 295.934 280.702 C 294.939 280.702,294.074 280.839,294.013 281.007 M146.255 281.927 C 145.976 282.206,145.961 285.141,146.235 285.854 C 146.372 286.212,146.862 286.383,147.755 286.383 C 149.782 286.383,150.851 287.109,151.537 288.954 C 151.865 289.837,152.415 291.029,152.759 291.602 C 153.102 292.175,153.383 292.826,153.383 293.048 C 153.383 293.270,153.910 294.547,154.553 295.884 C 155.196 297.221,155.723 298.420,155.723 298.547 C 155.723 298.674,156.249 299.902,156.892 301.276 C 157.536 302.650,158.062 303.853,158.062 303.949 C 158.062 304.046,158.588 305.249,159.231 306.623 C 159.875 307.997,160.402 309.230,160.402 309.364 C 160.403 309.498,160.790 310.359,161.262 311.278 C 161.734 312.197,162.470 313.851,162.896 314.954 C 163.323 316.057,163.912 317.410,164.206 317.962 C 164.500 318.513,164.742 319.152,164.743 319.382 C 164.745 319.663,165.322 319.799,166.511 319.799 C 168.565 319.799,168.786 319.544,170.119 315.622 C 170.557 314.336,171.005 313.208,171.115 313.116 C 171.225 313.024,171.742 311.746,172.264 310.276 C 172.785 308.805,173.334 307.440,173.483 307.242 C 173.633 307.044,174.139 305.841,174.608 304.568 C 175.378 302.483,175.998 301.019,176.824 299.336 C 176.981 299.017,177.109 298.580,177.109 298.366 C 177.109 298.152,177.539 297.059,178.064 295.939 C 178.590 294.818,179.288 293.074,179.617 292.063 C 179.946 291.053,180.314 290.150,180.435 290.058 C 180.555 289.967,181.007 289.310,181.439 288.600 C 182.281 287.215,183.787 286.383,185.453 286.383 L 186.466 286.383 186.466 284.037 L 186.466 281.692 178.530 281.782 L 170.593 281.871 170.593 284.043 L 170.593 286.216 172.501 286.385 C 174.729 286.584,175.249 286.985,175.204 288.471 C 175.172 289.543,173.945 293.587,173.454 294.236 C 173.316 294.419,172.772 295.848,172.246 297.410 C 171.720 298.972,171.113 300.551,170.896 300.919 C 170.679 301.287,170.167 302.640,169.756 303.926 C 168.741 307.110,168.285 307.553,167.744 305.882 C 167.515 305.174,166.972 303.919,166.538 303.094 C 166.103 302.268,165.748 301.463,165.748 301.304 C 165.748 301.145,165.309 300.091,164.772 298.962 C 164.235 297.833,163.498 296.157,163.134 295.238 C 162.770 294.319,161.933 292.364,161.274 290.894 C 159.479 286.891,159.627 286.383,162.589 286.383 C 164.543 286.383,165.730 283.491,164.344 282.105 C 163.909 281.671,146.681 281.501,146.255 281.927 M329.224 283.960 L 329.323 286.216 331.240 286.422 C 333.832 286.700,335.214 288.447,336.827 293.484 C 337.048 294.173,337.367 294.737,337.536 294.737 C 337.706 294.737,337.845 294.913,337.845 295.128 C 337.845 295.713,339.465 299.650,340.204 300.863 C 340.559 301.445,340.852 302.147,340.855 302.423 C 340.858 302.698,341.296 303.783,341.829 304.833 C 342.361 305.883,342.979 307.312,343.202 308.008 C 343.425 308.704,343.888 309.799,344.231 310.443 C 345.955 313.676,347.521 318.129,346.934 318.129 C 346.744 318.129,346.320 318.843,345.993 319.716 C 345.666 320.589,345.131 321.754,344.805 322.306 C 344.478 322.857,343.909 323.860,343.541 324.535 C 341.327 328.586,336.429 331.720,337.277 328.542 C 338.289 324.752,335.210 322.295,330.902 323.455 C 328.436 324.119,326.548 329.422,328.192 331.066 C 328.397 331.271,328.740 331.790,328.953 332.219 C 329.998 334.318,338.329 334.988,341.707 333.244 C 343.510 332.313,346.657 328.872,347.998 326.365 C 348.405 325.603,348.986 324.603,349.288 324.144 C 349.590 323.684,350.177 322.406,350.592 321.303 C 351.006 320.201,351.438 319.223,351.550 319.131 C 351.663 319.039,352.105 317.987,352.533 316.792 C 352.961 315.597,353.498 314.314,353.726 313.940 C 354.284 313.023,355.890 308.984,355.890 308.495 C 355.890 308.280,356.020 308.104,356.179 308.104 C 356.338 308.104,356.890 306.938,357.405 305.514 C 357.921 304.089,358.434 302.849,358.547 302.757 C 358.750 302.592,360.587 298.008,360.653 297.504 C 360.672 297.360,360.886 297.045,361.129 296.802 C 361.371 296.559,361.668 295.958,361.788 295.465 C 362.943 290.730,366.155 286.387,368.505 286.384 L 369.591 286.383 369.591 284.037 L 369.591 281.692 361.821 281.782 L 354.052 281.871 354.052 284.043 L 354.052 286.216 356.127 286.414 C 359.340 286.722,359.846 287.507,358.540 290.158 C 358.159 290.930,357.551 292.389,357.188 293.400 C 356.825 294.411,356.239 295.840,355.885 296.575 C 355.240 297.916,354.247 300.311,352.598 304.507 C 351.551 307.170,351.486 307.201,350.925 305.304 C 350.688 304.499,350.117 303.108,349.658 302.213 C 349.199 301.317,348.463 299.639,348.023 298.484 C 347.582 297.329,346.992 296.054,346.710 295.653 C 346.429 295.251,346.199 294.716,346.199 294.463 C 346.199 294.211,345.652 292.853,344.983 291.447 C 342.741 286.728,342.787 286.462,345.873 286.317 L 348.037 286.216 348.136 283.960 L 348.234 281.704 338.680 281.704 L 329.126 281.704 329.224 283.960 M204.250 285.107 C 207.143 285.974,209.052 288.931,209.398 293.083 C 209.721 296.952,210.195 296.742,201.144 296.742 L 193.515 296.742 193.722 294.995 C 194.614 287.467,198.849 283.489,204.250 285.107 " stroke="none" fill="#9c0404" fill-rule="evenodd"></path><path id="path4" d="M199.997 77.694 C 199.997 120.518,200.036 137.987,200.084 116.515 C 200.131 95.042,200.131 60.004,200.084 38.653 C 200.036 17.302,199.997 34.871,199.997 77.694 M204.759 4.010 C 204.855 6.307,204.989 8.250,205.057 8.326 C 205.269 8.567,205.119 3.934,204.846 1.838 C 204.675 0.526,204.645 1.276,204.759 4.010 M208.599 1.003 C 208.599 1.646,208.668 1.909,208.752 1.587 C 208.836 1.266,208.836 0.739,208.752 0.418 C 208.668 0.096,208.599 0.359,208.599 1.003 M224.939 1.838 C 224.948 2.542,226.165 6.089,226.201 5.514 C 226.213 5.330,225.932 4.277,225.577 3.175 C 225.222 2.072,224.935 1.470,224.939 1.838 M208.946 3.676 C 208.946 4.503,209.012 4.841,209.091 4.428 C 209.171 4.014,209.171 3.338,209.091 2.924 C 209.012 2.510,208.946 2.849,208.946 3.676 M229.765 3.676 C 229.888 4.135,230.128 4.737,230.299 5.013 C 230.514 5.361,230.540 5.259,230.385 4.678 C 230.262 4.219,230.022 3.617,229.852 3.342 C 229.636 2.993,229.610 3.095,229.765 3.676 M209.281 6.683 C 209.281 7.510,209.346 7.849,209.425 7.435 C 209.505 7.022,209.505 6.345,209.425 5.931 C 209.346 5.518,209.281 5.856,209.281 6.683 M217.945 6.850 C 217.945 7.218,218.065 7.895,218.212 8.354 C 218.424 9.016,218.480 9.051,218.480 8.521 C 218.480 8.154,218.359 7.477,218.212 7.018 C 218.000 6.356,217.945 6.321,217.945 6.850 M222.938 8.020 C 222.938 8.296,223.067 8.822,223.225 9.190 C 223.406 9.611,223.512 9.673,223.512 9.357 C 223.512 9.081,223.383 8.555,223.225 8.187 C 223.044 7.766,222.938 7.704,222.938 8.020 M231.794 9.021 C 231.913 9.480,232.289 10.457,232.631 11.193 C 232.972 11.929,233.154 12.156,233.035 11.697 C 232.916 11.239,232.539 10.261,232.198 9.525 C 231.857 8.789,231.675 8.562,231.794 9.021 M205.292 11.028 C 205.292 12.406,205.351 12.970,205.423 12.281 C 205.495 11.591,205.495 10.464,205.423 9.774 C 205.351 9.085,205.292 9.649,205.292 11.028 M227.286 9.357 C 227.286 9.632,227.488 10.384,227.736 11.028 C 227.984 11.671,228.186 11.972,228.186 11.696 C 228.186 11.420,227.984 10.668,227.736 10.025 C 227.488 9.382,227.286 9.081,227.286 9.357 M240.632 9.858 C 240.632 10.042,240.994 10.869,241.437 11.696 C 241.880 12.523,242.242 13.049,242.242 12.865 C 242.242 12.682,241.880 11.855,241.437 11.028 C 240.994 10.201,240.632 9.674,240.632 9.858 M236.285 10.526 C 236.285 10.710,236.573 11.387,236.926 12.030 C 237.278 12.673,237.566 13.049,237.566 12.865 C 237.566 12.682,237.278 12.005,236.926 11.362 C 236.573 10.718,236.285 10.343,236.285 10.526 M205.621 16.040 C 205.621 17.235,205.681 17.723,205.756 17.126 C 205.830 16.529,205.830 15.551,205.756 14.954 C 205.681 14.357,205.621 14.845,205.621 16.040 M225.104 16.040 C 225.221 16.683,225.448 17.510,225.609 17.878 C 225.810 18.337,225.835 18.180,225.689 17.377 C 225.573 16.734,225.346 15.906,225.185 15.539 C 224.984 15.080,224.959 15.237,225.104 16.040 M238.388 15.372 C 238.681 16.457,239.690 18.733,239.820 18.603 C 239.896 18.528,239.574 17.657,239.105 16.668 C 238.636 15.679,238.313 15.096,238.388 15.372 M243.641 16.207 C 243.641 16.391,244.077 17.368,244.612 18.379 C 245.146 19.390,245.583 20.067,245.583 19.883 C 245.583 19.699,245.146 18.722,244.612 17.711 C 244.077 16.700,243.641 16.023,243.641 16.207 M229.598 16.565 C 229.564 17.070,230.624 20.114,230.780 19.958 C 230.851 19.887,230.619 19.014,230.266 18.018 C 229.912 17.022,229.612 16.368,229.598 16.565 M220.618 19.215 C 220.618 19.582,220.738 20.259,220.886 20.718 C 221.097 21.380,221.153 21.415,221.153 20.886 C 221.153 20.518,221.033 19.841,220.886 19.382 C 220.674 18.720,220.618 18.685,220.618 19.215 M205.939 22.389 C 205.939 23.216,206.004 23.555,206.084 23.141 C 206.163 22.728,206.163 22.051,206.084 21.637 C 206.004 21.224,205.939 21.562,205.939 22.389 M210.952 22.723 C 210.952 23.551,211.017 23.889,211.096 23.475 C 211.176 23.062,211.176 22.385,211.096 21.972 C 211.017 21.558,210.952 21.896,210.952 22.723 M216.614 22.055 C 216.611 22.515,216.728 23.266,216.876 23.726 C 217.235 24.849,217.235 23.636,216.876 22.222 C 216.646 21.322,216.620 21.305,216.614 22.055 M241.061 21.721 C 241.354 22.806,242.364 25.083,242.494 24.953 C 242.569 24.877,242.248 24.006,241.778 23.017 C 241.309 22.029,240.986 21.445,241.061 21.721 M231.965 24.060 C 231.965 24.336,232.242 25.313,232.581 26.232 C 232.921 27.151,233.198 27.678,233.198 27.402 C 233.198 27.126,232.921 26.149,232.581 25.230 C 232.242 24.311,231.965 23.784,231.965 24.060 M247.315 23.893 C 247.315 24.077,247.677 24.904,248.120 25.731 C 248.563 26.558,248.926 27.084,248.926 26.901 C 248.926 26.717,248.563 25.890,248.120 25.063 C 247.677 24.236,247.315 23.709,247.315 23.893 M211.286 25.731 C 211.286 26.558,211.351 26.896,211.430 26.483 C 211.510 26.069,211.510 25.393,211.430 24.979 C 211.351 24.566,211.286 24.904,211.286 25.731 M227.616 25.063 C 227.616 25.338,227.745 25.865,227.903 26.232 C 228.084 26.654,228.190 26.715,228.190 26.399 C 228.190 26.124,228.061 25.597,227.903 25.230 C 227.722 24.808,227.616 24.747,227.616 25.063 M206.278 27.569 C 206.280 28.488,206.345 28.824,206.422 28.316 C 206.499 27.808,206.497 27.056,206.417 26.645 C 206.338 26.234,206.275 26.650,206.278 27.569 M243.303 27.235 C 243.303 27.419,243.591 28.095,243.943 28.739 C 244.295 29.382,244.584 29.758,244.584 29.574 C 244.584 29.390,244.295 28.713,243.943 28.070 C 243.591 27.427,243.303 27.051,243.303 27.235 M211.620 28.739 C 211.620 29.566,211.685 29.904,211.765 29.490 C 211.844 29.077,211.844 28.400,211.765 27.987 C 211.685 27.573,211.620 27.911,211.620 28.739 M206.629 31.746 C 206.629 33.124,206.688 33.688,206.760 32.999 C 206.832 32.310,206.832 31.182,206.760 30.493 C 206.688 29.804,206.629 30.368,206.629 31.746 M250.325 30.242 C 250.325 30.426,250.837 31.554,251.462 32.749 C 252.087 33.943,252.599 34.770,252.599 34.586 C 252.599 34.403,252.087 33.275,251.462 32.080 C 250.837 30.886,250.325 30.058,250.325 30.242 M211.941 31.412 C 211.941 32.055,212.009 32.318,212.093 31.997 C 212.177 31.675,212.177 31.149,212.093 30.827 C 212.009 30.505,211.941 30.769,211.941 31.412 M218.271 31.579 C 218.260 31.947,218.375 32.849,218.527 33.584 C 218.760 34.708,218.804 34.761,218.803 33.918 C 218.801 32.748,218.302 30.551,218.271 31.579 M234.303 31.412 C 234.303 31.688,234.506 32.439,234.754 33.083 C 235.001 33.726,235.204 34.027,235.204 33.751 C 235.204 33.475,235.001 32.723,234.754 32.080 C 234.506 31.437,234.303 31.136,234.303 31.412 M229.621 32.414 C 229.621 32.690,229.750 33.216,229.908 33.584 C 230.089 34.005,230.195 34.067,230.195 33.751 C 230.195 33.475,230.066 32.949,229.908 32.581 C 229.727 32.160,229.621 32.098,229.621 32.414 M241.127 33.751 C 241.250 34.211,241.490 34.812,241.660 35.088 C 241.876 35.436,241.902 35.334,241.747 34.754 C 241.624 34.294,241.384 33.693,241.213 33.417 C 240.998 33.069,240.972 33.170,241.127 33.751 M245.972 33.584 C 245.972 33.768,246.187 34.294,246.449 34.754 C 246.712 35.213,246.927 35.439,246.927 35.255 C 246.927 35.071,246.712 34.545,246.449 34.085 C 246.187 33.626,245.972 33.400,245.972 33.584 M206.965 36.926 C 206.966 38.396,207.025 38.956,207.096 38.170 C 207.166 37.384,207.165 36.181,207.093 35.497 C 207.022 34.812,206.964 35.455,206.965 36.926 M254.000 37.928 C 254.000 38.112,254.437 39.089,254.971 40.100 C 255.505 41.111,255.942 41.788,255.942 41.604 C 255.942 41.420,255.505 40.443,254.971 39.432 C 254.437 38.421,254.000 37.744,254.000 37.928 M236.643 38.764 C 236.643 39.039,236.921 40.017,237.260 40.936 C 237.599 41.855,237.876 42.381,237.876 42.105 C 237.876 41.830,237.599 40.852,237.260 39.933 C 236.921 39.014,236.643 38.488,236.643 38.764 M231.626 39.766 C 231.626 40.042,231.755 40.568,231.913 40.936 C 232.094 41.357,232.200 41.419,232.200 41.103 C 232.200 40.827,232.071 40.301,231.913 39.933 C 231.732 39.512,231.626 39.450,231.626 39.766 M243.298 39.509 C 243.260 39.904,244.349 42.479,244.493 42.335 C 244.566 42.262,244.332 41.542,243.974 40.734 C 243.615 39.926,243.311 39.375,243.298 39.509 M207.297 42.105 C 207.297 43.484,207.356 44.048,207.428 43.358 C 207.500 42.669,207.500 41.541,207.428 40.852 C 207.356 40.163,207.297 40.727,207.297 42.105 M212.950 41.270 C 212.953 42.005,213.022 42.266,213.102 41.851 C 213.182 41.435,213.179 40.834,213.095 40.514 C 213.011 40.195,212.946 40.535,212.950 41.270 M225.296 40.936 C 225.296 41.303,225.417 41.980,225.564 42.439 C 225.776 43.101,225.831 43.136,225.831 42.607 C 225.831 42.239,225.711 41.562,225.564 41.103 C 225.352 40.441,225.296 40.406,225.296 40.936 M232.294 42.105 C 232.294 42.381,232.423 42.907,232.581 43.275 C 232.762 43.696,232.869 43.758,232.869 43.442 C 232.869 43.166,232.739 42.640,232.581 42.272 C 232.400 41.851,232.294 41.789,232.294 42.105 M213.277 43.776 C 213.269 44.419,213.455 46.449,213.689 48.287 C 213.923 50.125,214.122 51.028,214.130 50.292 C 214.138 49.557,213.953 47.527,213.718 45.781 C 213.483 44.035,213.284 43.133,213.277 43.776 M257.341 44.946 C 257.341 45.129,257.778 46.107,258.312 47.118 C 258.846 48.129,259.283 48.805,259.283 48.622 C 259.283 48.438,258.846 47.460,258.312 46.449 C 257.778 45.439,257.341 44.762,257.341 44.946 M246.140 47.118 C 246.263 47.577,246.503 48.179,246.673 48.454 C 246.888 48.803,246.914 48.701,246.759 48.120 C 246.636 47.661,246.396 47.059,246.226 46.784 C 246.011 46.435,245.984 46.537,246.140 47.118 M207.610 48.120 C 207.610 48.947,207.675 49.286,207.755 48.872 C 207.834 48.459,207.834 47.782,207.755 47.368 C 207.675 46.955,207.610 47.293,207.610 48.120 M239.312 47.118 C 239.312 47.393,239.441 47.920,239.599 48.287 C 239.780 48.709,239.886 48.770,239.886 48.454 C 239.886 48.179,239.757 47.652,239.599 47.285 C 239.418 46.864,239.312 46.802,239.312 47.118 M234.299 49.457 C 234.299 49.733,234.429 50.259,234.586 50.627 C 234.767 51.048,234.874 51.110,234.874 50.794 C 234.874 50.518,234.744 49.992,234.586 49.624 C 234.405 49.203,234.299 49.141,234.299 49.457 M227.301 50.292 C 227.301 50.660,227.422 51.337,227.569 51.796 C 227.781 52.458,227.836 52.492,227.836 51.963 C 227.836 51.596,227.716 50.919,227.569 50.459 C 227.357 49.798,227.301 49.763,227.301 50.292 M252.989 50.292 C 252.989 50.476,253.204 51.003,253.467 51.462 C 253.730 51.921,253.945 52.147,253.945 51.963 C 253.945 51.779,253.730 51.253,253.467 50.794 C 253.204 50.334,252.989 50.109,252.989 50.292 M168.908 51.819 C 168.757 52.064,168.789 52.149,168.988 52.026 C 169.174 51.911,169.506 52.424,169.731 53.176 C 169.955 53.923,170.204 54.469,170.284 54.389 C 170.457 54.215,169.773 52.082,169.416 51.683 C 169.278 51.530,169.049 51.590,168.908 51.819 M207.944 53.133 C 207.944 53.960,208.009 54.298,208.089 53.885 C 208.168 53.471,208.168 52.794,208.089 52.381 C 208.009 51.967,207.944 52.306,207.944 53.133 M214.293 53.133 C 214.293 53.960,214.358 54.298,214.438 53.885 C 214.518 53.471,214.518 52.794,214.438 52.381 C 214.358 51.967,214.293 52.306,214.293 53.133 M248.145 52.464 C 248.268 52.924,248.508 53.525,248.678 53.801 C 248.893 54.150,248.919 54.048,248.764 53.467 C 248.641 53.008,248.401 52.406,248.231 52.130 C 248.016 51.782,247.989 51.884,248.145 52.464 M261.350 53.300 C 261.350 53.484,261.713 54.311,262.155 55.138 C 262.598 55.965,262.961 56.491,262.961 56.307 C 262.961 56.124,262.598 55.297,262.155 54.470 C 261.713 53.642,261.350 53.116,261.350 53.300 M241.651 54.470 C 241.651 54.745,241.780 55.272,241.938 55.639 C 242.119 56.060,242.225 56.122,242.225 55.806 C 242.225 55.530,242.096 55.004,241.938 54.637 C 241.757 54.215,241.651 54.154,241.651 54.470 M167.457 55.839 C 167.252 56.427,167.095 57.074,167.108 57.276 C 167.121 57.479,167.347 57.056,167.611 56.337 C 167.874 55.617,168.031 54.971,167.960 54.899 C 167.888 54.828,167.662 55.251,167.457 55.839 M254.994 54.971 C 254.994 55.155,255.209 55.681,255.472 56.140 C 255.735 56.600,255.950 56.825,255.950 56.642 C 255.950 56.458,255.735 55.931,255.472 55.472 C 255.209 55.013,254.994 54.787,254.994 54.971 M222.768 58.312 C 222.864 59.231,223.148 60.961,223.399 62.155 C 223.801 64.066,223.835 64.127,223.682 62.657 C 223.586 61.738,223.302 60.008,223.051 58.814 C 222.649 56.903,222.615 56.843,222.768 58.312 M208.278 58.480 C 208.278 59.307,208.343 59.645,208.423 59.231 C 208.503 58.818,208.503 58.141,208.423 57.728 C 208.343 57.314,208.278 57.652,208.278 58.480 M250.150 57.811 C 250.273 58.271,250.513 58.872,250.683 59.148 C 250.898 59.496,250.924 59.394,250.769 58.814 C 250.646 58.354,250.406 57.753,250.236 57.477 C 250.021 57.129,249.994 57.231,250.150 57.811 M236.800 58.480 C 236.917 59.123,237.144 59.950,237.305 60.317 C 237.506 60.776,237.531 60.619,237.385 59.816 C 237.269 59.173,237.042 58.346,236.881 57.978 C 236.680 57.519,236.655 57.677,236.800 58.480 M256.767 59.148 C 257.060 60.233,258.070 62.510,258.200 62.380 C 258.275 62.304,257.953 61.433,257.484 60.444 C 257.015 59.456,256.692 58.872,256.767 59.148 M171.964 59.816 C 172.601 62.411,172.339 62.305,178.570 62.490 L 184.200 62.657 181.490 64.596 C 180.000 65.662,178.780 66.620,178.780 66.724 C 178.780 66.828,179.269 66.550,179.866 66.107 C 180.464 65.663,181.742 64.730,182.707 64.033 C 185.222 62.217,185.092 62.155,178.772 62.155 L 173.083 62.155 172.752 61.236 C 172.180 59.650,171.720 58.820,171.964 59.816 M159.791 62.071 C 153.557 62.179,153.325 62.268,155.407 63.757 L 156.558 64.581 155.388 63.544 L 154.219 62.508 159.983 62.499 C 163.597 62.493,165.748 62.365,165.748 62.155 C 165.748 61.972,165.710 61.855,165.664 61.896 C 165.618 61.938,162.975 62.016,159.791 62.071 M208.617 63.659 C 208.619 64.578,208.684 64.914,208.761 64.406 C 208.838 63.898,208.836 63.147,208.757 62.736 C 208.677 62.325,208.614 62.740,208.617 63.659 M252.823 64.829 C 252.946 65.288,253.186 65.890,253.356 66.165 C 253.572 66.514,253.598 66.412,253.443 65.831 C 253.320 65.372,253.080 64.770,252.909 64.495 C 252.694 64.146,252.668 64.248,252.823 64.829 M156.806 64.690 C 156.915 64.866,157.720 65.524,158.594 66.152 C 159.468 66.780,160.095 67.149,159.986 66.973 C 159.877 66.797,159.072 66.139,158.198 65.511 C 157.323 64.883,156.697 64.513,156.806 64.690 M259.440 65.497 C 259.734 66.582,260.743 68.859,260.873 68.729 C 260.949 68.653,260.627 67.782,260.158 66.793 C 259.689 65.805,259.366 65.221,259.440 65.497 M238.978 66.500 C 238.978 66.775,239.107 67.302,239.265 67.669 C 239.446 68.090,239.552 68.152,239.552 67.836 C 239.552 67.561,239.423 67.034,239.265 66.667 C 239.084 66.245,238.978 66.184,238.978 66.500 M177.109 67.877 C 175.945 68.898,175.944 68.899,177.016 68.187 C 177.608 67.793,178.180 67.328,178.289 67.152 C 178.611 66.631,178.344 66.795,177.109 67.877 M160.401 67.289 C 160.401 67.381,160.852 67.778,161.404 68.170 C 161.955 68.563,162.406 68.809,162.406 68.717 C 162.406 68.625,161.955 68.229,161.404 67.836 C 160.852 67.444,160.401 67.198,160.401 67.289 M208.944 69.173 C 208.934 70.368,209.037 72.698,209.172 74.353 C 209.397 77.108,209.419 77.178,209.435 75.188 C 209.445 73.993,209.342 71.662,209.207 70.008 C 208.982 67.253,208.960 67.183,208.944 69.173 M215.957 68.672 C 215.961 69.407,216.029 69.668,216.109 69.253 C 216.189 68.837,216.186 68.235,216.103 67.916 C 216.019 67.596,215.954 67.937,215.957 68.672 M246.329 69.173 C 246.329 69.449,246.459 69.975,246.617 70.343 C 246.798 70.764,246.904 70.826,246.904 70.510 C 246.904 70.234,246.774 69.708,246.617 69.340 C 246.436 68.919,246.329 68.857,246.329 69.173 M162.721 70.393 C 162.536 70.880,162.433 71.426,162.493 71.606 C 162.553 71.785,162.769 71.386,162.974 70.720 C 163.404 69.319,163.220 69.081,162.721 70.393 M216.285 71.512 C 216.285 72.155,216.353 72.419,216.438 72.097 C 216.522 71.775,216.522 71.249,216.438 70.927 C 216.353 70.606,216.285 70.869,216.285 71.512 M231.980 72.013 C 231.980 72.381,232.100 73.058,232.247 73.517 C 232.459 74.179,232.515 74.213,232.515 73.684 C 232.515 73.317,232.394 72.640,232.247 72.180 C 232.035 71.519,231.980 71.484,231.980 72.013 M262.012 71.679 C 262.012 71.863,262.227 72.389,262.490 72.849 C 262.752 73.308,262.967 73.534,262.967 73.350 C 262.967 73.166,262.752 72.640,262.490 72.180 C 262.227 71.721,262.012 71.495,262.012 71.679 M176.494 73.684 C 176.493 73.868,176.695 74.545,176.942 75.188 C 177.190 75.831,177.397 76.132,177.403 75.856 C 177.409 75.581,177.207 74.904,176.954 74.353 C 176.702 73.801,176.495 73.500,176.494 73.684 M240.983 73.851 C 240.983 74.127,241.112 74.653,241.270 75.021 C 241.451 75.442,241.557 75.504,241.557 75.188 C 241.557 74.912,241.428 74.386,241.270 74.018 C 241.089 73.597,240.983 73.535,240.983 73.851 M169.424 73.950 C 169.424 74.017,170.138 74.561,171.011 75.158 C 172.212 75.980,172.354 76.030,171.596 75.365 C 170.587 74.481,169.424 73.723,169.424 73.950 M167.251 75.050 L 166.249 75.912 167.335 75.193 C 167.932 74.798,168.421 74.409,168.421 74.330 C 168.421 74.080,168.280 74.167,167.251 75.050 M241.651 76.190 C 241.651 76.466,241.780 76.992,241.938 77.360 C 242.119 77.781,242.225 77.843,242.225 77.527 C 242.225 77.251,242.096 76.725,241.938 76.358 C 241.757 75.936,241.651 75.875,241.651 76.190 M160.234 78.195 C 159.579 80.359,159.737 81.040,160.660 80.032 C 161.207 79.434,161.206 79.424,160.652 79.842 C 159.928 80.387,159.920 80.081,160.606 78.070 C 160.902 77.200,161.077 76.420,160.993 76.337 C 160.910 76.254,160.569 77.090,160.234 78.195 M172.765 76.312 C 172.765 76.404,173.216 76.800,173.768 77.193 C 174.319 77.586,174.770 77.832,174.770 77.740 C 174.770 77.648,174.319 77.251,173.768 76.859 C 173.216 76.466,172.765 76.220,172.765 76.312 M163.576 77.724 L 162.573 78.585 163.659 77.866 C 164.256 77.471,164.745 77.083,164.745 77.003 C 164.745 76.753,164.604 76.840,163.576 77.724 M209.619 79.031 C 209.622 79.950,209.687 80.286,209.764 79.778 C 209.840 79.270,209.838 78.518,209.759 78.107 C 209.680 77.696,209.617 78.112,209.619 79.031 M175.104 77.971 C 175.104 78.180,178.293 80.535,178.574 80.535 C 178.688 80.535,178.768 80.272,178.754 79.950 C 178.738 79.590,178.662 79.528,178.557 79.789 C 178.439 80.083,177.882 79.843,176.745 79.009 C 175.843 78.346,175.104 77.880,175.104 77.971 M234.325 82.874 C 234.322 83.333,234.439 84.085,234.586 84.545 C 234.946 85.668,234.946 84.455,234.586 83.041 C 234.357 82.140,234.331 82.123,234.325 82.874 M209.954 84.043 C 209.956 84.962,210.021 85.299,210.098 84.791 C 210.175 84.283,210.173 83.531,210.093 83.120 C 210.014 82.709,209.951 83.124,209.954 84.043 M259.841 83.542 C 259.964 84.002,260.204 84.603,260.374 84.879 C 260.589 85.227,260.615 85.125,260.460 84.545 C 260.337 84.085,260.097 83.484,259.927 83.208 C 259.712 82.860,259.685 82.962,259.841 83.542 M243.656 83.542 C 243.656 83.818,243.785 84.344,243.943 84.712 C 244.124 85.133,244.230 85.195,244.230 84.879 C 244.230 84.603,244.101 84.077,243.943 83.709 C 243.762 83.288,243.656 83.226,243.656 83.542 M217.950 87.051 C 217.942 87.786,218.128 89.816,218.363 91.562 C 218.598 93.308,218.796 94.211,218.803 93.567 C 218.811 92.924,218.626 90.894,218.391 89.056 C 218.157 87.218,217.959 86.316,217.950 87.051 M210.283 89.223 C 210.283 90.050,210.348 90.388,210.428 89.975 C 210.508 89.561,210.508 88.885,210.428 88.471 C 210.348 88.058,210.283 88.396,210.283 89.223 M262.528 90.560 C 262.747 91.480,263.993 92.965,263.993 92.305 C 263.993 92.080,263.843 91.896,263.660 91.896 C 263.477 91.896,263.102 91.408,262.828 90.810 C 262.468 90.025,262.384 89.956,262.528 90.560 M246.157 92.565 C 246.274 93.208,246.501 94.035,246.662 94.403 C 246.862 94.861,246.888 94.704,246.742 93.901 C 246.625 93.258,246.398 92.431,246.237 92.063 C 246.037 91.605,246.011 91.762,246.157 92.565 M210.617 94.570 C 210.617 95.397,210.682 95.735,210.762 95.322 C 210.842 94.908,210.842 94.231,210.762 93.818 C 210.682 93.404,210.617 93.743,210.617 94.570 M236.663 93.734 C 236.659 94.102,236.849 95.155,237.085 96.074 C 237.321 96.992,237.518 97.444,237.522 97.076 C 237.526 96.708,237.337 95.656,237.100 94.737 C 236.864 93.818,236.667 93.367,236.663 93.734 M218.972 96.241 C 218.972 97.068,219.037 97.406,219.116 96.992 C 219.196 96.579,219.196 95.902,219.116 95.489 C 219.037 95.075,218.972 95.414,218.972 96.241 M210.942 100.418 C 210.934 101.520,211.116 104.904,211.347 107.937 C 211.578 110.969,211.775 112.473,211.784 111.278 C 211.793 110.084,211.611 106.700,211.379 103.759 C 211.148 100.819,210.951 99.315,210.942 100.418 M248.162 99.916 C 248.279 100.560,248.506 101.387,248.667 101.754 C 248.867 102.213,248.893 102.056,248.747 101.253 C 248.630 100.610,248.403 99.783,248.242 99.415 C 248.042 98.956,248.016 99.114,248.162 99.916 M219.626 102.924 C 219.626 103.567,219.695 103.830,219.779 103.509 C 219.863 103.187,219.863 102.661,219.779 102.339 C 219.695 102.018,219.626 102.281,219.626 102.924 M238.663 103.091 C 238.663 103.459,238.784 104.135,238.931 104.595 C 239.143 105.256,239.198 105.291,239.198 104.762 C 239.198 104.394,239.078 103.718,238.931 103.258 C 238.719 102.597,238.663 102.562,238.663 103.091 M219.961 105.931 C 219.961 106.575,220.029 106.838,220.113 106.516 C 220.197 106.195,220.197 105.668,220.113 105.347 C 220.029 105.025,219.961 105.288,219.961 105.931 M250.005 106.600 C 250.005 106.876,250.134 107.402,250.292 107.769 C 250.473 108.191,250.580 108.252,250.580 107.937 C 250.580 107.661,250.450 107.135,250.292 106.767 C 250.111 106.346,250.005 106.284,250.005 106.600 M220.295 108.271 C 220.289 108.914,220.398 110.267,220.537 111.278 C 220.759 112.878,220.794 112.943,220.809 111.779 C 220.819 111.044,220.710 109.691,220.567 108.772 C 220.358 107.433,220.304 107.333,220.295 108.271 M257.700 108.588 C 257.505 109.149,257.416 109.607,257.503 109.607 C 257.728 109.607,258.359 107.872,258.193 107.706 C 258.118 107.630,257.896 108.027,257.700 108.588 M250.835 109.607 C 250.952 110.251,251.179 111.078,251.340 111.445 C 251.541 111.904,251.566 111.747,251.420 110.944 C 251.304 110.301,251.077 109.474,250.916 109.106 C 250.715 108.647,250.690 108.804,250.835 109.607 M256.755 110.351 C 256.346 110.900,255.613 112.615,255.786 112.615 C 256.035 112.615,257.387 110.241,257.229 110.083 C 257.142 109.996,256.929 110.117,256.755 110.351 M220.977 114.620 C 220.977 115.447,221.042 115.785,221.121 115.372 C 221.201 114.958,221.201 114.282,221.121 113.868 C 221.042 113.454,220.977 113.793,220.977 114.620 M254.906 113.868 C 254.133 114.768,253.896 115.288,254.258 115.288 C 254.439 115.288,254.813 114.837,255.088 114.286 C 255.661 113.138,255.618 113.039,254.906 113.868 M211.975 115.957 C 211.975 117.335,212.034 117.899,212.106 117.210 C 212.179 116.520,212.179 115.393,212.106 114.703 C 212.034 114.014,211.975 114.578,211.975 115.957 M241.671 117.126 C 241.671 117.494,241.791 118.170,241.938 118.630 C 242.150 119.291,242.206 119.326,242.206 118.797 C 242.206 118.429,242.085 117.753,241.938 117.293 C 241.726 116.632,241.671 116.597,241.671 117.126 M221.297 117.962 C 221.297 118.605,221.366 118.868,221.450 118.546 C 221.534 118.225,221.534 117.698,221.450 117.377 C 221.366 117.055,221.297 117.318,221.297 117.962 M212.307 121.136 C 212.308 122.423,212.369 122.908,212.441 122.215 C 212.513 121.521,212.512 120.469,212.438 119.876 C 212.365 119.282,212.305 119.850,212.307 121.136 M212.622 127.318 C 212.622 128.145,212.688 128.484,212.767 128.070 C 212.847 127.657,212.847 126.980,212.767 126.566 C 212.688 126.153,212.622 126.491,212.622 127.318 M243.779 126.974 C 243.876 127.611,244.107 128.284,244.293 128.470 C 244.519 128.696,244.526 128.481,244.313 127.812 C 243.741 126.019,243.600 125.797,243.779 126.974 M234.666 128.321 C 234.666 128.780,234.780 129.607,234.921 130.159 C 235.148 131.053,235.176 131.071,235.176 130.326 C 235.176 129.866,235.061 129.039,234.921 128.488 C 234.693 127.594,234.666 127.576,234.666 128.321 M243.106 129.660 C 242.282 130.570,242.708 130.892,243.581 130.019 C 243.964 129.637,244.277 129.248,244.277 129.156 C 244.277 128.774,243.672 129.034,243.106 129.660 M212.957 132.665 C 212.957 133.492,213.022 133.830,213.101 133.417 C 213.181 133.003,213.181 132.327,213.101 131.913 C 213.022 131.500,212.957 131.838,212.957 132.665 M240.748 132.377 C 239.770 133.421,239.770 133.423,240.657 132.858 C 241.147 132.546,241.631 132.074,241.733 131.810 C 241.999 131.115,241.847 131.202,240.748 132.377 M222.968 133.333 C 222.968 133.977,223.037 134.240,223.121 133.918 C 223.205 133.596,223.205 133.070,223.121 132.749 C 223.037 132.427,222.968 132.690,222.968 133.333 M223.302 136.341 C 223.302 136.984,223.371 137.247,223.455 136.926 C 223.539 136.604,223.539 136.078,223.455 135.756 C 223.371 135.434,223.302 135.698,223.302 136.341 M213.291 137.678 C 213.291 138.505,213.356 138.843,213.435 138.429 C 213.515 138.016,213.515 137.339,213.435 136.926 C 213.356 136.512,213.291 136.850,213.291 137.678 M213.629 142.857 C 213.632 143.776,213.697 144.112,213.774 143.604 C 213.850 143.096,213.848 142.345,213.769 141.934 C 213.690 141.523,213.627 141.938,213.629 142.857 M223.768 145.575 C 223.145 146.430,223.146 146.432,223.852 146.054 C 224.242 145.845,224.561 145.454,224.561 145.185 C 224.561 144.538,224.503 144.566,223.768 145.575 M213.964 147.870 C 213.966 148.789,214.031 149.125,214.108 148.617 C 214.185 148.109,214.183 147.357,214.103 146.946 C 214.024 146.535,213.961 146.951,213.964 147.870 M221.303 146.949 C 220.706 147.246,220.217 147.608,220.217 147.752 C 220.217 147.957,222.139 147.027,222.863 146.473 C 223.258 146.170,222.251 146.477,221.303 146.949 M216.124 149.565 C 215.618 149.839,215.205 150.134,215.205 150.220 C 215.205 150.569,215.845 150.338,216.588 149.719 C 217.528 148.935,217.376 148.885,216.124 149.565 " stroke="none" fill="#cc7c7c" fill-rule="evenodd"></path></g></svg>