<?xml version="1.0" standalone="no"?>
<!DOCTYPE svg PUBLIC "-//W3C//DTD SVG 20010904//EN"
 "http://www.w3.org/TR/2001/REC-SVG-20010904/DTD/svg10.dtd">
<svg version="1.0" xmlns="http://www.w3.org/2000/svg"
 width="1024.000000pt" height="444.000000pt" viewBox="0 0 1024.000000 444.000000"
 preserveAspectRatio="xMidYMid meet">

<g transform="translate(0.000000,444.000000) scale(0.100000,-0.100000)"
fill="#000000" stroke="none">
<path d="M2470 4349 c-196 -22 -423 -85 -570 -157 l-75 -37 1 -455 0 -455 26
-97 c97 -357 368 -647 712 -763 41 -14 82 -25 90 -25 14 0 16 97 16 1000 l0
1000 -62 -1 c-35 -1 -97 -5 -138 -10z m-175 -739 l18 -60 75 0 75 0 -56 -41
c-32 -22 -57 -46 -57 -53 0 -7 9 -38 19 -69 11 -32 17 -57 13 -57 -4 0 -31 18
-61 40 l-54 39 -54 -41 c-30 -22 -56 -38 -59 -36 -2 3 5 31 16 63 11 32 20 61
20 65 0 4 -25 25 -56 46 l-57 39 74 5 73 5 20 62 c11 34 22 60 26 58 4 -2 15
-31 25 -65z"/>
<path d="M2730 4343 c0 -42 122 -1918 125 -1921 4 -4 125 57 125 63 0 2 -45
418 -100 923 -55 505 -100 926 -100 936 0 10 -8 16 -25 16 -17 0 -25 -6 -25
-17z"/>
<path d="M2840 4343 c0 -18 293 -1738 297 -1743 3 -3 26 18 53 46 48 50 48 51
39 95 -5 24 -85 395 -178 824 -157 733 -169 780 -189 783 -12 2 -22 0 -22 -5z"/>
<path d="M2956 4293 c7 -27 99 -361 204 -743 105 -382 192 -696 194 -697 1 -1
17 26 35 61 l33 64 -202 634 c-111 348 -209 654 -217 681 -11 39 -18 47 -37
47 -24 0 -24 0 -10 -47z"/>
<path d="M3061 4293 c6 -16 101 -266 211 -558 110 -291 203 -536 208 -544 8
-15 13 3 25 93 6 47 -1 68 -201 542 -189 451 -209 494 -230 494 -22 0 -23 -2
-13 -27z"/>
<path d="M3173 4278 c10 -25 330 -693 333 -697 2 -2 4 126 4 286 l0 290 -97
46 c-150 72 -252 103 -240 75z"/>
<path d="M227 2016 c-57 -16 -112 -65 -128 -114 -16 -48 -14 -134 4 -168 34
-65 82 -92 239 -134 118 -32 155 -51 175 -91 30 -58 3 -143 -56 -174 -43 -22
-152 -20 -199 4 -62 32 -106 95 -131 189 -9 31 -17 42 -31 42 -19 0 -20 -8
-20 -150 0 -144 1 -150 20 -150 13 0 28 13 41 34 l20 35 36 -25 c53 -36 101
-47 190 -43 67 3 87 9 128 34 68 42 90 89 90 187 0 69 -3 81 -30 119 -38 54
-91 81 -226 114 -59 15 -120 35 -137 45 -62 38 -61 138 1 184 36 26 136 28
183 3 48 -25 102 -94 121 -154 14 -44 21 -53 37 -51 13 2 21 10 20 21 0 9 -1
67 -2 127 -2 94 -5 112 -19 117 -12 5 -24 -3 -41 -23 l-24 -30 -56 28 c-69 34
-140 42 -205 24z"/>
<path d="M4768 2023 c-64 -4 -68 -5 -68 -28 0 -20 5 -24 38 -27 l37 -3 0 -315
0 -315 -38 -3 c-33 -3 -38 -6 -35 -25 3 -21 7 -22 128 -22 121 0 125 1 128 22
3 19 -2 22 -35 25 l-38 3 -3 68 c-3 70 4 89 39 107 14 8 27 -4 74 -67 66 -87
72 -107 33 -111 -22 -3 -28 -9 -28 -28 l0 -24 130 0 130 0 0 25 c0 15 -6 25
-15 25 -36 0 -71 31 -150 136 -47 63 -85 116 -85 119 0 3 18 22 41 43 50 45
114 82 146 82 16 0 23 6 23 20 0 19 -7 20 -130 20 -123 0 -130 -1 -130 -20 0
-16 7 -20 34 -20 60 0 54 -19 -30 -96 l-79 -72 -5 242 c-6 275 8 245 -112 239z"/>
<path d="M2680 1986 c0 -24 3 -26 44 -26 25 0 48 -6 55 -14 8 -9 11 -99 9
-307 l-3 -294 -50 -5 c-45 -5 -50 -7 -50 -30 l0 -25 225 0 c163 0 236 4 265
14 120 41 174 151 126 257 -22 48 -61 79 -123 95 l-45 12 51 26 c67 34 96 78
96 145 0 68 -26 115 -81 146 -43 24 -49 25 -281 28 l-238 3 0 -25z m420 -44
c45 -22 60 -53 60 -124 0 -80 -31 -115 -115 -128 -33 -6 -79 -10 -102 -10
l-43 0 0 133 c0 74 3 137 7 140 14 15 158 7 193 -11z m14 -326 c52 -22 70 -50
74 -120 8 -124 -34 -158 -186 -154 l-97 3 -3 149 -3 149 92 -7 c51 -4 106 -13
123 -20z"/>
<path d="M743 1889 c-14 -72 -52 -127 -94 -136 -22 -4 -29 -11 -29 -29 0 -21
5 -24 40 -24 l40 0 0 -186 0 -186 29 -29 c25 -25 37 -29 83 -29 35 0 64 7 86
20 39 24 71 89 72 143 0 30 -4 37 -20 37 -15 0 -20 -7 -20 -25 0 -38 -26 -92
-50 -105 -31 -16 -69 -4 -80 26 -6 14 -10 95 -10 180 l0 154 75 0 c73 0 75 1
75 25 0 24 -2 25 -70 25 l-70 0 0 100 c0 97 -1 100 -23 100 -20 0 -24 -8 -34
-61z"/>
<path d="M1150 1755 c-96 -30 -154 -122 -153 -240 1 -149 88 -245 223 -245
194 0 294 224 180 403 -48 76 -158 112 -250 82z m123 -46 c42 -19 60 -64 65
-163 7 -143 -24 -219 -95 -232 -50 -10 -100 16 -121 64 -24 53 -23 235 1 279
31 58 91 79 150 52z"/>
<path d="M3615 1756 c-34 -15 -65 -47 -88 -91 l-16 -30 -1 63 0 62 -44 0 c-86
0 -136 -11 -136 -31 0 -14 9 -19 43 -21 l42 -3 0 -185 0 -185 -38 -3 c-33 -3
-38 -6 -35 -25 3 -21 8 -22 136 -25 l132 -3 0 25 c0 22 -5 25 -42 28 l-43 3 0
125 c1 109 4 130 23 167 39 75 92 109 85 56 -8 -56 46 -87 90 -52 46 36 32
100 -28 125 -41 17 -42 17 -80 0z"/>
<path d="M3917 1757 c-90 -28 -147 -108 -155 -218 -13 -191 126 -309 302 -257
161 49 199 322 60 436 -57 48 -133 62 -207 39z m143 -67 c33 -36 40 -66 40
-182 0 -137 -34 -193 -115 -193 -82 0 -115 56 -115 197 0 158 28 208 117 208
37 0 50 -5 73 -30z"/>
<path d="M4412 1755 c-92 -29 -145 -98 -158 -206 -18 -154 83 -279 226 -279
138 0 227 104 223 262 -3 108 -65 196 -157 223 -59 18 -78 18 -134 0z m126
-51 c45 -31 57 -71 57 -189 -1 -86 -5 -117 -19 -143 -34 -65 -133 -79 -176
-25 -31 40 -43 99 -38 199 7 130 36 172 118 173 20 1 46 -6 58 -15z"/>
<path d="M1493 1753 c-24 -3 -33 -9 -33 -23 0 -14 9 -20 38 -22 l37 -3 0 -185
0 -185 -32 -3 c-27 -3 -33 -7 -33 -28 l0 -24 120 0 120 0 0 24 c0 21 -6 25
-32 28 l-33 3 0 142 c0 128 2 144 21 170 41 55 121 66 165 22 18 -18 19 -31
17 -177 l-3 -157 -32 -3 c-27 -3 -33 -7 -33 -28 l0 -24 120 0 120 0 0 24 c0
21 -6 25 -32 28 l-33 3 -5 165 c-3 96 -10 173 -17 185 -24 42 -62 67 -107 72
-67 8 -108 -3 -154 -43 l-42 -36 0 41 0 41 -52 -2 c-29 0 -68 -3 -85 -5z"/>
<path d="M1992 1728 c2 -16 12 -24 33 -28 28 -5 35 -16 117 -204 l87 -199 -29
-56 c-34 -67 -72 -111 -98 -111 -15 0 -18 6 -14 29 8 59 -78 77 -108 22 -14
-27 -3 -68 23 -86 33 -23 108 -19 148 8 52 35 88 97 178 308 120 279 118 276
152 288 19 7 29 17 29 30 0 20 -6 21 -101 21 -98 0 -100 0 -97 -22 2 -16 12
-24 33 -28 48 -8 48 -12 -50 -244 l-17 -40 -54 123 c-67 153 -67 154 -29 161
21 4 31 12 33 28 3 22 2 22 -118 22 -120 0 -121 0 -118 -22z"/>
<path d="M450 985 c0 -23 4 -25 44 -25 24 0 48 -6 54 -13 6 -7 12 -110 14
-267 3 -243 4 -257 26 -297 44 -83 135 -119 280 -111 126 7 181 38 219 123 15
34 18 80 23 288 5 231 6 250 24 263 11 8 35 14 53 14 29 0 33 3 33 25 l0 25
-135 0 -135 0 0 -25 c0 -22 4 -25 35 -25 22 0 43 -8 55 -20 19 -19 20 -33 20
-258 0 -273 -4 -288 -81 -332 -59 -33 -163 -34 -227 -1 -76 39 -82 64 -82 347
0 173 3 243 12 252 7 7 29 12 50 12 34 0 38 3 38 25 l0 25 -160 0 -160 0 0
-25z"/>
<path d="M1830 990 c-11 -11 -20 -29 -20 -40 0 -25 34 -60 58 -60 29 0 62 29
62 56 0 29 -32 64 -60 64 -11 0 -29 -9 -40 -20z"/>
<path d="M3840 990 c-11 -11 -20 -29 -20 -40 0 -27 35 -60 63 -60 53 0 77 75
35 104 -30 21 -54 20 -78 -4z"/>
<path d="M4125 903 c-12 -85 -61 -153 -107 -153 -13 0 -18 -8 -18 -25 0 -22 4
-25 40 -25 l40 0 0 -180 c0 -110 4 -188 11 -203 34 -74 189 -59 230 23 25 49
29 123 8 128 -13 2 -18 -8 -24 -44 -11 -79 -78 -121 -118 -76 -14 16 -17 44
-17 185 l0 166 73 3 c66 3 72 5 75 26 3 21 0 22 -72 22 l-76 0 0 100 c0 91 -2
100 -19 100 -15 0 -20 -10 -26 -47z"/>
<path d="M1208 753 c-40 -3 -48 -8 -48 -24 0 -15 7 -19 34 -19 18 0 39 -6 45
-14 8 -9 11 -68 9 -187 l-3 -174 -37 -3 c-30 -3 -38 -7 -38 -23 0 -18 8 -19
125 -19 117 0 125 1 125 19 0 16 -8 20 -37 23 l-38 3 -3 123 c-3 149 14 203
72 227 53 23 84 19 117 -14 l30 -30 -3 -153 -3 -153 -37 -3 c-30 -3 -38 -7
-38 -23 0 -18 8 -19 125 -19 117 0 125 1 125 19 0 16 -8 20 -37 23 l-38 3 -5
170 c-6 189 -12 209 -75 239 -67 32 -146 17 -202 -37 l-33 -31 0 42 0 42 -42
-2 c-24 -1 -64 -3 -90 -5z"/>
<path d="M1788 753 c-40 -3 -48 -8 -48 -24 0 -15 7 -19 35 -19 24 0 37 -6 45
-19 15 -29 13 -334 -2 -349 -7 -7 -27 -12 -45 -12 -26 0 -33 -4 -33 -20 0 -19
7 -20 130 -20 122 0 130 1 130 19 0 16 -8 20 -37 23 l-38 3 -3 213 -2 212 -43
-2 c-23 -1 -63 -3 -89 -5z"/>
<path d="M2593 739 c-45 -22 -88 -76 -103 -130 -18 -63 -12 -159 14 -214 27
-58 57 -88 108 -110 87 -36 212 -2 262 71 29 44 32 59 12 67 -9 4 -25 -8 -42
-30 -34 -45 -104 -77 -149 -69 -67 13 -115 76 -115 151 l0 35 165 0 166 0 -7
53 c-15 129 -86 197 -203 197 -46 0 -78 -6 -108 -21z m159 -30 c25 -13 48 -68
48 -113 0 -44 -12 -48 -130 -44 -96 3 -99 7 -80 78 16 60 49 90 100 90 23 0
50 -5 62 -11z"/>
<path d="M2968 753 c-40 -3 -48 -8 -48 -24 0 -15 7 -19 34 -19 18 0 39 -6 45
-14 8 -9 11 -68 9 -187 l-3 -174 -37 -3 c-30 -3 -38 -7 -38 -23 0 -18 8 -19
130 -19 122 0 130 1 130 19 0 16 -8 20 -42 23 l-43 3 -3 99 c-4 144 30 240
100 277 18 10 19 8 13 -24 -8 -41 13 -67 55 -67 60 0 81 69 35 115 -18 19 -35
25 -67 25 -53 0 -81 -19 -119 -78 l-29 -46 0 62 0 62 -37 -2 c-21 -1 -59 -3
-85 -5z"/>
<path d="M3431 747 c-42 -21 -65 -62 -65 -117 0 -92 36 -123 174 -154 97 -22
120 -37 120 -79 0 -62 -72 -101 -143 -78 -47 16 -95 66 -109 113 -8 26 -17 38
-30 38 -16 0 -18 -10 -18 -100 0 -85 2 -100 16 -100 9 0 23 9 32 20 l17 21 40
-21 c54 -27 135 -27 186 2 47 26 69 70 69 136 0 87 -45 121 -203 152 -92 18
-125 71 -74 118 37 35 107 31 153 -10 20 -18 43 -47 51 -65 7 -18 20 -33 28
-33 12 0 15 16 15 85 0 78 -2 85 -20 85 -10 0 -23 -7 -28 -15 -7 -14 -12 -14
-45 0 -44 18 -133 19 -166 2z"/>
<path d="M3798 753 c-40 -3 -48 -8 -48 -24 0 -15 7 -19 33 -19 55 0 57 -8 57
-190 0 -179 -3 -190 -52 -190 -21 0 -28 -5 -28 -20 0 -19 7 -20 125 -20 117 0
125 1 125 19 0 16 -8 20 -37 23 l-38 3 -3 213 -2 212 -43 -2 c-23 -1 -63 -3
-89 -5z"/>
<path d="M1980 730 c0 -11 6 -20 13 -20 31 0 52 -36 137 -230 64 -147 94 -206
107 -208 15 -2 31 29 87 170 91 227 99 243 135 258 19 8 31 20 31 31 0 17 -9
19 -100 19 -92 0 -100 -2 -100 -19 0 -14 9 -21 31 -26 17 -4 33 -13 36 -21 6
-16 -85 -264 -97 -264 -4 0 -32 60 -63 133 -53 121 -56 133 -40 145 9 6 23 12
30 12 7 0 13 9 13 20 0 19 -7 20 -110 20 -103 0 -110 -1 -110 -20z"/>
<path d="M4350 732 c0 -11 13 -24 32 -33 30 -13 41 -32 117 -207 l84 -192 -24
-52 c-47 -101 -119 -156 -119 -90 0 35 -16 52 -51 52 -36 0 -59 -24 -59 -60 0
-61 90 -90 166 -54 53 25 88 86 199 343 86 202 105 239 133 256 17 11 31 28
32 38 0 15 -11 17 -95 17 -87 0 -95 -2 -95 -19 0 -13 9 -21 29 -26 16 -3 32
-12 35 -20 6 -17 -95 -268 -105 -257 -19 20 -111 253 -106 266 4 9 18 16 32
16 18 0 25 5 25 20 0 19 -7 20 -115 20 -105 0 -115 -2 -115 -18z"/>
</g>
</svg>
